/* XPM */
static char *_643457169658[] = {
/* columns rows colors chars-per-pixel */
"64 64 256 2 ",
"   c #080101",
".  c #180209",
"X  c #1E0717",
"o  c #240206",
"O  c #2E090F",
"+  c #350C27",
"@  c #382623",
"#  c #4D1709",
"$  c #5C2613",
"%  c #56260C",
"&  c #692905",
"*  c #6C371B",
"=  c #753919",
"-  c #6F2E0E",
";  c #46012A",
":  c #4A0632",
">  c #570339",
",  c #501634",
"<  c #6C0F33",
"1  c #542E31",
"2  c #70362B",
"3  c #631B0D",
"4  c #7B431D",
"5  c #794628",
"6  c #764B34",
"7  c #584235",
"8  c #322E54",
"9  c #55134B",
"0  c #680546",
"q  c #7A0953",
"w  c #761655",
"e  c #6D124E",
"r  c #522F4B",
"t  c #6D2C54",
"y  c #772A6B",
"u  c #6D2667",
"i  c #2F5970",
"p  c #74514A",
"a  c #704C6A",
"s  c #74656A",
"d  c #5B5963",
"f  c #82341B",
"g  c #8E4B1A",
"h  c #874B27",
"j  c #96562A",
"k  c #955A38",
"l  c #8C5133",
"z  c #A55A33",
"x  c #98653B",
"c  c #A96635",
"v  c #A95B1B",
"b  c #C57A36",
"n  c #840B5B",
"m  c #851453",
"M  c #891764",
"N  c #98176B",
"B  c #960C69",
"V  c #A91879",
"C  c #B2197D",
"Z  c #A3176F",
"A  c #932A72",
"S  c #A6237A",
"D  c #A3396D",
"F  c #8F324F",
"G  c #895846",
"H  c #95524F",
"J  c #98644A",
"K  c #896758",
"L  c #957658",
"P  c #916A53",
"I  c #B97746",
"U  c #AB714F",
"Y  c #8E4E6F",
"T  c #9A7767",
"R  c #93716C",
"E  c #B47A6A",
"W  c #AE7970",
"Q  c #A8565B",
"!  c #C77E52",
"~  c #C27875",
"^  c #B28559",
"/  c #998778",
"(  c #998B74",
")  c #A7866B",
"_  c #AA877A",
"`  c #B98779",
"'  c #AA947C",
"]  c #B58D70",
"[  c #CE8A54",
"{  c #C68879",
"}  c #CC9271",
"|  c #DAA473",
" . c #EDAB73",
".. c #E39D6D",
"X. c #307688",
"o. c #4F6E8C",
"O. c #6D7296",
"+. c #B51D82",
"@. c #BA1E85",
"#. c #AD1E80",
"$. c #AA2682",
"%. c #BB2186",
"&. c #BC2489",
"*. c #BC2A8B",
"=. c #B42486",
"-. c #B8368B",
";. c #C22A8D",
":. c #C2268C",
">. c #C42D91",
",. c #C83894",
"<. c #C1308E",
"1. c #B24F8B",
"2. c #986687",
"3. c #C94696",
"4. c #CE4D99",
"5. c #CC6798",
"6. c #3AB2BA",
"7. c #35A9B1",
"8. c #2E909A",
"9. c #4F99A7",
"0. c #728FAA",
"q. c #45B4BB",
"w. c #54ADB5",
"e. c #6DAFB9",
"r. c #568192",
"t. c #4ABBC3",
"y. c #57BAC5",
"u. c #75AEC7",
"i. c #67BBC6",
"p. c #77B6C8",
"a. c #7DB7D1",
"s. c #57C5CD",
"d. c #69C3CB",
"f. c #78C4CB",
"g. c #77C9D4",
"h. c #6FCAD6",
"j. c #96928E",
"k. c #B98A86",
"l. c #AB9787",
"z. c #B89887",
"x. c #BA9B94",
"c. c #A8918D",
"v. c #B9A489",
"b. c #BBA795",
"n. c #ADAB98",
"m. c #8AA9BC",
"M. c #96ACB9",
"N. c #99B3BC",
"B. c #94ACAF",
"V. c #A9B5B9",
"C. c #B0B0AC",
"Z. c #9D99A7",
"A. c #C79686",
"S. c #D69A89",
"D. c #C79C96",
"F. c #D59B99",
"G. c #C68D86",
"H. c #C7A799",
"J. c #D7A798",
"K. c #CFAE95",
"L. c #E7A899",
"P. c #E8B49D",
"I. c #EFB68B",
"U. c #C9AAA5",
"Y. c #D7AAA5",
"T. c #C9B8A7",
"R. c #D9B6AC",
"E. c #DDB8B5",
"W. c #C3ADB7",
"Q. c #E6B7A8",
"!. c #F4B9A7",
"~. c #E6BAB5",
"^. c #F3BAB8",
"/. c #E9ABA7",
"(. c #D89C9C",
"). c #B7C6B9",
"_. c #FAC392",
"`. c #D5C4AC",
"'. c #D9C7B5",
"]. c #D1C7B3",
"[. c #E9C5BA",
"{. c #F8C7B6",
"}. c #FDD3BE",
"|. c #EAC9B2",
" X c #95AEC3",
".X c #84BBCD",
"XX c #88B7CA",
"oX c #97B7C9",
"OX c #85BCD2",
"+X c #89BCD4",
"@X c #96BDD6",
"#X c #89AEC3",
"$X c #A8B8C8",
"%X c #A7BDD2",
"&X c #B3B9CC",
"*X c #BC98C6",
"=X c #D7B3CB",
"-X c #8AC2CE",
";X c #97C1CC",
":X c #8CC3D2",
">X c #88C8D6",
",X c #93C4D4",
"<X c #94C3DB",
"1X c #9CC3DC",
"2X c #9CCBDA",
"3X c #98C8D6",
"4X c #97D3DC",
"5X c #8BD4DC",
"6X c #AAC6CB",
"7X c #B5C6C9",
"8X c #A3CCDC",
"9X c #ABCCDD",
"0X c #A7C6D7",
"qX c #B7C8D6",
"wX c #A9D2DC",
"eX c #B5D4DB",
"rX c #B8D1C8",
"tX c #9ACBE2",
"yX c #99D5E4",
"uX c #8CD3E2",
"iX c #ACCDE3",
"pX c #A3CAE3",
"aX c #B6CCE4",
"sX c #A5D3E3",
"dX c #ACD3E4",
"fX c #ADDBED",
"gX c #A7D8E8",
"hX c #B3D4E3",
"jX c #B7D7E9",
"kX c #B4DBF2",
"lX c #B9E7F4",
"zX c #B0E3ED",
"xX c #DCD5C6",
"cX c #C4CBD6",
"vX c #C7D5DD",
"bX c #DBD7D9",
"nX c #D0CACA",
"mX c #EAC9C5",
"MX c #FCCDCA",
"NX c #F6C9C5",
"BX c #E7D9C9",
"VX c #FBD3CC",
"CX c #F9D5C6",
"ZX c #FAD8D4",
"AX c #E5D2D8",
"SX c #E9E6D8",
"DX c #F5E6D7",
"FX c #F2E7D3",
"GX c #C7D8E6",
"HX c #D0D9EF",
"JX c #E2D9E7",
"KX c #D6E2E5",
"LX c #C5E9F7",
"PX c #CBEAF1",
"IX c #F0EDE7",
"UX c #D8E5DC",
/* pixels */
"&XqXqXcXvXvXvXvXcXeXqXqX6X6X7XqXcXeXvXGXGXqX$XeXLXjXjXjXGXGXkXHXGXjXjXhXhX9X8X8X8XwXeXhXhXjXjXjXeXhXiX9X9X8X0X0X8X8X9X9XqXaXaXaX",
"cXcXGXGXvXvXcXvXvXvXvXvXrXvXUXJXKXUXvXKXvXGXGXeXqXaXaXjXjXaXHXaXjXhXwX9X8X3X3X1X0X9XwXwXeXhXjXhXeXhXiX9XeXdX9XhX9XdXiXiXaXjXkXHX",
"cXvXKXGXvXGXGXHXPX&XnXbXbXSXxXT.].UXUXIXSXbXxXUXvX6XaX9XiXiXiX9X0X1X,X,X,X-XoX,X3X8X8XwXwXwXsXwXwXeXeXiXeXwXhXeXeXhXhXhXaXkXGXjX",
"vXGXKXvXvXvXGXKX$XvXUXBX[.b.( T.FXFXSXSXIXIXSXbXbX&X0XqX0X0X@XoXoXXX+X@X:X;X,X3X3X8X2X2X2X2X2X2X8X9XwXhXeXzXhXhXhXeXeXeXiXiXaXaX",
"KXvXGXGXqXvXvX$XvXUXxX`.`.' `.'.`.`.].xX].xXFXIXIX7X6X0X0XoX#X#X#X#XXX,X3X3X3X0X8X8X;X3X:X-X-X,X3X3XwXwXwXhXeXeXiX9X0XtXtXtXpXpX",
"GXvXvXGXqXrXrXcXIXBX].`.' v.`.T.n.`.BXFXIXBXxXSXIXIXGX6X$XoXXX#XXX-X,X3X8X9XwX0X8X8X3X-X-X-X-X-X-X,X3X2XwXwX9X9X8X1X@X@X<X1X@X%X",
"cXGXvXeXeXeX6XnXIXBX`.`.K.' K.v.`.BXDXIXSXIXIXFXxXIXIXUX7Xm.XX.X.X:X,X3X0X9XeX9XwX8X,X-X.X.Xf.m..X.X;X,X3X2X8X8X0X,X@XtX<X@X@X%X",
"eXGXhXeXeX6XB.nXBXBX`.'.' ' v.n.`.FXDXDXIXIXDXDXSXxXSXSXIXeXm.p.a..X-X3XwXwX0XrXrX6X;XoXXXXX-X-X+X:X.X-X,X,X3XtX2X@X<X<X<X<X1X1X",
"eXeXeXwX;X).C.b.n.|.`.`.v.' ' T.`.`.'.FXFXFXIXDXFXBXxXBXFXUX6Xp.e.a.-X-X5X6X).rX).n.n.).-Xf..X-X:X.X+X.X+X+X<X+X<X+XtX@XtX<X@XtX",
"%X0XqX6X6X).j.( ' T.|.`.`.' ' `.BXZXb.T.BXBXFXDXFXFXFXFXBXBXUX).e.f.e.B.B.n.' ' ' ' ' ( n.B.B.;XoXXXXX,XOXa.OXOXOX<X+X<X@X<XpX1X",
"7XqXeXqXrXC.j.( ( ^ ' |.`.' ( ' T.BX'.H.H.'.ZXBXFXFXFXFXFXFXBXrXe.e.B.l.' ^ ^ ^ ^ [ | [ ^ ^ ( ' B.V.,X>XOXu.a.a.OX+X<X<X1X1XpX1X",
"7X6X0XrX7Xn.l.' ( p s ' K.( ^ ' R.CXDXDXBXx.x.BXBXBXxX'.xXFX'.).B.0.( L c [ | | [ b [  .[  .^ ^ ( j.N.:Xa.p.a.a.OX+X@X@X1XpX1XpX",
"7X6XeXqXC.n./ R G p R T ' z.U.Q.~.mXZXFXDXZXH.T b.].|.'.`.`.].C.( p 6 c [ I._._. ...b b v b  . .| ^ ( B.#Xa.u.a.a.#X+X@X1XpX1XpX",
"&XqX0X7XV.n.R L L _ k.D.K.'.[.[.[.[.mXZXZXZXCXY.) L ( l.K.T.FXT.6 g c [ [ | I._._. .b v 4 g [  .I. .^ ( #Xu.a.u.a.+X+X+X1XpXpX%X",
"$X&XqX6XqXV.j.l.l.b.z.D.E.[.mX[.[.~.[.mXCXVXZXVXR._ ) ' T.|.`.J 4 x b ^ [ [ | |  ._.^ x 4 & z  ._._.| ( m.u.u.a.u.a.a.@XpXpXpX1X",
"$X%X&X$X6X$Xn.l.x.x.D.H.E.~.^.NXNXNXNXVXVXVXVXVXVX|.] ' ' ] U 4 j c I c I I I x ^ [ } P.I.^ 4 U _._. .^ 2.#Xu.u.u.a.OXpXpXpXaX%X",
"$X&X%X%X%XV.C.n.z.k.H.Y.~.~.~.mXMXVXMX~.F.(./.^.CXVXR.K.T 6 5 h j j j j c z j l J ] {.}.}.}.S.x x [ [ ^ ( j.e.p.p.u.a.tXtXiXpXpX",
"$X&X&X&X0X$XV.x.c.K K R D.E.~.~.R.D._ k.k.Y.5.R J.ZX|.H.) 5 4 j j j h j h = x J ^ {.}.CXCXFXCXJ.x j v j x ( N.i.i.a.a.+XpXpXpX@X",
"$X&X&XaX6XN.C.l._ k.2.K R Y.E.R.W K R 2.2.s r X 2.DXCXK._ * h g g h h - $ l W A.!.CX{.Q.P.} ` A.J.J - 4 g x B.u.u.a.a.<XtXtXtX<X",
"$X&X&X&X XN.C.j.c.K W R k.D.U.E.E.k.t 2 d r   @ E.ZXVXQ.` 5 h l h h 5 G G G T J.~.{.A.k G L ] A.S.K.4 % 4 p j.f.a.a.a.tXtXtXtX<X",
"&XaXqX%X$XM.Z.j.j.1 p 1 p D.H.~.~.Y.p t xXs @ U.IXZXMX~.W h h h 4 k E { { A.z.J.|.Q.P.J.R.K.A.v.P.{.J # & h j.m.OXa.+X<X<XtXtXOX",
"&XqX&X&X$X$X$XZ.s 1 r r 1 R Y.E.[.NXj.C.C.x.mXZXMXNXNX^.E 5 h = J ] 6 6 G ) ` J.Q.`.~.J.p 1 1 # 7 _.J.# & - ( ). X+X<XtXpXtXtX+X",
"&XqX&X%X$X$XoXV.Z.d j.n.X 1 U.~.ZXDXZX~.mXZXMXNX^.^.^.Q.` 5 * % T 7     @ p ` A.Q.|.|.7   j.IX'.G K._.h f * K C.@X1XpXpXpXpXtX<X",
"&X%X%X%X$XoXoX X$Xj.d s R / x.~.ZXDXZXZXMX^.^.^.^.~./.F.l 5 * # J p @   c.l.T A.Q.{.`.@ . n.IXR.v.{.!.U S.k 6 b.%XtXpXpXaXaXpX<X",
"oX$X$XoX X XoX XV.C.b.Y.E.~.U.^.ZXZXVXNX^.^.^././.(./.` 2 5 * # J T p d xXBX] A.P.}.}.( ( b.z.z.{.CX{.} S.^ 5 b.6XpXsXdXhXjXdXtX",
"oX X X XM.#Xm.m. XC.x.Y.~.~.Y.^.ZXZXNX~.J.F.(.L.(.(.Y.` G 5 % * G ` R l.C.`.J.J.!.}.CX}.mX[.{.}.}.{.!.S.L.^ 6 n.6X1X4XwXdXdX8X1X",
"$X XoX X X X X X XC.c.D.H.H.F.^././.NX/.W G.D.F.F.D.k.` L * 3 6 l S.R.[.}.}.|.Q.Q.}.CXCXCX{.{.!.!././.P.P.U 6 n.6X4X3XwX8X2X1X2X",
" X%X@X X X X#XoX$X&XZ.2.5.G.W E F.NXNX/.Y.Y.F.F.J.G.T z.) 2 % 6 H G.J.!.~.{.{.P.{.CX}.CX{.{.!.P./.L.L.!.!.^ ) C.eXgXwXwXwX2X2X3X",
"%X%XoX X#XoXoXoX X$X&Xj.W k.k.W 5.~ 5.^.MX/.Y.Y.k.W W ' T 6 % 5 E E { S.J.P.J.A.!.!.!.{./.L.L.L.L.S.S.L.} ^ ' T.eXwXwXwXwXwX4X4X",
" XoXoXoXoXXX@XoX X%X%X$Xj.j.2.H F Q (.^.^.E.J.` T ` z.b.( G * * E E E ~ ` { } ~ ~ L.{.!.{ E { S.S.L.~ f c } ' rXeXgXzXzXgXwX4X4X",
"%X1X@XoXXX#X+X@X+XoX@X;XXXB.j.k.W G./.E.R.D.` ` D.z.b.'.K.L 6 % l W E ` E E { G.L.L.L.S.L.L.S.S.S.} j j [ } n.).zXzXzXlXzXwX4X3X",
"1XtXtX@X+X@X@X#XoX+X@XXX-X;XV.j.c.x.(.D.k.` 2.J.E.D.T.mX'.v.p 5 & 2 ] { ~ ~ E Q Q ! ~ L.{.{.P.S.S.H z j I ^ n.).wXwXeXzXfXwX4X;X",
"sXpXsXsXgXzXfX8XgX8X3X:X>X>X,X6XZ.Z.c._ _ k.Y.~.[.D.T.'.'.|.( 5 2 % k A.{ } G.{ ~ } P.{.!.!.L.S.E h h 4 c U C.6XwXyXfXjXlXkXyX:X",
"gXgXfXgXtX2X2X2XsX8X3X3X5X>X-X,X;XV.x.G.k.F.~.mXmXx.' `.`.T.' 6 & h $ J A.S.S.{ { S.L.P.P.L.G.U - 5 j & j x C.4XyXzXgXfXkXfXgXtX",
"tXyXtXsX8X2X2X8X8X3X2X2X<X:X<X5X@XN.C.k.D.Q.[.mXNXU.L ' b.K.' J * % $ # G k.D.{ G.S.J.L.} W T 2 * 4 c & - ^ ).5X5X4XyXgXkXfXgXtX",
"tXsXyXsXsX2X8X8XwX2XyXyXOX<X:Xf..XM.x.D.R.~.mXCXZXR.' ' ' ' v.J P k % # O 2 K W ` { ` ^ P G ` G # - g & 4 L ).;X5X5XyXgXyXgXgXyX",
"pXsXsXsX8XsX8XwX8X2X5X.X>X-Xa.-X#XM.x.Y.E.[.VXVXZXmX' H.b.' ) L 5 k J * # o O # 1 1 t t Q G.Y.R - h ! z & j ' ).5XuXyXyXyXkXfXtX",
"pXkXpXsX8XdX9XdX8X,X,X,X-Xp.p.m.N.B.b.Y.~.mXVXZXZXZXb.' H.b.( P * & x j # . o o o . O , t Y *XR $ 2 } I g ! ( C.8XuXuXyXgXkXkXfX",
"gXfXsX8XpX8XwX8X2X,X>X:Xp.m.oXoXV.C.W.~.[.NXVXVXZXDX|.l.x.T.' G 5 = h = & o         . X X + r t a t = z ..} ( ).gXyXuXzXzXlXlXkX",
"fXkXpXiX8X3XsX2X,X3X;X#XM.N.M.Z.C.U.Y.~.mXNXMXMXMXCXZX[.H.b.' K 5 5 c k * O .   . . . . . . X + a x.- z .. .v.).4XgXgXzXlXlXlXlX",
"jXkXfXiXpXiXiX1X;X6XV.C.C.x.x.U.Y.E.~.mXNXMXNXMXMXNXNXVXZXmXx.K 6 5 c h % o o o + ; + + O O X X r Y = ! ..c x n.eXgXzXlXlXlXLXLX",
"fXkXkXfXpXjXiX0X0X$XC.U.U.J.~.[.~.^.MXMXVXMXMXMXNXNXNXVXAXZXZX~.p & = & , t t Y 1.1.1.D Y y e : + , 3 U | I ] l.wXyXzXLXlXLXLXLX",
"iXjXfXfXhXjXiX9XV.V.T.U.R.~.^.^.NXMXMXMXMXMXMXMXNX^.NXZXZXJXZXIXx.2 # - 1.1.5.5.5.4.4.5.4.3.D A e , # = g c | b.eXgXzXlXLXLXLXLX",
"pXfXiXfXhXhXiX0XB.W.W.E.mX[.mXNXNXAXAXZXZXAXZXNXE.mXnX=XcXcXJXbXbXD.F D 1.3.3.4.4.4.4.4.4.4.<.S w 2.k.6 4 j } T.rXzXlXLXLXLXLXlX",
"dXgXfXhXkXhXeX6XB.V.mXZXAXMXAXAXAXbXbXJXJXJXbXcX*X$X*X$X%X&XaXcXHX*X$.1.1.-.,.3.4.3.4.4.,.,.4.,.M Y A 6 ! [ c U xXzXPXlXPXLXLXlX",
"hXjXhXzXjXhX8X8XM.cXcX=XnXW.&X7XqXcXqXqXqXcX*X X Xm.m. X%XaXHXHXcX$.$.-.3.,.3.,.,.4.3.,.,.,.,.,.-.M w < z  .! I ).PXPXPXLXLXLXlX",
"9XjXjXeXhX2X,XXX;X0X0X%X Xm.e.,X9XjXLXGXHXGXaX%X#X#Xm.*X%XaXaXHX1.M -.*.-.,.,.,.,.,.,.,.,.,.>.:.;.$.D w - I ^ I.xXUXPXPXLXlXlXlX",
"jXjXfXhXwX;Xp.XX:XtXfX+Xe.u.a.p.OXtXgXLXLXkXjX1Xa.O.O.m. X%XaX*Xu =.*.*.>.>.,.,.,.>.>.>.>.>.>.:.*.@.Z < 2 j b | K.UXPXLXlXlXlXlX",
"aXjXiXhXzX;Xf.-X-X>X-Xe.f.f.f.5X5Xp.>X4XlXhXdX@X0.r.0.0.m.%X*Xy $.=.*.&.>.&.:.:.;.*.;.;.;.>.;.;.:.>.S M < z } ! z |.KXLXzXlXlXzX",
"hXdXhXpX;Xf.-X4X5X-X-X-Xg.5X5X5Xg.5XyX4XgXwX;Xp.o.o.o.O.O.Z.$.y $.*.*.:.&.:.:.@.%.;.*.;.;.;.:.%.;.>.C Z m f z ! [ P.KXHXLXzXlXzX",
"pXhXiXpXe.-Xf.5Xf.i.>X5X5X5X4X4XgXzXgX-XzX-Xe.>X0.i o.o.O.O.y $.$.*.:.:.:.&.@.+.%.:.&.&.&.*.:.:.;.>.<.*.B m f f I.|.nXLXLXkXlXgX",
"0XiXaXXXe.f.f.f.i.f.f.i.f.5X4X4X4X4Xf.5X4Xp.w.p.tXo.i o.O.u $.=.#.*.:.&.&.*.+.+.;.%.&.&.&.&.:.:.>.;.<.*.B n F j ] J.W.HXaXkXlXfX",
"%XpX9Xe.e.p.-Xf.d.f.i.e.d.uXuXyXh.p.9.w.d.a.y.a.>Xe.i i A A $.#.=.*.*.&.@.@.@.@.%.%.:.@.C %.%.:.:.>.<.Z S m m F ~ | W C.HXjXLXjX",
"%X0XiX.X-Xi.i.i.f.g.5Xf.e.g.yXg.h.h.i.y.g.i.u.h..Xe.i 8 u A $.=.=.&.&.&.@.@.&.@.=.@.:.@.@.@.%.:.:.:.;.S Z m m F U _.J.R &XKXkXaX",
"%X0XaXXXe.w.p.f.g.i.i.d.h.h.h.g.i.i.h.i.g.g.i.y.e..Xd r M $.$.#.=.=.=.&.+.+.+.+.@.@.%.@.%.=.C %.@.@.C Z q 0 n F < ^ {.|.s cXHXGX",
"%XqXjXoXe.w.w.>Xg.g.s.w.d.d.h.h.i.i.y.h.i.h.i.y.w.9.i u $.$.#.$.#.=.&.&.+.C V C @.C +.@.%.%.:.%.:.@.Z Z n 0 n M < p ] ] l.8 2.HX",
"&XaXHX1X9.d.w.y.i.i.w.y.f.y.y.y.y.y.h.y.i.i.y.u.9.o.9 y $.#.#.$.#.#.+.+.#.C B +.C C C @.:.@.&.=.=.C N M q 0 n M < % z.L s @ 0.AX",
"%XjXHXLX9.w.i.9.w.d.q.w.s.y.y.q.y.s.t.y.h.y.u.y.o.X.y $.$.$.$.V #.#.#.+.#.B B C V C @.C C C C C Z N N n 0 0 A e r O } }.L O s bX",
"aXGXHXLXf.9.w.f.w.d.7.q.s.t.q.q.6.t.6.t.s.t.t.9.X.8 y $.S $.$.+.#.C V +.V B B C C V C V V Z B N M M q > 0 M A > + O ^ | A.# s JX",
"qXHXGXPXzX9.f.i.y.s.8.7.6.6.7.q.6.t.t.7.y.y.7.X.8 9 e M n M V C V B B B B B B B S Z Z Z N m n n < q 0 0 M A e , + o P U U H Z.IX",
"GXHXHXHXLXf.e.w.7.6.7.6.7.6.7.t.s.6.6.6.s.6.8.i 8 9 0 0 q q M M n M M n n q q M m n q q q 0 0 > 0 > q N A w : , X   @ x l ] JXHX",
"HXHXHXLXPX;Xw.g.7.6.6.6.7.s.s.q.6.6.s.t.6.8.i 8 9 y e 9 > > > w q w q 0 0 q 0 0 e 0 > 0 0 : : > 0 y A A 9 ; , +       % 4 ) JXPX",
"HXHXHXPXPX4Xw.w.q.t.6.6.s.s.6.t.q.s.t.t.t.8.i t r 9 u t e > > > > > > > > > ; : > > : ; : > 0 w w 9 > + : , +         . * J C.HX",
"GXHXHXHXPXrXw.d.t.s.6.6.t.q.s.t.s.q.t.t.6.X.8 a a a y t t w e > : ; ; ; ; ; ; + ; : : > e w w 0 ; ; : : , +           . * H Z.JX"
};
