/* XPM */
static char *_643457133990[] = {
/* columns rows colors chars-per-pixel */
"64 64 256 2 ",
"   c #030302",
".  c #0B0200",
"X  c #020B02",
"o  c #0A0A08",
"O  c #130101",
"+  c #160803",
"@  c #05150B",
"#  c #181407",
"$  c #0A1B16",
"%  c #151B16",
"&  c #0B0A12",
"*  c #260502",
"=  c #251604",
"-  c #381705",
";  c #2E1110",
":  c #102517",
">  c #342519",
",  c #162F24",
"<  c #342F25",
"1  c #391924",
"2  c #471700",
"3  c #521B04",
"4  c #572708",
"5  c #502D10",
"6  c #673717",
"7  c #743C16",
"8  c #6A3109",
"9  c #51382A",
"0  c #6C3A24",
"q  c #394939",
"w  c #76451D",
"e  c #514D32",
"r  c #694727",
"t  c #784826",
"y  c #725235",
"u  c #7C6538",
"i  c #643A4C",
"p  c #274E4E",
"a  c #735646",
"s  c #566B54",
"d  c #716A51",
"f  c #527A75",
"g  c #6B756A",
"h  c #4E5348",
"j  c #8B4C15",
"k  c #AC641D",
"l  c #854D26",
"z  c #8B5528",
"x  c #985A28",
"c  c #865737",
"v  c #945A32",
"b  c #946635",
"n  c #A66934",
"m  c #B07133",
"M  c #865A45",
"N  c #915C47",
"B  c #996949",
"V  c #8F6F51",
"C  c #A87549",
"Z  c #B77945",
"A  c #A66B56",
"S  c #A97856",
"D  c #A96F4E",
"F  c #8F7868",
"G  c #B67A67",
"H  c #AF7767",
"J  c #A25E51",
"K  c #C27A36",
"L  c #718573",
"P  c #5C8579",
"I  c #D0853B",
"U  c #BA8656",
"Y  c #B08552",
"T  c #8E8775",
"R  c #B88569",
"E  c #B98874",
"W  c #AE936E",
"Q  c #B7A57B",
"!  c #9D8152",
"~  c #C78949",
"^  c #C78B56",
"/  c #D59859",
"(  c #C89355",
")  c #EBA458",
"_  c #C68976",
"`  c #C7947A",
"'  c #CF946D",
"]  c #DBA367",
"[  c #C9A578",
"{  c #D5A573",
"}  c #ECB478",
"|  c #EEAF70",
" . c #E49C5A",
".. c #FFCA7D",
"X. c #587F84",
"o. c #538D95",
"O. c #6D9690",
"+. c #73A39C",
"@. c #5B9CA5",
"#. c #69A7AC",
"$. c #6CB2B8",
"%. c #75B8BD",
"&. c #71AAB1",
"*. c #5E9EA4",
"=. c #6DB2CC",
"-. c #73B4CE",
";. c #7BB5CC",
":. c #7DBACC",
">. c #79B8C5",
",. c #7CBBD2",
"<. c #76B7D1",
"1. c #72AECB",
"2. c #7EC3CD",
"3. c #92988B",
"4. c #AE9787",
"5. c #95A698",
"6. c #AAA996",
"7. c #B4AB93",
"8. c #89B6B8",
"9. c #99B7B8",
"0. c #8DABAE",
"q. c #A3B7BA",
"w. c #B3B7AD",
"e. c #CB9A86",
"r. c #D69A86",
"t. c #C6AA86",
"y. c #D9A687",
"u. c #DAAB96",
"i. c #CEB496",
"p. c #E8A997",
"a. c #E9B499",
"s. c #F4B89B",
"d. c #EDB08E",
"f. c #C8B9A8",
"g. c #D5B9A7",
"h. c #ECBAA6",
"j. c #F5B9A6",
"k. c #F4ACA2",
"l. c #E09B8C",
"z. c #B7C5BB",
"x. c #FEC587",
"c. c #F3C897",
"v. c #D2C9B2",
"b. c #F8C5AA",
"n. c #FCCBB4",
"m. c #F8C7B5",
"M. c #FDD3BC",
"N. c #FDD4B8",
"B. c #EBCDB3",
"V. c #CEC397",
"C. c #95AEC3",
"Z. c #83BCCD",
"A. c #88B7C8",
"S. c #9BB5CA",
"D. c #93BBCC",
"F. c #98B6C7",
"G. c #84BCD2",
"H. c #8ABCD4",
"J. c #9CBDD3",
"K. c #94BDD6",
"L. c #8EADC2",
"P. c #A7B9CA",
"I. c #B1BBCE",
"U. c #A8BDD1",
"Y. c #ADB7CB",
"T. c #88C5CB",
"R. c #97C4CB",
"E. c #85C3D4",
"W. c #8BC3D4",
"Q. c #8BCBD5",
"!. c #8AC8DA",
"~. c #94C3D4",
"^. c #9BC5D5",
"/. c #93CBD3",
"(. c #9BCAD6",
"). c #94C4DB",
"_. c #9CC4DB",
"`. c #93CBDB",
"'. c #9CCBDB",
"]. c #8CD1DA",
"[. c #9CD3DC",
"{. c #97D2D7",
"}. c #A7C6CC",
"|. c #B7C9C8",
" X c #ACC4D3",
".X c #ABCAD4",
"XX c #A3C4DB",
"oX c #A3CCDB",
"OX c #ACCCDD",
"+X c #A5C7D4",
"@X c #B3C3D4",
"#X c #B4CCDA",
"$X c #B8CAD6",
"%X c #ABD2DD",
"&X c #A5D5DB",
"*X c #B7D3DB",
"=X c #B8D3C9",
"-X c #9CCCE3",
";X c #98C8E1",
":X c #95D4E3",
">X c #9CD3E3",
",X c #9CD9E4",
"<X c #9BDBEB",
"1X c #98D7E8",
"2X c #8BD4E2",
"3X c #A3CBE3",
"4X c #ACCDE2",
"5X c #A6CBE6",
"6X c #B7CDE3",
"7X c #A4D3E4",
"8X c #ACD3E4",
"9X c #A4D9E4",
"0X c #A3D4E9",
"qX c #ACD4EA",
"wX c #A3DCEB",
"eX c #ABDBEB",
"rX c #AADAE4",
"tX c #B3D4E3",
"yX c #B3D5EA",
"uX c #B3DCEB",
"iX c #BAD7E7",
"pX c #ACDBF2",
"aX c #BCDCF2",
"sX c #B5DBF2",
"dX c #B7E3EC",
"fX c #BCE3F3",
"gX c #B9E7F6",
"hX c #A9E3F1",
"jX c #C2CDD6",
"kX c #C6D4DC",
"lX c #CED1C8",
"zX c #FDD9C3",
"xX c #EDD2C5",
"cX c #FAE4D1",
"vX c #C3D3E3",
"bX c #CCDAE3",
"nX c #C3D5EA",
"mX c #C8D9EA",
"MX c #C4DCF3",
"NX c #CDDDF4",
"BX c #CFDFF8",
"VX c #D1DDF3",
"CX c #D0DEF8",
"ZX c #CFD8E6",
"AX c #C4E7EE",
"SX c #C3E3F3",
"DX c #C3EBF5",
"FX c #CCE3F9",
"GX c #C3ECFB",
"HX c #CAE7F7",
"JX c #D2E1F6",
"KX c #D3E4FB",
"LX c #D3ECFC",
"PX c #D8E8FB",
"IX c #CFEEF8",
"UX c #FFFEF7",
/* pixels */
"|.jXjXjXkXkXkXkXkXkXjX=X.X@X$XkXkXkXvXmXmXmXmXAXiXiXiXaXaXiXmXnXaXiXtX%X8XoXoX^.oX%X4XtXiXtXiXtX*X*X%XOXOX.XoXOXOX#X4X#X4X6XiXiX",
"jXkXZXZXZXkXkXZXZXZXkXjX*X=X*XvXvXbXmXmXmXaXmXiX#X*X$X$XjXjXkXjX*XOXoX+X(._.~.R.(.oX4X8XrX%XtX8X8X%X*X%X%X%X%XtX8X6XtX6X6XyXaXnX",
"kXZXZXkXAXkXbXZXbXbXbXkX$X#X*XkXmXmXbXmXiXiXtX6X$X|.f.f.f.i.f.w.P.J.H.R.~.T.~.R.^.oXoXoX%XoXoX%XoX%X%X*X*XuXiXtXtXiXtX%XtX6X6XaX",
"ZXkXZXbX*XbXkXkXbXbXbXkX$X|.$X#XvX*X*XvX*X*X=Xw.w.6.i.t.Q ! R 4.6.6.q.9.P.P.R._.oXoX+X(.^./.(.^.+X&X%XtXtXiXtX*XtX%XOX.XoXOX6X4X",
"bXkXbXvX*X*XkXkXkXjXkXkX$X$X}.}.I.@X$X$X$Xz.i.W U C Y ] ] U K ~ ( U ! W Q w.|.R.+X+X/.~.D.T.~.T./.(.oXOX%X*XtXOXOX+XK._._.XXXXXX",
"kXkXiX*X*X*X$X*XjXjX$X$X$X$X@XP.P.P.I.|.w.W B x j k k k I ..) ) ) ) / U ! W 7.|.*X+X~.R.Z.Z.Z.Z.Z.W.~.^.oXOXoXOXOX_.K.K.K.^._.J.",
"kXkXiX*X*X%X.X=XI.|. X@X XP.}.P.9.P.w.6.V z x ^ d.x.} I m k k I I ) ..| ~ Y ( t.|.OX~.W.Z.:.Z.Z.Z.Z.W.~.).'._._.'.~.).).;XK._._.",
"*XkX*X*X.X+X}.}.}. XU. XU.}.P.F.F.9.4.u j n / ] } ..| ) I K j j K ) | ..) I I ' 7.q.R.G.:.Z.Z.G.W.E.H.H.~.K.~.'.).W.K.K.;XK.;X_.",
"$X$XOX.X+XR.}.}.}..XU.J.XXXXS.S.9.5.c x n m Z ^ / | } }  .n w 8 j  .....d.) I ~ [ 6.T.T.:.:.G.G.H.G.G.G.L.H.H.K.W.).).).).).;X_.",
"}.*X.X.X+X+X+X}.}.}.J.J.U.XXS.P.w.F c x n n n n n Z ^ ] ^ ' d.R j j ' x.|  .I I / Q 0.:.;.:.G.G.G.G.H.).H.1.G.H.G.H.H.).)._.5X_.",
"}.$X#XOX*X.X.X X+X}.4XU.K.U.J.}.7.M v x x z x x v z b S l.M.zXM.a.S z Z ~ ~ m k ~ [ 5.A.Z.Z.G.G.G.G.H.H.<.1.H.1.H.H.).).K._.5XJ.",
"|..X$X X#X.X X.X X+X4XD._._.J.I.T c z z j l l j w l v ` M.M.N.zXzXM.{ v j j j k k U 7.9.A.G.G.G.G.G.H.H.H.;.1.H.G.G.H.)._.5XXXXX",
" X@X$X$X X.X}.+X+X+XoXD._._.K.P.F z l z w t 0 6 c J e.m.n.zXzXzXb.a.j.s.B 7 8 w k Z W 6.8.%.,.:.;.;.G.:.1.<.<.1.1.H.H.K.XX5X_.XX",
"Y.@X$X.X X.X}.+X+X+XoX_._.K._.Y.F c l l 7 6 6 N _ p.m.m.M.h.R B D H ` p.s.S 8 4 8 b U Q 0.>.E.!.;.;.,.<.<.<.<.H.1.1.H.H.5X5X5XXX",
"P.I.@XU. X}.U.}.^.R.(.^.'.K.oXq.V z z 0 7 c A e.p.m.B.m.B.S A e.h.b.h.h.b.n.b 4 3 4 n [ 0.2.T.E.<.-.-.<.1.1.H.1.1.H.H.K.5X5X5X_.",
"q.I.Y.P.}.P.R.}.R.R.R.~.'._.XX9.a l l 0 c c M a H g.h.j.h.h.m.h.V 9 5 M u.N.p.0 2 4 w Y w.T.E.2.-.<.<.<.1.1.1.1.1.1.H.K.5X5X5X_.",
"Y.Y.U.I.OXP.^.R.R.R.R.T.^.(.(.q.a l t c c N J N A e.k.h.xXj.h.a > T g 9 c n.n.B - 2 8 l 6.{.Q.<.<.<.=.<.=.=.=.1.1.<.<.K.5X5X5XK.",
"Y.I.I.I.4XS.R.J.D.R.T./.(.'._.P.a t 6 A H d N F G 4.u.h.xXzXg.+ , I.UXxXQ n.N.Y N D 7 6 T =XE.2.=.=.=.<.=.=.=.-.1.,.G.H.5X-X3XK.",
"Y.I.I.I.P.C.P.+XR.^.R.~.'.'._.q.a r 5 u - O + < V E e.h.zXzX7.& & 6.cXi.g.M.M.r.' d.G 8 V z.R.2.<.=.=.<.-.=.=.=.<.<.H.).-X-X-X).",
"Y.I.jXI.C.C.S.9.F.}.+XD.(.'.(.9.a 6 2 9 ; 1 & g 7.H t.b.j.cXxXd g w.f.B.zXn.n.j.{ l.{ t b w.T.2.2.2.<.2.,.<.=.<.<.G.H.K.;X-X5XH.",
"I.$X@XI.Y.S.C.C.9.S.U.+XoX(./.9.a 9 2 a F h % 3.cX4.e.b.zXcXzXB.m.xXzXzXm.j.j.j.d.s.d.D V 6.R.Q.2X2.!.W.G.E.,.,.,.H.K.K.;X;X;XH.",
"Y.I.6XU.P.S.C.S.C.9.P.XXXX(.~.9.g 9 - M F d T g.xXg.p.h.zXzXzXM.zXzXj.k.k.k.k.k.k.j.d.D V w.R.].!.!.).).).W.).E.H.K.K._.-X-X;XH.",
"Y.I.U.U.U.S.S.S.F.F.F.}.XX+XD.F.O.5 1 M e.u.m.xXN.N.b.h.M.zXM.M.m.j.k.k.k.k.k.k.j.b.{ D V 7.T.2.`.`.~.(.(.'.'.~._.-X5X4X5XsX5X).",
"U.U.P.U.C.C.S.S.F.F.S.S.F.XX^.8.&.h 2 i e.p.k.j.B.n.b.j.n.M.M.m.j.k.k.k.k.k.p.k.b.j.Z D ! 6.F.:.W.~.(.^.^.(.oX^.^.3X5X5X5X5X5X;X",
"P.P.C.C.C.C.C.L.C.K.C.S.F.F.^.A.F.O.> 6 _ _ l.l.k.m.p.l.k.k.m.m.a._ G l.p.p.p.l.b v n C V w.A.2.!.!.~.`./.(.~.~.(.oXOX7XyXeXqX3X",
"P.C.C.C.C.C.L.L.L.S.C.S.S.J.D././.}.9 3 H H _ _ e.e._ H r.j.zXn.s.p.r.y.p.l.k.v 3 j Z B T 9.;.E.).`.>X'.~.(./.{.'.(.(.&XoX(.XX_.",
"C.S.S.C.L.C.C.C.S.C.S.J.J.D.D.:.:.8.g - J E E G H _ e.l.k.k.p.l.s.M.n.j.p.y.` 7 6 z m z 3.8.E.,.E.-X>X>X[.[.[.[.[.>X[.[.(.(.'._.",
"Y.U.S.C.L.A.S.S.J.S.S.^._.D.E.2.;.;.3.9 0 G E H E e.J J J G ' k.n.n.n.s.y.r.J 8 w z n u 5.T.E.;.).1X>X7X[.,X9X[.9X9X9X9XrX&X(.(.",
"S.J.F.L.A.K.D.S.C.J.J.D.D.W.E.2.:.A.9.g 5 0 E E _ e.G H H _ k.j.n.b.b.u.y.S 7 8 7 z z V 8.,.,.,.;X-X-X7X7X9XeXeXdXrX%X&X&X&X[.{.",
"J.U.J.D.L.A.D.F.S.J.^.D.Z.T.:.>.;.H.F.0.a 5 t e.E e.r._ _ l.s.k.b.j.a.` S 0 6 5 8 v t T 8.,.!.!.1XqX>XqX9X7X7X&XrXdXdXdXdX&X>X{.",
"K.U.).D.A.A.D.A.D.D.D.W.Z.2.:.G.W.).~.}.F r 5 0 E e._ _ _ l.k.k.d.y.R H H 6 3 4 8 y y w.(.2X-X-XpXeX-X,X<X:X:XQ.wX9XuXdXuX&X'.`.",
"3X;X-X-X;X8X3X~.(.^.D.T.Q.!.].W.).~.~.D.S.g 0 5 3 a E _ G _ _ _ R D S u.E 2 3 2 4 5 F z.R.;X-XqXpX>X-X>X1X1X].].1X9XeXuXuXeX`.W.",
"qXqXeXeXqX7X7X7X7X%X'.`.E.Q.W.`.).K.H.H.K.0.a 0 4 * 2 y H A J A A R y.b._ 4 4 2 2 6 g.6.8.].7XqXeXqX,X1X<X1X2.].<XwX8XuXgXpXqX!.",
"-XqX0X-X'.(._.(.oX[.`./.{.E.!.!.H.H.H.H.<.L.d 3 5 - * * c R G G ` l.s.b.y.w l 4 - c { i.9.-X9X0XeXwXwX:X<X1X2X2X1X<XeXeXpXeXqX:X",
"-X>X7X7X>X(.+XOXoX[.{.>XE.Q.!.W.G.;.G.;.<.0.3.E A 6 - * 4 c Q u.a.j.M.n.d.n ] n 3 m m [ z.,X0XqXwX,XwX<X<X<X2X2X].2X1XrXpXpX<X-X",
"-X>X7X7X7X'.oX%X%X'.'.~.E.!.E.:.;.;.;.<.,.K.3.e F R t 6 C v u i.v.B.xXN.b.C ] x j ) / W }.>X1XpXwX1XhXhXhX<X2X2X2.2X>X>X:XpX0X-X",
"'.eXqX>X7X3XOX8X+X/.`.W.W.,.;.:.:.E.,.G.,.W.9.d r t n n ] { e L +.9.z.lXzXV b j Z d.} t..X>X:XwX,X,X<X<X<X1X2X].].].:X0X<XpXpX5X",
"qXwX7XoX'.%X8XOX(.~.`.W.:.>.:.,.Z.:.!.E.).>X_.$X3.c U ~ Y b d O.+.*.+.+.|.T w 7 Z ^ | i.lX%X>X[.[.,X<X1X1X<X<X[.<X:X-X0XpXgXgXsX",
"eXyX8X7XoXXXOXOX(.`.W.:.>.Z.E.W.W./.~.[.eX0X'.%Xq.g ( } | j t.L +.$.%.$.*.5.d b Z ~ ( b 7.z.%X:X[.9X1X1X:X,X<X:X1X,X<XhXgXfXgXaX",
"yXuXqX5X5XoX3X^.H.~.Q.:.:.W./.oX7XeXhXdX3X'.:X7X&Xz.! / c./ N.Q +.$.%.2.%.O.L u U x.m n { w.&X>X:XwX-X:X1X:X1X2X:XwXwXgXgXgXGXGX",
"yXsXsXqX3XqX8X^.~.~.W.T.~.oX8XdXHXAXdXuX>X`.7XeX'.*X[ x x Z c.i.8.%.T.].].$.+.L u } m U ..7.=X].;X0X1X>X].:X1X1X1X<XhXgXgXDXDXDX",
"qXsXqXyX4XuXqX(.(././.8XuXDXHXIXPXPXAXdX9X`.eX7XgX9.d Y x x ' W 6.=X{.{.{.].%.+.s ! z k / V.z.R._.;X5X0X-X>X1X<X<X,XrXIXDXDXgXDX",
"qXqX4XsXtX8X%XoX}.&XdXAXAXAXAXLXLXPXAXdX[.9X9XdXO.$ + M ]  ./ b ! V.=XhX9XhXT.T.+.L m m ( Y W w.D.H.1X3X!.,X,X`.,XwXdXDXGXGXIXGX",
"5XqXyX4XuX*X%X&XdXdXtXtXiXIXPXLXIXLXDXdX9X7XfXf , ,   * 8 / c./ ( t.=XrXrX9X,X2.T.P u ( ..~ b 7.P.G.-X-X`.>X[.9XeXdXDXDXGXGXGXGX",
"4XyXyXtXaX%X%X%X%X%XiXAXIXIXDXLXIXIXdXrXrX%Xo.$ , % . O * t ~ / ..V.z.&X&XrX9X{.%.{.P u } ) ( V.|.7X7X-X3XwXqXeXdXdXAXAXIXgXIXgX",
"5XaXuXyXiX%XR.&X8XfXDXDXMXAXIXIXGXgXdXdX*Xg # o X o   9 0 H ^ Y ~ [ z.{.&XrX&X9XT.T.%.P u m ] c.v.kXyX-X-XpXsXuXAXIXAXAXgXDXgXgX",
"6XsXtXyXOXR.R.rXGXuXuXsXSXHXIXIXIXdXrX}.L d Q V =   . > a i y.} Z b Q lX=X9X9X&X{.2.].+.e b ( ) [ v.*X7X-XpXdXdXAXIXAXAXgXgXgXgX",
"yXyX8XyXuX^.7XfX7XoX8XgXHXGXIXDXDXrXrXp : q e Q t.9 . 1 1 * - ! x.] ! 7.=X=X&X&XrXT.2.T.P r Y ..( t.jXqX7X8XgXdXIXIXIXDXgXgXgXhX",
"6XyX4X4X6XXXA.H.D.7XpXgXGXGXLXGXeX&X8Xp f o.p e Q V.< o + + . * b x.Y W v.=XjX*X=X{.$.{.5.L m U ] a.|.tXOXeXfXGXFXHXMXAXSXfXgXhX",
"3XyX4XOX5XS.D.K.-XgXgXgXgXgXgXuX7X'.9X#.#.&.#.f e 6.7.= . # o + y U | ] d d L O.5.=XT.%.8.L Q k m c.v.$XiXfXfXSXSXaXSXSXfXuXgXeX",
"XX4X6X6X4XJ.XXXXqXgXgXgXgXgXgXwX,X0XwX$.#.%.>.8.P s V.W O   o . 5 ' { d.! a 9 < , s L 5.8.L W j ~ { f.lXbXSXSXSXSXMXfXgXsXsXgXuX",
"@X4X6X6X@X#XiXMXMXHXGXgXhXhXwX:X>X<XQ.@.$.>.T.T.R.P L V.d   > + . 6 } ] r + . O # @ : s L L W 5 4 { t.f.PXFXHXHXSXSXaXfXsXsXfXyX",
"U.OXI.nX6XnXCXKXLXLXHXuXrX9X:X-X[.wX$.@.%.%.R.{.R.z.P u W > . o X . w y.* O +   X X X # e y Y 5 O r t.t.kXFXLXHXaXaXaXaXaXsXaXyX",
"U.U.6XvXnXCXPXPXPXPXHXfXqX9X'.,X9X,X@.@.%.T./.{.{.{.9.s u u . X   . * i.d . . + # X   . # V ! 5 . * U y.w.LXHXFXaXaXaXMXaXaXMXyX",
"I.@X6XnXNXCXPXPXPXPXNXHXyXqX7X7X9X{.*.*.%.T./.{.{.{.{.O.e u : X   . + F F O O * 1 O   X   r Q 5   # w [ lXLXIXFXaXaXyXMXaXMXMXaX",
"@X#XnXVXCXPXPXPXJXCXmX6XtX6X4XqXrXT.o.$.8.T./.R.&X{./.9.e e > @ .   . V W O ; i i 1 , , @ X Y 5   + t [ lXZXAXMXsXMXaXMXMXMXMXnX",
"I.vXNXNXKXPXPXFXNXmXvXnX6X6X6X6XaXL.o.$.>.E.T.{.{.{.T.R.s h < . .   . f.B.= * a a 1 % @ $   9 > . # b y.B.lXbXMXBXMXMXNXNXNXCXNX",
"I.vXmXVXKXFXFXMXnXnXnXnXvXvX6XaXaX8.o.#.%.T././.{./.{.R.s e 9   . . > B.B.V + & ;   & X $   o + o % r ' { B.bXMXMXMXMXCXVXCXPXCX",
"6XZXNXVXKXFXSXiXyX6XnXnXvXnXvXnXFX8.o.&.2.T././.{.{.{./.s e >   . . 0 c.y.V ; % @ : , : & %     % % - M Y i.ZXmXMXMXBXCXNXJXKXKX",
"vXNXNXCXBXSXSXyXaXiXnXnXnXnXnXnXFX&.@.$.T.T.T.{.{.T.{.8.q < .   X . y y.U r   @ @ @ : , , o   X $ X . e C t.ZXFXMXMXMXCXVXVXKXCX",
"ZXVXVXVXCXFXMXaXMXMXNXNXNXNXnXVXDX&.*.$.%.T.T.{.{.T.{.P % #   o   . y ' C 5 . o & & o   @ : X X , ,   F E 4.VXNXBXNXNXFXNXmXJXJX",
"nXVXPXVXJXJXNXMXNXBXBXCXCXCXVXCXdX*.*.$.%.T.R.T.T.T.{.o.    o   o   y R b - . o & $ & $ : $ X $ : X X q.f.7.JXJXBXNXNXJXJXmXJXmX",
"vXVXVXVXVXCXVXCXBXCXVXCXNXCXVXKX&Xo.*.$.%.T.T.{.T.2.Q.O.  & &     . y ' y * .       o X X : @ : @   & kXkXjXJXNXNXBXCXCXJXJXJXNX",
"jXZXZXVXVXVXNXnXNXVXNXBXNXBXVXFXT.o.#.$.%.T.T.T.T.2.T.&.$         . t ' r O           X @ @ : @ $ @ % vXPXHXJXNXBXFXCXNXJXNXVXNX"
};
