/* XPM */
static char *_643382768469[] = {
/* columns rows colors chars-per-pixel */
"64 64 256 2 ",
"   c #0E070B",
".  c #362F34",
"X  c #241B20",
"o  c #5A2D33",
"O  c #624E3D",
"+  c #725650",
"@  c #767170",
"#  c #615E59",
"$  c #2C5560",
"%  c #887767",
"&  c #93736E",
"*  c #AD7275",
"=  c #8A635B",
"-  c #978977",
";  c #98907A",
":  c #A6887C",
">  c #A2967E",
",  c #0E7684",
"<  c #337A84",
"1  c #C27982",
"2  c #0797A8",
"3  c #1B9CA9",
"4  c #0E9FB2",
"5  c #3099A3",
"6  c #0AA6B5",
"7  c #17A6B6",
"8  c #31A7B6",
"9  c #268794",
"0  c #6E9AB3",
"q  c #67AABF",
"w  c #78A9B9",
"e  c #6CB1BE",
"r  c #53A1A9",
"t  c #18B4C7",
"y  c #36B9D9",
"u  c #2DB8CE",
"i  c #3ABBE1",
"p  c #5B9ACA",
"a  c #53B7CD",
"s  c #68AAC8",
"d  c #77ACC8",
"f  c #69B5C7",
"g  c #7BB4CC",
"h  c #78B8CA",
"j  c #69A8D4",
"k  c #73ACD4",
"l  c #79B6D5",
"z  c #6AB4D5",
"x  c #79BAE4",
"c  c #5AA6CF",
"v  c #36C1CE",
"b  c #38C4D4",
"n  c #28C4D3",
"m  c #39CAE8",
"M  c #46C7D7",
"N  c #4ECAD9",
"B  c #7BC6CD",
"V  c #7DC6D3",
"C  c #69C4D6",
"Z  c #56D7E6",
"A  c #50CDE8",
"S  c #70D0E9",
"D  c #6DE6F7",
"F  c #98928C",
"G  c #A88884",
"H  c #B68B87",
"J  c #A69886",
"K  c #B5968C",
"L  c #A89998",
"P  c #B99A94",
"I  c #B68D91",
"U  c #9AA797",
"Y  c #ABA693",
"T  c #B7A998",
"R  c #B4AB95",
"E  c #909CA6",
"W  c #89AABB",
"Q  c #96ACBB",
"!  c #92B1B2",
"~  c #BCB7A6",
"^  c #B1AEAF",
"/  c #B09EA5",
"(  c #C99995",
")  c #CF9795",
"_  c #C6A59C",
"`  c #C3B69D",
"'  c #CBA9A5",
"]  c #D6AAA7",
"[  c #C7B9A9",
"{  c #D7B5AB",
"}  c #C5BAB6",
"|  c #D9BBB3",
" . c #E4BAB5",
".. c #ECB5B3",
"X. c #B1C2BA",
"o. c #98C3BA",
"O. c #C8C2AD",
"+. c #CCC7B5",
"@. c #D4CEBC",
"#. c #D7C6B6",
"$. c #D7D1BC",
"%. c #E8C4BC",
"&. c #F0C5BE",
"*. c #87B8CA",
"=. c #9BBCCB",
"-. c #95B8C8",
";. c #85BCD2",
":. c #8CBDD3",
">. c #84B9D8",
",. c #97BDD4",
"<. c #8CAEC4",
"1. c #A6BBCA",
"2. c #A3BDD2",
"3. c #AABFD5",
"4. c #B6BEC9",
"5. c #84BFE0",
"6. c #DABEC1",
"7. c #99C3CD",
"8. c #8CC3D4",
"9. c #87C8D7",
"0. c #94C2D5",
"q. c #9AC3D5",
"w. c #9BCAD5",
"e. c #94C3DB",
"r. c #9CC3DB",
"t. c #93CBDC",
"y. c #9CCBDB",
"u. c #94CFD3",
"i. c #8BD2DE",
"p. c #85D2DC",
"a. c #98D3DC",
"s. c #8CC7C9",
"d. c #A9C5CC",
"f. c #A3C4D4",
"g. c #ABC3D4",
"h. c #A3CBD5",
"j. c #ABCAD5",
"k. c #A4C5DA",
"l. c #A4CBDC",
"z. c #ACCCDC",
"x. c #ABC6DB",
"c. c #B3CBD5",
"v. c #B3CCDB",
"b. c #B6C8D7",
"n. c #A3D3DC",
"m. c #ACD2DC",
"M. c #A7D6D9",
"N. c #B2D2DD",
"B. c #BCD2DC",
"V. c #B9D5D7",
"C. c #B7C9C9",
"Z. c #8BC9E5",
"A. c #9CCCE3",
"S. c #96C8E6",
"D. c #8BD6E4",
"F. c #95D4E3",
"G. c #9CD4E3",
"H. c #9DD9E5",
"J. c #9DDAEA",
"K. c #96D5EC",
"L. c #97D9F4",
"P. c #87D5F2",
"I. c #ABCCE2",
"U. c #A4CAE4",
"Y. c #B3CDE2",
"T. c #BBCEE3",
"R. c #A4D3E3",
"E. c #ABD3E4",
"W. c #A3DAE5",
"Q. c #ABDBE5",
"!. c #A3DBEC",
"~. c #ACDAEC",
"^. c #A9D5EB",
"/. c #B3D4E3",
"(. c #BCD4E4",
"). c #B4DAE4",
"_. c #B2D5EB",
"`. c #BBD5EB",
"'. c #B4DBEC",
"]. c #BCDBEC",
"[. c #BCD9E4",
"{. c #ABDAF1",
"}. c #BBDDF1",
"|. c #B4DBF2",
" X c #97E2ED",
".X c #ABE1EA",
"XX c #B8E2EC",
"oX c #A7E5F3",
"OX c #B4E4F4",
"+X c #BCE3F4",
"@X c #BBE9F7",
"#X c #B8F6F5",
"$X c #BBE4DB",
"%X c #C6CAC8",
"&X c #DCD4C3",
"*X c #D8D6C8",
"=X c #C4D4DD",
"-X c #CAD7DA",
";X c #D5D9D6",
":X c #CDCECB",
">X c #EBC9C4",
",X c #F5CAC6",
"<X c #E3DDCB",
"1X c #E8D7C9",
"2X c #F4D4CD",
"3X c #E5D9D7",
"4X c #FADAD5",
"5X c #EDCDD0",
"6X c #D8E3DB",
"7X c #CEE1D6",
"8X c #EBE2CE",
"9X c #EBE4D4",
"0X c #E9E7D9",
"qX c #FEE2DC",
"wX c #F4ECDB",
"eX c #F6E6D8",
"rX c #F7F1DE",
"tX c #C1CEE4",
"yX c #C3D4E4",
"uX c #C4DAE2",
"iX c #CBDBE4",
"pX c #C4DAEA",
"aX c #CADCEC",
"sX c #C8D6E7",
"dX c #D5DBE8",
"fX c #C3DCF3",
"gX c #CCDDF4",
"hX c #CADCF5",
"jX c #D1DEF5",
"kX c #C6E4EC",
"lX c #D6E6E9",
"zX c #C4E3F3",
"xX c #CDE3F4",
"cX c #C4ECF4",
"vX c #C4EBFA",
"bX c #CCECFA",
"nX c #CAE8F7",
"mX c #D2E3F5",
"MX c #D3E4FA",
"NX c #D3EBFE",
"BX c #DBEDFB",
"VX c #DAEBF5",
"CX c #CAF3FC",
"ZX c #D4F3FE",
"AX c #DBF4FE",
"SX c #D9F9FD",
"DX c #E8EBE7",
"FX c #FEE4E1",
"GX c #F8ECE5",
"HX c #FAF5E8",
"JX c #E6ECF6",
"KX c #E4F3FC",
"LX c #E6F8FC",
"PX c #F9F9F7",
"IX c #F4F0EF",
"UX c #E5DFE1",
/* pixels */
"C.C.%XtX=X-X=X=X-XyXb.C.c.C.c.B.yXyXsXpXsXaXaXpX]./.pX`.fX`.pXpXB.B.B.v.g.g.d.d.d.j././.'.(.[./././.z.j.j.h.l.I.z.z.z.z.v.T.`.`.",
"tX=XiXdXkX=X=XiXiXiX=X=Xc.c.B.=XiXsXaXpXpXyXpX(././.Y._./.T.B.=XkXlXlXlXlXVXVXlX7X=XV.j.m./.E././.m.N.m.N.m././.I././.Y.Y.T.fXfX",
"-XdXdXiXiX=X-XkXdXiXuXuXc.B.B.yXsXsXpXpXkX[./.I.l.x.I.v.b.b.lXPXPXPXPXPXPXPXPXPXPXLXDXc.j.h.M.m.m.m.m.N.N.N././././.(./.Y.`.`.`.",
"sX-XiXuXB.=XkXuXuXsXuXuXuX(.v.B.(.(.(.[././.I.z.k.k.k.g.C.DXPXHXwXHXHX0XDXDXHXHXrXGXIXJX=X7.w.y.l.m.M.N.).).B.N.N.V.m.z.U.U.Y.Y.",
"-XsXuXyXV.B.B.uXuXuX=XyX(.v.g.g.g.v.N.v.z.z.l.k.x.f.q.g.lXPXHX8X<X~ Y @.0XHXHXHX0X*X+.;X-Xd.7.s.w.w.n.M.m././.m.z.f.f.r.r.A.U.f.",
"sXyX[.N.N.).N.B.B.v.b.(.B./.z.j.1.g.c.z.z.k.k.r.k.x.f.=XPXrX$.$.R - +.8X9X*X<X9XrXPXHX0X7X7Xd.*.-.8.7.w.h.h.m.l.h.q.q.r.,.e.r.,.",
"=X[.).).).).m.N.c.j.b.v.v.z.j.h.-.=.=.f.f.x.x.U.U.2.b.DXHX&X@.X.F O.$.O.~ @.*X*X+.*XHXPXIXDXlXC.-.*.0.0.q.r.l.l.A.e.,.S.S.e.,.,.",
"B.yX).Q.Q.m.N.j.j.v.f.v.v.g.7.=.-.<.=.2.l.z.l.z.k.2.b.IXrX@.@.Y ; O.R Y @.9XGXHXGX8X*X8XHXPX0X6X7.7.-.8.0.e.0.t.S.8.,.S.,.,.,.U.",
"c.N.).m.l.h.M.N.j.j.z.z.x.f.2.,.-.*.-.2.I.Y.z.l.w.d.*XrX8X$.+.R > R U O.<XHXHXHXDXHXHX*XO.<X8X@.6Xj.7.-.:.;.8.0.:.e.e.e.S.,.U.r.",
"g.c.z.m.m.M.j.m.h.h.l.I.x.x.2.,.7.-.*.=.x.z.l.h.d.o.*X$.<XO.$.~ > R Y ~ &X<XGXHXHXHXDX0X+.[ @.@.*XDXN.q.*.g *.;.:.8.e.e.e.r.U.r.",
"g.c.N.j.m.m.j.z./.j.E.z.r.2.,.k.0.*.-.=.q.l.E.h.d.X.Y > $.$.+.` ; > Y @.@.+.<XGX0XHXHXHX8X*X$.@.O.*XlX7.*.h g ;.;.:.e.e.r.r.S.r.",
"C.C.c.c.m.c.j.N.].m.|.q.,.U.,.,.r.,.,.,.k.R.^.m.X.U @ - > #.$.$.> - ~ &XGX[ J +.9X0X0XHXHX0XHXwX8X*XV.=.*.h h g ;.;.:.,.r.U.U.r.",
"g.g.b.j.j.c.j.z.`.XX].,.U.S.,.,.y.q.k.l.a.M.a.M.X.> - % + - O.&XY % - [ eX1X1X[ R $.wX9X*X*X$.1X*XX.X.o.*.g h h >.<.<.,.r.U.3.U.",
"1.b.c.c.j.g.j.f.m.].E.y.r.,.r.r.,.~.vXn.y.a.a.u.U > ; % + O @ R - % K #.1XqXqXGX1XJ Y &X3X<X$.[ R X.6X! w e d l k >.>.>.3.U.U.r.",
"1.b.g.v.N.d.q.j.E.).h.w.R.k.A.,.0.|.CXl.a.t.D.s.U ; % O O % % - > ( #.&.2X4XFXqXFX4XT % - J J J Y 8XHX-X1.*.d k <.k >.,.U.U.U.3.",
"3.v.1.1.j.7.h.'.cXE.n.R.vXE.U.,.q.l.R.t.a.i.B B o.; % % : K K ( ` %.%.>X5X1XqXFXFXFXqX| - % - Y O.+.*XDXaX,.d j <.k >.S.U.U.U.r.",
"3.I.2.b.f.2.m.E.CXvX).OXXXE.h.r.r.R.t.a.9.p.p.9.s.! U > T K P ` | %.>X5X5X5X4XFXFXFXqXqX2XK Y R R O.+.*XlXf.e k h d g e.U.^.U.,.",
"Y.x.I.Y.z.2.l.m.zXCX).vXCXE.~.R.R.q.8.V B p.D.i.B o.Y Y ( K ( ' |  ...,X2X4X4X&.|  .5X4XqX4X` ` F J [ :X7X-.d d d l >.8.U.I.U.e.",
"b.v.x.x.f.f.f.j.CXkXbXCXXX.XE.w.0.u.B B V D.V V B s.U > T ( _ [ { ..&.>X>X_ I G ' ] I ' 4XqX%.#.: + % ; 7X*.s z k *.l 8.A.A.A.,.",
"g.b.v.x.x.m._.).kXZXLXSXcX@XvXy.g ;.h h B V V D.B u.U J * % : K ' { %.] = = G I = .   o 2XqX2X#.] & & F kXW w h l l ;.e.A.A.A.:.",
"3.b.b.x.x.z.zXnXnXSXLXLXnXCXXX8.B h e B B B p.V p.Q.U ; @ + + + G ' { { ( G + o     @ # 1XFX4X&.{ %.%.Y %X7.h h >.>.>.e.e.A.S.>.",
"1.b.x.3.,.].ZXzXbXAXLXSXkXE.q.*.s.B a e B B p.S i.a.U F & = + % G H {  . .& . .     @ ^ qXqX4X,X&.&.2X[ 7Xs.s.8.>.5.,.e.A.S.S.>.",
"3.yXY.2.2.3.j.].XXbXbXkXzX/.q.s.B q a e B B s.B p.a.y.E . X X X + G P %.&.I & 4.. X & FXqX2X,X&.2X4X&.~ 6Xc.7.0.,.r.r.U.U.U.S.e.",
"3.v.3.2.1.=.f.m.zXbXzXzXnX'.y.8.B q e e B p.B p.D. Xa.:.. o @     % K %.2X5X^ ^ E } FX4X,X&.&.%.qXrXO.~ :X-Xd.0.r.y.U.^.U.|.^.,.",
"2.,.1.1.<.-.f.j.XXvX'.z.`.l.y.9.B C e B V p. X XoXi.p.M.2.@ E X   + / >XqXFX4X5X4X4X,X,X......] T ` [ $.X.;X7.w.q.n.n.E._._.^.k.",
"2.2.Q W =.Q =.=._.CXz.,.,.q.R.t.V D.D.D. XD.S i.p.s.B u.U.# $ # # = P ,XFXqX4X4X,X&.&.........: - ` #.$.O.;X7.w.y.y.l.m.E.m.I.r.",
"3.2.2.<.2.7.W -.m.zX/.k.E._.0.t.9.D.V B f s l V h l V 8.2.E / / { { ] ,X4X4X,X,X......) ) ) ] : ` ` $.8X+.6Xj.w.y.y.w.a.h.w.l.r.",
"<.3.Q <.-.-.2.j./.XX'.l.z.q.8.9.h e d f s s z k l l l 9.-.E /  . . .] ,X4X4X,X] ) ) ) ( ) ) : : ` R O.&X&X;XN.n.R.R.n.n.n.a.y.y.",
"3.2.<.<.-.3.z./.Y.].z.z.r.0.8.V h h g f k l k j l l 5.5.e.-.G I ] ) 1 .... .,X] * H ( ( H : = > ` > ` #.*X6X$XQ.Q.M.n.M.a.M.a.w.",
"2.2.,.-.k.I.=.z.nXNX].f.*.8.9.h h ;.g l d k k j p j k x e.T./ * I 1 1 * ( ,X,X] ] ] ( H : - ; ` #.- ; O.7XDXM.Q.Q..X.X.X).M.a.a.",
",.r.,.-.,.r.,.'.NXNX+X0.*.B h h s.8.8.8.;.>.k p p j p p p S.T.E - * * * 1 * * &.4X{ ) : : ] $.&.8X8XO.$.rXIXM.u..X.XXXXX).m.y.a.",
",.r.r.,.,.I.h.f./.`./.0.9.B B 9.8.0.0.:.;.g k k j p j j j >.r.Y.E F * = o = ) ,X..{ ( : #.{ O.wXwXHXrX9XwXDXM.u.H.R.'.XX'.E.y.t.",
"l.l.R.R.^.zX}.E.kX].).u.9.9.9.8.8.0.,.:.:.>.g l j c j j 5.j j e.Y.1.L - & H ]  .] I H #.>X[ T rXHXHXHX8X$.6XM.u.H.W.Q.'.|.{.R.8.",
"R.~.Q.~.E.E.}.+X[.(.m.w.u.9.8.t.0.;.e.:.>.l d k j j j x j k k x 5.U.Q F J I T ( G K %.>X1X>X&X8XHXHXHX8X+.lXu.9.!.~.~..XOX{.^.t.",
"y.H.!.y.y.l.Y.pX[.uXc.d.a.V 9.t.8.;.:.;.l k >.k z x k x 5.x l >.k h ;.w E E G : K %.>X%.4XwX<X&XrXPXHXrX6X7Xu.p.D.F.R.'.~.{.^.S.",
"A.G.A.R.j.B.=XsXuX=XSXc.*.9.9.8.;.h g g l ;.k 5.x z j x x >.5.Z.S.9.9.h e E L P ' %.#.1XwX9X8X@.9XHXrXwX6X[.u.p.D.i.y.^.^.~.^.F.",
"S.^.I.lXUX%XUXdXB.1.:XLXd.*.;.h h ;.l h l ;.;.9.S.k l Z.Z.Z.Z.S.K.Z.9.B s.! L _ %.| &XeXwX0X[ O.0XrXwXrXuXM.a.D.p.i.F.K.G.{.^.A.",
"A.'.I.C.UX} / UX=Xd.^ :XLXb.W h h h ;.;.>.>.Z.8.5.x S.P.Z.D.Z.Z.K.8.9.9.*.! T ' | ' 1XwX0X9XY O.9XwX9X6XkXa.F.D.i.i.F.J.J.{.{.^.",
"^.{.R.f.1.:X/ / 3X%XC.Q :XPXdX2.-.8.8.8.S.^.S.S.S.S.L.K.K.Z.Z.K.K.Z.G.y.s.! ^ { #.| 1XrX&X&XR O.9XrX8X*XXXH.J.H.R.a.F.K.{.OX@X|.",
"^.^.R.E.3.4.} F } PXJX;X6.UXPXJXf.w.y.a.{.^.U.S.S.S.L.P.Z.D.F.^.E.f.B.c.! ^ [ #.eX#.#.&X<XwXeX<X$.$.$.7XM.a.J.a.H.H.K.{.@XOXvX@X",
"_.'.^.E.R.z.c.^ F } IXPXPXFXIXPXVXB.[.XXa.t.H.J.K.J.L.P.D.K.R.v.^ ^ ^ L T | #.wX9X1XR ` 8XwXHXrX8XR Y C.a.H.F.F.J.J.~.OX@X@XcXcX",
"_.}.|.^.U./.E.k.d.L ^ FXIXPXIXIXPXVXkX.XG.a.H.^.^.K.!.L.i.G.d.E F L K ' %.%.#.FX3XeX> > #.rXrXwX<X+.X.d.w.a.K.F.J.!.OX+XcX@XvXcX",
"E.|.^._.I.'.E.h.d.d.! ^ 6.GXIXPXPXPXfXOXW.t.!.J.J. XK.J.G.f.F I _ ]  .>X&.{ | rXrXHX&XO.O.#.#.#.| <XDX=Xw.W.H.F.K.W..XCXcXcXvXbX",
"I._._.|.^./.M.h.h.M.kX%X/ / 5XFXHXPXnX_.R.W.J.J.oX X X!.n.! L ] ] &.&.>X&.{ O.<XGXHXrX9X1XT P } 2XGXIXLXN.n.G.a.H.!.XXcXcXCXvXvX",
"U._.^.E.}.`.m.h..XXXN.=X=X^ L #.3XGXVXXXE.W.H.H. X XoX!.-.-./ | &.,X,X&.>X| +.*XGXrXeX<X1X#.>XFXGXFXIXIXAXN.l.R..X$XcXlXnXcXCX@X",
"I._._.|.`./.h.).).m.).XXnXVX%X/ } JXAX).Q.n.W.a.F.J.J.a.-.E } >X,X,X,X,X>X#.~ +.wXeX1X+.O.%.4XqXIXIXPXPXPXAXm..X.XXXcXcXcXcXvXcX",
"I.`._._.XXM.w.w.j.zXnXzXkXpXAXdX<.T.AXXXQ.H.H.K.J..X!.q.<.^ 6.5X5X5X5X>X%.R 8X@.O.` Y T :X3XUXUXJXJXJXJXKXKXXX'.XXCXCXkX@X@X@XOX",
"z.|.'._.R.7.0.M.vX].XXXX+XnXnXbX<.k.AXXXR..XJ.!.R..XQ.k.<.3.;X3X3X3X5X%X<X$.9XrXwX$.[ :X;X;XdXdXdXJXJXJXJXKXxX[.bXCXkXcX@X@X#XOX",
"_.|.T._._.q.R.OX~.y.^.|.vXbXbXbX-.0.NXCXR.G.t.H.R..XM.a.g w.uXuXXXm.f.E DX0XwXHX9X%X;X-X-X=XiXyXdXjXJXJXJXJXMXzXMXbXzXnXXX@X@XoX",
"_.E.Y.I.I.l.-.:.:.^.{.@X@XvXCXbX:.<.vXSXQ.W.H.H..XR.R.s q B oXOX9.B q r C.DX<X&X%X%XlXsXB.3.3.b.aXdXBXJXLXJXKXMXnXkXkXkXcXOXOX.X",
"I._.Y.I.Y.-.-.,.l.|.OX@X@X@XvX@X;.d }.ZX@XR.R.^.~..XC 8 N a C C a a C r M.%XC.! c.xXgXaXv.-.W Q g.B.sXmXBXVXAXmXkXkX}.kX+X'.@X{.",
"k.U.Y.T.x.=.r.r.Q.+X@X@X@X@XOX!.>.w {.SXCXE.R.^.!.t.8 N Z 8 u N N S a B 7XC.X.d.M.OX|.}.^.<.0 E Q B.yXlXVXVXBXMXzXkX+X+X}.|.vX{.",
"k.x.Y.T.3.3._.}.}.vXvX@XOX.X.XH.Z.0 E.ZXSX)._.J.D.a N v Z 8 8 Z D D.B XXLX7XV.#Xt.oX XC L.;.W W Q 1.(.aXmXBXBXmX}.vX+X+X'.}.}._.",
"2.x.T.T.`.tXhXMXMXnXnXzX~.!.a.F.S.0 q.vXLXcXE.!.C a Z b v 4 n Z D C W LXHXHXcXa.D.P.S C c C h W -.1.b.aXVXVXBXNXfX+X}.}.}.|.}.|.",
"2.g.b.T.sXjXjXMXMXBXbX}.E.R.G.G.y.w e.vXSXSX_.!.z M N N b v Z Z M a o.LXwXLX@Xe P.D A A z z V s 0 3.tXsXlXAXKXZX}.}.}.}.}.`.fX|.",
"3.b.T.sXhXjXNXBXNXMXxXzX'.I.R.R.Q.*.:.{.ZXLXkXA.S S Z Z v M Z Z Z 8 o.<X9XHX.Xa a i y a A C S Z.<.W Y.mXmXVXVXVX].zX`.}.}.fXfX`.",
"4.3.tXsXjXNXBXNXBXjXpXpXY.Y.E.E._.,.d ^.nXAXZXR.B S v N v b Z D b 5 U $.$.7XM.N M A t i i A x S l <.2.`.mXKXBXAXxX}.}.fXhXhXfX`.",
"b.tXhXjXMXMXMXNXgXaXpXtXY.Y.Y.T.fX,.d U.zXZXAXvXe 8 v v b N N v v 5 w 7X` 7Xs.N b y y m y y S x g <.=.Y.kXBXKXKXBXfXfXhXhXhXhXhX",
"tXtXhXjXMXNXbXfXpXsXtXsXtXT.Y.fXhXr.d ,.+XNXSXSXB , 3 7 b b v v n 3 r $.$.7Xr b m y i i i i j S Z.*.-.Y.pXxXVXKXAXpXfXjXjXjXjXjX",
"tXsXhXjXMXMXxX`.`.(.tXtXtX`.T.tXhXI.w >.|.bXAXAXM.< , 3 7 6 n 6 t 3 < 7X7X7Xv n u y y i i A S S Z.8.,.f.(.xXVXVXKXgXaXhXhXjXMXMX",
"tXsXjXjXhXxXfX_.`.T.tXsXsXtXtXgXgX`.d d U.bXZXAXlXs., 2 t 6 n 7 2 3 , ! 6X$X8 n y i y y i A S P.L.Z.<.f.Y.zXVXBXKXmXfXmXjXMXMXMX",
"tXjXjXjXmXhXzX}.fXfXaXhXfXaXaXaXhXfX<.s e.@XCXZXlXW.5 3 b t t 7 2 2 , 9 SXo.3 t 4 u u y i A S P.L.K.*.-.I.XXmXBXBXVXgXhXhXhXMXgX",
"sXjXjXdXMXMXnXfXhXhXhXjXjXgXgXjXjXMX*.p >.|.nXZXfXE.q 9 n 6 t t 6 2 2 9 #Xs.3 t t y i i S S S L.L.L.>.-.r.`.xXmXBXKXgXMXjXgXgXjX",
"sXdXjXjXjXMXhXhXhXhXjXjXxXgXjXjXjXNX:.0 >.{.nXbX`.U.h 9 n 6 6 6 t 2 2 9 #Xs.7 n y t A A A A S P.P.L.:.:.:.E.xXmXBXBXMXhXjXjXjXaX"
};
