/* XPM */
static char *_643457974777[] = {
/* columns rows colors chars-per-pixel */
"64 64 256 2 ",
"   c #1E1116",
".  c #573130",
"X  c #595857",
"o  c #524D4A",
"O  c #645B5A",
"+  c #604A4D",
"@  c #68625C",
"#  c #74665D",
"$  c #5A5C65",
"%  c #645E61",
"&  c #5A646B",
"*  c #6C6966",
"=  c #696767",
"-  c #746D6C",
";  c #746A65",
":  c #75726C",
">  c #7A746D",
",  c #7B7569",
"<  c #747373",
"1  c #7B7472",
"2  c #7C7A75",
"3  c #7D7B7B",
"4  c #797879",
"5  c #6D6E74",
"6  c #16216C",
"7  c #AF190D",
"8  c #B63807",
"9  c #AF3211",
"0  c #9B302C",
"q  c #AF362F",
"w  c #9E220A",
"e  c #CC320A",
"r  c #DB3A33",
"t  c #B64C16",
"y  c #B94839",
"u  c #B04E30",
"i  c #B66435",
"p  c #A35B19",
"a  c #C74505",
"s  c #C85514",
"d  c #D2500F",
"f  c #E65810",
"g  c #D46B0F",
"h  c #ED6F15",
"j  c #C75330",
"k  c #CF7030",
"l  c #EB7027",
"z  c #E9582B",
"x  c #A13D48",
"c  c #99504D",
"v  c #B95958",
"b  c #B1524B",
"n  c #B36E51",
"m  c #B25A6F",
"M  c #83786E",
"N  c #837D7B",
"B  c #847B75",
"V  c #956F6C",
"C  c #B86767",
"Z  c #B27370",
"A  c #98645B",
"S  c #C55450",
"D  c #C86B50",
"F  c #C97B71",
"G  c #FF7C4B",
"H  c #C13943",
"J  c #7F807C",
"K  c #D48D0F",
"L  c #EE9211",
"P  c #F2B115",
"I  c #ED8E2F",
"U  c #FAB828",
"Y  c #F5AD30",
"T  c #D3993A",
"R  c #FCCC15",
"E  c #FBC828",
"W  c #FCC935",
"Q  c #FFD536",
"!  c #FBD22C",
"~  c #FFE633",
"^  c #84827C",
"/  c #8B847C",
"(  c #8A8478",
")  c #94897B",
"_  c #968C75",
"`  c #B58578",
"'  c #AE8D72",
"]  c #F2954A",
"[  c #FCAA46",
"{  c #F3B14D",
"}  c #CC9071",
"|  c #F4B368",
" . c #D79E62",
".. c #FCC846",
"X. c #FBD34F",
"o. c #FFE451",
"O. c #FFD26E",
"+. c #FEE86D",
"@. c #0C31B2",
"#. c #0F2D9A",
"$. c #104EB4",
"%. c #2D53B2",
"&. c #366BB5",
"*. c #255699",
"=. c #576A8C",
"-. c #787983",
";. c #6E7692",
":. c #4D71B3",
">. c #6C75AF",
",. c #495BAC",
"<. c #0F30C3",
"1. c #064AC7",
"2. c #1957C8",
"3. c #0C55D1",
"4. c #2D57CB",
"5. c #1567D2",
"6. c #386AC7",
"7. c #2C6DCE",
"8. c #176FE7",
"9. c #256EEF",
"0. c #155DE4",
"q. c #486BC7",
"w. c #4876C6",
"e. c #4F74D1",
"r. c #6E7CCA",
"t. c #6778E4",
"y. c #8E7A88",
"u. c #AB7989",
"i. c #9872A3",
"p. c #79868E",
"a. c #5B84B5",
"s. c #708CB1",
"d. c #2888F0",
"f. c #38A9F8",
"g. c #278EDA",
"h. c #5488CF",
"j. c #6687C8",
"k. c #7795C8",
"l. c #6788D7",
"z. c #7799D6",
"x. c #6B96CD",
"c. c #76A6D2",
"v. c #7092E3",
"b. c #48B8FC",
"n. c #78AAEC",
"m. c #5392EA",
"M. c #4DC9FF",
"N. c #8B8583",
"B. c #8D8A83",
"V. c #888687",
"C. c #948C83",
"Z. c #958B88",
"A. c #9B948C",
"S. c #989387",
"D. c #9B9493",
"F. c #999898",
"G. c #8B8F96",
"H. c #A49A8B",
"J. c #A49688",
"K. c #B3988A",
"L. c #A39D94",
"P. c #A59B97",
"I. c #B58E93",
"U. c #9EA39D",
"Y. c #ABA394",
"T. c #AAA499",
"R. c #B5A99A",
"E. c #B0A692",
"W. c #8F94B0",
"Q. c #B29AA9",
"!. c #9AA9B0",
"~. c #A9A7A6",
"^. c #B5AAA6",
"/. c #B9B3A9",
"(. c #A7A9B3",
"). c #B8A8B5",
"_. c #BAB7B6",
"`. c #A8B3B7",
"'. c #C78F90",
"]. c #CDAB92",
"[. c #C29BA7",
"{. c #C5B9AB",
"}. c #C4BBB4",
"|. c #C6B8B8",
" X c #C9A9B1",
".X c #E9B2A2",
"XX c #FFEF96",
"oX c #CBC4BB",
"OX c #CAC4B7",
"+X c #D3CBBC",
"@X c #D3C9B9",
"#X c #D3C9B5",
"$X c #FFF1A7",
"%X c #EDC7A3",
"&X c #8995CA",
"*X c #8AB8C9",
"=X c #96BAC7",
"-X c #88BAD6",
";X c #96BCDA",
":X c #90A8D0",
">X c #B8BAC7",
",X c #ACB2CD",
"<X c #97BAE8",
"1X c #8DB1EE",
"2X c #ABB9E7",
"3X c #9998E1",
"4X c #C8B8C5",
"5X c #D5BFC7",
"6X c #9BC3DB",
"7X c #97C4D8",
"8X c #93C1D2",
"9X c #A9C6CC",
"0X c #B8C4CA",
"qX c #A7CAD9",
"wX c #B7CAD5",
"eX c #ACD2DD",
"rX c #B7D1DB",
"tX c #9BC7E4",
"yX c #9CCEF2",
"uX c #A5C9E6",
"iX c #B7C9E6",
"pX c #A8D4E6",
"aX c #B5D4E3",
"sX c #B9D7E8",
"dX c #A8CBF8",
"fX c #B9D7F9",
"gX c #ADD1F7",
"hX c #B9E1F7",
"jX c #C9C7C6",
"kX c #D4CCC5",
"lX c #DAD3C7",
"zX c #C5CAD6",
"xX c #C4D3DD",
"cX c #C8D5DC",
"vX c #D9D7D6",
"bX c #D3CDD4",
"nX c #E3DBCC",
"mX c #E3D8C9",
"MX c #E2DCD5",
"NX c #F5DAD0",
"BX c #E9E4D7",
"VX c #F2EADB",
"CX c #EDE9D6",
"ZX c #C7D7E7",
"AX c #D5DAE5",
"SX c #CCDDF4",
"DX c #C7DBF8",
"FX c #D0D9F4",
"GX c #CAE3F9",
"HX c #D5E6F9",
"JX c #D6E6EB",
"KX c #E8E8E6",
"LX c #F4EEE5",
"PX c #F9F5E9",
"IX c #FBFBF8",
"UX c #E7F1FB",
/* pixels */
"0XzXzXcXcXrXcXcXcXcXxXwX9X9XwXcXZXZXAXZXAXAXAXcX5X4X4X4X4X X'.'.F F F F ` K._.9X9XeX`.wXsXaXsXsXrXrXpXeXeX9XeXeXeXqXqXeXiXaXxXiX",
"zXZXAXAXJXcXcXcXJXZXcXcXrXwXcXcXcXbXjX5X4X X4X X).[.[.[.'.F F S S S i b n Z _ ~.0XrXwX!.wXrXrXeXeXeXeXeXeXeXeXaXeXaXaXaXaXaXZXDX",
"cXcXAXcXcXcXcXAXJXZXcXcXwXjX0XoX}. X[.'.'.F F C C D v v b q 9 7 e e 8 s t u n n ' {.0X`.!.9XqXeXeXqXeXrXrXsXaXaXaXsXaXiXpXaXiXsX",
"AXcXAXZXrXsXcXcXcXcXZXZXzX0X`.^.'.'.Z C v S v b b q q j 8 7 e e e r e e d s u i n ' H./.D.(.9X7XqXeXeXaXsXrXaXaXaXeXeXqXuXuXaXuX",
"ZXcXZXZXrXrXcXcXxXxXzXxXwX>X~.I.Z C v v S q q b S 9 t s z d e d e e e 8 r j u j i i i n _ C.`.8X8X7XeXpXeXeXqXaXqXqX6X7X6X7XuX6X",
"xXxXZXrXrXrXwXrXwX0XiXwX>X4XkXI.n S v y 9 9 9 D S k l h g f f d e a e a 8 8 t s s t p n n _ !.=X8X8X8X8X7XpX;X;XqX7X8X7X7X7X6X;X",
"rXZXrXrXrXeX9XeXwX,XqX>X>X4Xu.v S b q s f s T T I I h h h h L L L L L L L K g g s j u b ' ' J.!.*Xc.8X8X8XtX7X-X7X7X7X8X6X6X;X;X",
"rXcXsXrXqX9X9X9X9XwX>XjX4XZ c y q 9 d l Y O.O...U Y L L Y U P U ! R ! E E U P h s t u u u b ` I.!.8X8X8X8X8XtXc.c.n.tX;X6X;X;XqX",
"wXwXrXqX9X9X7X9XqX0X0X^.Z 0 y 9 t s T X.+.+.o.W R R P P R R ! Q ! Q ! E U P L h t 8 s q 7 q 0 C Q.!.=X*X-X-X;Xc.a.c.tX7X7X7X6X;X",
"9XqXwXeXqXqX0X>X>X_.K.` v j 9 s I { o.+.+.o.! P P P R R R ! o.o.! E W W U U Y h g a 8 7 7 7 7 0 V Q.=X;X-X-X:Xk.h.x.n.7X7XtXuXuX",
"9X0XwXwXwXzX_.^.K.' n j j 9 t Y Q ~ W U R ! ~ ~ ~ R R R R E U W ..W ....{ U Y L I Y [ I r e 7 7 0 Z ).:X*Xc.c.x.h.h.c.7X;XuX;XqX",
"0X0XzX>X_.Q.J.` n i j g 9 s { X.R K P U Q Q ! E P R P R U Y Y I T ] {  .{ { { { [ I I I G r r H H c y.!.*Xc.:Xa.h.a.c.<XtXuX;XuX",
"0X>X).R.I.` n i t d f e s | X.U K P U W P K K K Y I L g a t 8 t u i n b u t t i D k u 9 e r r r q m i.i.&Xc.k.j.h.w.a.1X<XuXuXqX",
").^.'.u.Z D i s l l d a O.+.Y P Y ..W L g I [ ] k p k k j D j u c c A b 0 0 b C Z A b v x 0 H H m m i.>.&Xj.j.e.q.w.w.-XuXqXuX<X",
"I.I.` Z Z n d h h h 8 | +.X.X.X.+.X.K K Y I t t n }  .' ` '..X].' V c 0 q i C V V N D.!.).Q.V x u.u.i.,.>.l.j.q.:.w.w.1XgXuXuXqX",
"I.I.Z Z F j g h h a  .$XO.+.+.+.X.K K Y T 9 p u Z ' _ B.B N.^. X)  X.Xn 0 0 A ; ^ !.=X*X-XuX,Xi.i.).3Xt.*.q.e.q.6.&.w.c.uXuXuX6X",
"I.I.Z F D y f h f l $X$X+.+.+...K K [ K 9 u Z _ # ) B > N / P.D.H.NXNX'.. c V 2 U.!.!.eXpX7X7Xc.i.i.r.l.w.&.7.7.&.&.h.x.pXpXpX7X",
"I.I.I.F D j f f a %X$X$X+.X.o.K K [ k w 9 b ].V > B.N.- - N P.B L.lX#XNX'.` S.U.G.`.`.9Xc.*X&.a.r.>.w.h.b.f.5.&.7.h.6.c.yX7XtX;X",
"I.Q.'.'.S d f d k XX$X+.X.o.Y K [ I 8 w 7 } ].( , : Z.N - Z.D.D.jXT.|.IXVX{./._.9X0X9X!.9XpXx.c.7Xc.w.n.b.M.g.$.7.6.w.n.pX7XuX7X",
").4X[.F 9 f f f  .$X+...Q Q g K { p w w y .XK.) Z.+ - B B = = y.P.N.kXmX^.lXLXlXOX{.E.OXrX8X8X8X8Xc.h.g.f.M.f.$.2.&.:.n.tXtX7X-X",
"4X X'.n 9 l d h | XX..E ~ P p { T u c C ' K.R.B > y.* o       + V.oX|.P.`.nXCXlX+XlX{.{.OX0X`.=X8XtX1X*.g.M.f.g.2.$.w.1XyX7X7X-X",
">X[.'.j 8 f h h | +.Y E Q p T | '.].K.J.) C.J.M ; B Z.Z.D.- X D.kX).D.P._.BXVXlXlX#XlXnX_ U./.G.9XpXuXh.5.M.f.g.3.$.w.1XyXuXyX-X",
").'.F t e l l l O.Y T W  . .].%XJ.J.J.J.) > M * = $ + o - y.% Z.o . P.).0XVXPXCX{.#XCXPXnXH.Y./.0XwXqXn.*.g.M.f.3.2.h.<XuXgXyX;X",
"[.u.y 9 a z l I X.T W X.' E.R.E._ J.J.J.A.I.M @ % y.%     % 1 B 1 V R.kXlXCXCXCX{.R.OXE.OXOXY.U./ vXwXuX5.g.M.f.8.$.q.dXuXgXpXtX",
"u.m b q d l l ] [ T  .' _ ( _ _ J.( ' J.J.J.C.# > 1 - O - - y.L.Q.)._.MXIXBXlX_.+XCX}.U.* S.OX{._ 0XUXpXh.$.f.b.d.$.&.yXyXuXpXtX",
"m F b q s l z I I { ' _ _ H.T.J @ , R.E.J.E.E.) Z.N.O O - Z.y.Q._.P._.LXIXBXT./ U.L.nX+XJ X _ {.MXBXLXGXc.$.g.f.8.$.$.n.yX*XqX;X",
"m m 0 q z h d l .. ._ M _ /.^ * M E./.H.) H.H.) Y.P.B o O P.H.^.|.T.bXLXPX_.F.2 J J S.L.J J J o OXIXvXIX8X=.7.g.8.$.$.h.gXc.qXqX",
"v x q j f L d I O.T ' _ , , * * N./ Z.M ( C.H.J.Y.R.H.@ O N A.J./.^.vXLXKXF.J : < * : J J J ( # J kXPXPXwXpXc.7.5.$.@.e.yX-X7X7X",
"b x x j r f d I  .' _ _ S.S.J : ; - 3 1 N ; y.K.J.R.S.O O J._ M P.{.H.PXBXD.5 4 * & o J J ^ ) J B.* /.PXjX0XSXx.$.2.<.,.1X-X7XtX",
"v b b b a t s | ]._ # J U.J : : N.Z.Z.N 1 * M Z.) J._ o o # O # ^.P.) PXKXS.V.4 p.= < o : : U.~.3 < J VXOX+XBXGX,.2.4.<.n.tX7Xn.",
"m Z m q q z } %X#X_ # J : : o X F.D.< P.|.Q.N.N J.J.) + o + o # |.J.H.VXvXF.* 5 J = V.J = o < jXF.< T.}.^.lXvXIX1X%.@.@.l.n.n.x.",
"u.m F x t } .XmXlXJ ( * @ J S.X = 3 (.vX~.^.D.B , ) ) ; # @ O M {.{.OX/.~.F.N.V.V.J J 5 F.V.O > 0XG.3 B.Y.{.kXAXDX%.<.@.4.l.x.h.",
"Q.u.m b n .X].{.jX) B : > p.3 o = V.zXU.p.y.p.4 N.C.C.M ( ; M Z.{.mX/.= - V.V.F.Z.G.V.5 3 F.F.: V.G.T.D.C.R.lXKXUXq.<.<.<.t.l.l.",
"4XI.c m Z ' [.L.OXC.^ B ^ 4 = p.G.~.B.G.F.~.~.F.P.* ; B ) ( J.T.{.kXN o 1 ~.jXjX_.D.< _.~.: F.~.= V.T.A.( R.+XKXUX:.<.<.4.t.e.e.",
"[.u.c C I.].K.L.R.T.> 2 - < V.-.U.p.< < 3 V.4 -.V.= X y.B y.F.kXA.~.3 = 4 `.bXbX_.: 4 IXcX& & N N N V.F.R.A.{.KXUXl.<.<.9.e.e.t.",
"Q.u.u.A '.E.E.K.S.S.- > 1 V.~.G.`.`.G.5 4 ~.U.U.P.V.= Z.B.- F.^.* y.-.< & F.vX_.* @ `.KXrXp.& < < 1 B.T.lXK.C.jXIX:X@.<.4.q.q.l.",
"[.u.I.m J.].E.C.( S.B.2 B B.G.p.=X=X=Xs.& X B.B.V.G.D.B.< * U.F.3 G.3 < (.`.bX2 < V._.cXeX6X-.5 1 / > Z.oXOX/ A.KXiX#.<.e.4.r.1X",
" Xu.[.V ].E.A.M ( F.^.B.< B.D.W.*X*X8X9Xp.o X F.y.y.V.^ : J ^ V.D.F._.F.(.jX_., X D.cXxXpX<X;.;.% N @ ( |.VXT.E.5XUX#.<.4.q.3X2X",
"I.u.4XP.H.J.M - D.^.T.: ^ ~.0XwX8X7X8XeXqX-.o X N.< V.V.B.S.F.B.F.F./.(._.R.C./ C.bXAXGX<X:.s.;.$ - - * T.oXoXP.4XAXr.#.%.q.1XhX",
"u.u.4X).Y.) M / /.jXN.O 4 G.0XwXeXpXhXhXeX!.& o = < p.F.~./.OX) D.P.T./.T.A.T., _.BXUXiXa.v.z.>.=.4 1 X / }.~.N I.KXFXk.>.1XGXGX",
"Q.Q._.~.B.C.) C.T.jX; B F.F.0XSXJXhXhXhXeXeXJ X o * J J S.) H.J J ) B.S.L.U._ L.R.MXJXs.l.v.e.%.=.s.G.> ; }.) # ^.lXKXUX4XAXHXJX",
"[. X4XP.A./ ( ^ jX~.O Z.~.zXZXHXHXJXhXhXpX7XeXJ o o X @ * , S.S.@ ( ( F.R.~.}.lXlXjXKX:Xl.q.q.%.e.&.s.p.V.F.X ( C.|.PXBXMX4XjXjX",
"4X)./.P.Y.T.S./ kXN P.|.Q.,X2XHXHXHXhXhXpXpXeX9XJ o @ @ : J : ( J J ^ Y.~.lXlXlX}.MXIX:X4.4.4.4.7.$.$.*.s.5 = J Z.oX}.nXCX/.OX+X",
"(.Q.R.R.P.R.^.; D.D.Q.^.).,X&X2XGXGXhXhXpXpXeX9XL., ( ( ) H.( S.H.L.}.OXOXnXOXR.~.LXIX2X#.2.2.9.5.1.3.$.=.=.= J P.^ A.lXPX+X+XlX",
"T.H._ ( ^.kX_.B = Q.Q.u.u.5X2X:X-XhXhXpXpXpXpXpXU.J J J S./.R./.E.R.#XOXMXBX+X{./.VXPXGX$.1.0.0.1.3.3.1.x.a.5 / - 2 L.|.VX+X+XnX",
"Y.Y.H.M , kX5XL.Q.Q.kX|.i.,XUX2Xz.c.n.hXpXpXpXpX`.S.J # ( A.A.H.R.{.#XR.MXPXPX{.OX+XLXUX%.0.9.3.1.3.3.d.M.h.& p.3 : N T.nX/.~.+X",
"T.L.C.^ y.^.MX).[.)._.4X>XW.2XHXdX:.w.c.7XhXpXpX`._ H._ S.E.R.#XCX#XCXCXIXPXLXOXY.E.PXUXn.5.3.3.8.8.d.f.b.g.=.-.V.1 N / lX{.) lX",
"Z.( 2 1 N bXMX~.).&X,X3X,X:X&XdXGX1Xa.a.x.c.8XM.!.Y.L.H./.E.+XmX+XCXPXPXLXIXLXOXS.OXCXBXDX*.$.8.8.d.f.f.f.2.*.;.5 ; > B.OXOX( BX",
") S.1 - y.bXbXi.>.3Xi.3X3Xz.r.r.x.yXdXc.:.h.h.s.F.H.R.H._ _ OX{.E.#XmXCXCXPXIX+XR.CXlXOXJXa.h.d.3.d.d.d.9.3.%.=.-.= N.S./.}.) {.",
"N Z.B : y.).4XW.6 t.t.>.t.r.w.6.6.6.n.hX1Xh.,.s.G._ E.H._ M _ E.H.R.#X#XmXPXPX+X#XVXnX@XvXfX7.0.8.8.d.d.8.5.$.:.;.B Z.N T.|.N }.",
"( ) / B.P.5XQ.2X,.#.t.t.&.e.6.7.7.$.$.e.n.1XW.F.C.H.H.R.Y.( _ _ R.{.CX#XBXVXnXOXE.OXVX+XOXZX%.1.0.8.8.0.0.2.e.j.;.V.N.1 N D.Z.@X",
"C.C./ B 4XKX>XFXiX4.#.q.q.%.%.2.5.1.5.$.*.:.G.C.S._ _ OXE.H.R.Y.].#XlX+XVX+X/.L.S.R.lXlX@XAX%.@.0.0.3.3.7.6.m.n.W.y.4 1 - 3 / oX",
"y.B > ^ _.MXbXHXHXFX%.%.q.4.4.7.5.7.0.2.*.a.B._ H.R.{.{.{.^.R.E.R.R.+XCXlXlXL._ _ +XCX#X{.bX1X$.0.0.1.6.h.v.yX<X&X>.= < - * ^ OX",
"N N < y.D.AXHXHXHXHXiX%.@.2.6.d.7.f.$.5.:.p.J H.{.#XkX#XkXnXnX{./.OXCX+X+X{.H.H.H.OXPX@X^.|.2X,.4.2.6.n.1XgXUXs.6 =.& - @ : ^ ~.",
"3 - 3 N.~.0XUXHXHXFXHXfX:.@.2.3.1.1.3.$.& p.U.OXmX+XOXoXVXMXmXNXE.E./.OX+XH.H.L.H.R.PXnX|.oXxX>.%.6.1Xh.yXgXfXfX:X:X$ < - : : T.",
"N V.N V.~.>XUXHXHXFXZXDXdXq.#.<.1.1.2.:.G.S.T.R.nXnXCXlXMX@XmXmX/.U.!.U.U.( H.E.Y.@XBXnX{.@XvX=Xa.1XhXyXgXhXfXgXGXsX& - @ @ = P.",
"2 Z.V.F.`.wXUXGXFXFXZXZXgXfXt.$.$.$.$.,.U./.T.Y.BXnXnX+X|.lXNX@X9X8Xx.a.p._ S.U.H.+X+X/.lXCXnXvXZXfXdXDXdXgXGXsXhXHXp.= X @ 2 P.",
"1 B.N F.(.ZXHXsXZXZXZXZXZXiXDX2X6.%.*.k.U.Z./ ^.lX+XT./.lXPXPXAXaXc.m.h.c./._ Y.Y.^.OXL.kXPXnXvXSXuX2XdXk.dXGXfXsXHXU.X : < 1 Z.",
"C.D.^ G.`.JXDXsXiXiXiXiXiXZXiXfXyX1Xs.W.D.B.J (.jXC.R.BXIXIXIX2X&.$.2.#.=.cX!.S.S.Y.~.F.B.BXIXBXW.z.1X1X-XsXGXDXDXGX>X& = N 2 : ",
"B ^.^.F.`.HXDXsXsXZXDXZXZXZXFXDXgXW.F.4 3 y.: U.Z.^ jXPXPXIXUX*.#.$.$.%.s.wX/.U.( ^ U.V.B.jXIXUX:X3Xz.<XHXDXDXDXSXZXzXo = 3 : N ",
"= /._.F.zXGXSXsXSXSXSXSXFXSXSXSXHXiX-.- < V.B.3 : S.OXBXPXIXk.*.4.e.t.v.W.(.^.L.( J 2 < J U.lXAXGXHXiXfXGXDXDXHXFXFXwX$ = : 1 A.",
"@ B.jXF.ZXHXSXDXGXFXFXFXSXFXSXSXHXZX< = = < 4 - 2 T.OXvXIX2X:.l.v.3X1X3X:X(.F.C.J J : J J S.OXvXUXSXHXHXGXDXHXDXJXFXwXo X $ V.D.",
"< P.~.G.0XFXGXGXSXGXSXFXFXGXHXFXHX0X5 X = & = * / R.}.IXiXr.l.v.v.1X<XdXZXZX~.C./ 2 = $ @ ^ ^.jXKXHXHXGXHXHXGXSXSXHX!.5 : $ y.p.",
"T.kXG.-.>XHXFXZXZXSXFXHXSXSXSXSXJX,XX = @ * 1 - Z.oXvX,X>.t.m.l.v.3XDXHXGXHXjX/ ) > % X = < ~.jXJXGXHXHXHXHXDXDXSXHX-.5 3 < 4 V."
};
