/* XPM */
static char *_643457697018[] = {
/* columns rows colors chars-per-pixel */
"64 64 247 2 ",
"   c #211A1B",
".  c #473E3F",
"X  c #4D453D",
"o  c #3F3F49",
"O  c #483C40",
"+  c #4C4948",
"@  c #5A564E",
"#  c #5D5B5B",
"$  c #585656",
"%  c #514C4D",
"&  c #625C59",
"*  c #62564F",
"=  c #68635C",
"-  c #72665B",
";  c #635F61",
":  c #5B6368",
">  c #6B6564",
",  c #6C6965",
"<  c #6C6B6B",
"1  c #666667",
"2  c #726C65",
"3  c #736D6B",
"4  c #766B68",
"5  c #74726C",
"6  c #7B746D",
"7  c #787267",
"8  c #6A6D72",
"9  c #726E73",
"0  c #6C7277",
"q  c #747373",
"w  c #7B7572",
"e  c #7C7A74",
"r  c #7C7B7B",
"t  c #767779",
"y  c #6F706C",
"u  c #595B62",
"i  c #837B75",
"p  c #837C7B",
"a  c #857976",
"s  c #82776B",
"d  c #8B8375",
"f  c #84827D",
"g  c #8B847C",
"h  c #8B887C",
"j  c #91867C",
"k  c #948B7D",
"l  c #958D7A",
"z  c #787C82",
"x  c #6A7F85",
"c  c #857E83",
"v  c #7A888F",
"b  c #7D98A5",
"n  c #7BA9BA",
"m  c #79ADC9",
"M  c #7DBACC",
"N  c #79B3CC",
"B  c #7BB7D3",
"V  c #74AFD1",
"C  c #858483",
"Z  c #8A8583",
"A  c #8C8A85",
"S  c #8C8B8A",
"D  c #87868B",
"F  c #918683",
"G  c #938C84",
"H  c #938C8B",
"J  c #988C86",
"K  c #8E918C",
"L  c #94928C",
"P  c #9B948B",
"I  c #9B9487",
"U  c #8B9597",
"Y  c #949493",
"T  c #9B9593",
"R  c #9D9B9C",
"E  c #989898",
"W  c #8E8C92",
"Q  c #A2958A",
"!  c #A39A8C",
"~  c #A59888",
"^  c #A39C93",
"/  c #A69C97",
"(  c #9EA29A",
")  c #ABA294",
"_  c #A5A29C",
"`  c #ABA49B",
"'  c #A9A598",
"]  c #B2AB9C",
"[  c #B3A698",
"{  c #B1A997",
"}  c #959BA3",
"|  c #AA9EA3",
" . c #99A4A8",
".. c #97ABB6",
"X. c #98B4BB",
"o. c #8DAAB2",
"O. c #ACAAA4",
"+. c #ADABAB",
"@. c #A6A6A5",
"#. c #B3ACA3",
"$. c #B5ABA7",
"%. c #ADB1AB",
"&. c #BBB3A4",
"*. c #BCB4AD",
"=. c #B7B4AA",
"-. c #A5ABB3",
";. c #A8B8BB",
":. c #B9B8B6",
">. c #B3AFB3",
",. c #C3BBAD",
"<. c #C4B9AA",
"1. c #C4BDB5",
"2. c #B5C1BC",
"3. c #C5C1B5",
"4. c #CAC4B3",
"5. c #CAC6BB",
"6. c #D3CCBC",
"7. c #D2C9B7",
"8. c #D8D2BD",
"9. c #CAC3AF",
"0. c #84BCCD",
"q. c #88B7C8",
"w. c #99B8C8",
"e. c #85BBD3",
"r. c #8BBDD3",
"t. c #86B8D4",
"y. c #97BDD6",
"u. c #91ADC4",
"i. c #A3BCCB",
"p. c #A8B7C8",
"a. c #B6BCC8",
"s. c #A7BDD3",
"d. c #B4BED2",
"f. c #A1BFE1",
"g. c #98C2CB",
"h. c #8CC2D4",
"j. c #89C4D8",
"k. c #94C3D4",
"l. c #9AC4D4",
"z. c #9CCAD5",
"x. c #94C3DB",
"c. c #9CC3DB",
"v. c #95CDDC",
"b. c #9CCCDB",
"n. c #97CED5",
"m. c #98D4DD",
"M. c #87C4CC",
"N. c #A4C3CC",
"B. c #ABC4CD",
"V. c #A9C5C8",
"C. c #B7C5CB",
"Z. c #A5C5D4",
"A. c #ABC4D3",
"S. c #A4CCD4",
"D. c #ACCBD4",
"F. c #A3C5DC",
"G. c #A3CBDB",
"H. c #ACCCDC",
"J. c #ABC4DA",
"K. c #B3C5D3",
"L. c #B3CBD5",
"P. c #BBCDDA",
"I. c #B8CAD7",
"U. c #ACD3DC",
"Y. c #A6D3DA",
"T. c #B4D3DD",
"R. c #BBD2DB",
"E. c #B9D5D6",
"W. c #9CCBE3",
"Q. c #96C7E2",
"!. c #9CD5E4",
"~. c #9CD9E8",
"^. c #A3CCE3",
"/. c #ACCCE3",
"(. c #A1C4E2",
"). c #B3CDE2",
"_. c #BCCDE3",
"`. c #A4D4E4",
"'. c #ACD3E3",
"]. c #ABDBEB",
"[. c #A8D7E8",
"{. c #B4D3E3",
"}. c #BBD5E4",
"|. c #B4DBE4",
" X c #BAD4EA",
".X c #BCDAEC",
"XX c #B6D9E9",
"oX c #BDDDF2",
"OX c #AADAF2",
"+X c #BCE2EC",
"@X c #B5E1E9",
"#X c #BDE2F3",
"$X c #B7E6F6",
"%X c #A8E4EE",
"&X c #9EE0F0",
"*X c #C7C8C6",
"=X c #D3CCC3",
"-X c #D7CBC6",
";X c #DBD3C4",
":X c #DBD4CA",
">X c #D6D6CB",
",X c #C4CCD7",
"<X c #C4D4DD",
"1X c #CBD6DD",
"2X c #C7D8DA",
"3X c #D7D9D6",
"4X c #CDD7CF",
"5X c #E3DBCA",
"6X c #E3DDD3",
"7X c #E6DED9",
"8X c #D8E4DB",
"9X c #E9E4D9",
"0X c #F0E9D8",
"qX c #E8E0CE",
"wX c #C4D5E3",
"eX c #C5DAE3",
"rX c #CCDAE5",
"tX c #C3D5EB",
"yX c #C4DCEC",
"uX c #CBDBEC",
"iX c #CAD6E1",
"pX c #D2DCE7",
"aX c #C4DDF3",
"sX c #CBDDF4",
"dX c #CEDFF9",
"fX c #C5D2E7",
"gX c #C6E4EB",
"hX c #D7E6E8",
"jX c #C3E2F4",
"kX c #CBE2F4",
"lX c #CBE9F6",
"zX c #C5E5FA",
"xX c #CCE3FA",
"cX c #C8EBF9",
"vX c #D3E2F4",
"bX c #D2E4FB",
"nX c #D2EDFC",
"mX c #D9E8F8",
"MX c #DBF3F8",
"NX c #E8EAE6",
"BX c #F3EEE3",
"VX c #E9F2EA",
"CX c #F4F4EA",
"ZX c #FAF6E9",
"AX c #FDFDF3",
"SX c #F6FCFA",
"DX c #E6F0F8",
/* pixels */
"a.C.I.,XP.,XfX,XR.P.L.D.D.A.K.P.P.<XfXwXtXtXtXtXyX.X XoX.X.XwXtXyX}.}.{.{.`.'.^././.{. X{.}.}. X XT.U.H.H.H.H.H.G.H./.L./.)._._.",
"I.,X<XiXiXeXwXiXeX2XR.P.L.L.P.wXwXtXtXtXyXuXtXyX X X X X.X XtXwX.X|.{./.G.G.k.l.F.H.).{.{.|.|.XX{.{.U.H.H.H.H.H./././.).).{.tXtX",
",X1XpXrXrX2X<XrXpXrX1X<XE.P.R.<XeXrXeXuXuXeX}.T.H./././.L.).H.H.G.F.Z.l.c.k.k.l.l.G.G.U.U.U.'.{.H.H.H.T.T.T.{.{.{.'.{.{./. X.XoX",
"3X1XpXiX1XeX2XrXpXpXiX1X,XL.P.<XeXeXwXwX}.}.T.H.G.J.s.J.J.A.N.w.w.u.y.g.y.h.g.g.b.G.G.G.z.z.G.G.H.U.U.T.|.|.R.{.{.{.{.'././. X_.",
"1X1XiXwX<X<X2X1X1X1X<X<XI.C.A.L.P.P.T.}.T.T.H.J.Z.s.C.*Xp.C.:.2.X.X.X.g.g.l.n.z.G.b.z.k.k.k.k.k.z.G./.U.|.|.}.R.T.H.H.G.W.F./.H.",
"1X<XwXwXP.L.E.<X,XP.,X<XP.L.B.i.p.s.J.L.F.J.S.D.I.C.+.@.Y W %.C.;.U o.N.S.G.Y.G.Y.z.l.k.r.0.M.M.h.k.z.G.U.H.D.H.J.Z.y.x.c.x.F.c.",
"<XwXR.}.T.L.L.E.K.K.K.I.A.A.B.i.p.i.s.s.s.Z.L.;.D A h g p p L =.' K *X8XL.Y.U.'.U.S.n.h.0.0.0.0.q.r.k.x.l.S.G.G.b.k.x.y.Q.x.y.y.",
"R.eX}.R.T.D.B.D.B.B.s.K.s.s.N.w.u.w.w.y.s.i.;.U , e h 6 p p D O.h =.9X3XrXV.D.Y.Y.z.w.0.0.0.0.0.h.r.r.h.k.k.x.b.x.k.x.y.y.x.f.s.",
"T.R.T.U.N.B.D.B.B.D.i.A.s.s.i.w.X.q.w.w.B.K.%.! 5 a T p 4 9 c / q %.-X=XVX2XV.V.g.g.M.M.M M M M.e.j.e.r.r.r.j.x.x.x.x.y.c.y.f.f.",
"D.D.D.D.S.N.B.V.A.D.i.w.J./.w.w.g.q.w.i.A.*X8.l p > a H 9 a / c @.*XR >XSXhX:.C.2.X.X.X.X.X.M.0.M.e.r.M.0.t.t.B e.j.j.x.Q.Q.(.y.",
"B.L.T.D.D.D.D.B.B.Z.Z.Z.s.f.y.i.w.o.X.p.;.=.=.l T e & a a 3 % - c T G 9X*X+.-XCX>X5.2.] 2.C.;.X.w.q.r.l.0.N t.t.e.j.x.x.y.W.^.f.",
"C.K.L.H.U.D.A.B.B.D.H.y.y.s.w.p.i.;.;. .Y P &.I 6 p c & O       - T -X*.| 1.7X7X;X8.8.&.9.4.*X;.X.g.q.h.M N B e.e.e.y.x.y.(.f.W.",
"B.B.K.I.J.Z.D.D.B.D.S.w.c.N.C.:.:.3.` T J j J c w > F c H c 4 4 $.-X| c $.1.7XBX;X8.6.5X;Xh ' %.T 4XU.q.M N N M t.t.t.y.W.(.F.F.",
"C.K.K.K.L.J.G.Z.Z.N.S.V.i.p.:.3.) ~ ~ Q Q a s s > 4 & % O s a > c O * | $.-XBXZX6X<.8.0XZX5XI ' *.2.eXX.m N N N m t.t.r.(.F.(.W.",
"p.K.K.K.D.N.N.B.z.N.V.;. ._ O.O.J ~ ~ J Q ~ a s $ a a O   O > c a a a $.-X-XBX7X7X&.&.:.{ 7.5.! _ h 4XE.n N V B V t.m y.(.^./.(.",
"p.a.s.p.B.V.g.g.z.w.;._ I d G P Q j k ~ Q ~ Q a 4 9 a > ; 4 4 T | | <.<.BXSX7X-X<.;X9X1.{ = I 2.=.A :.SXZ.n V V m V t.c.^././.(.",
"p.p.s.s.p.s.y.Z.g.V. .d I I #.h 2 = Q [ ~ Q [ ~ k J 6 $ & p J c $.*.R -XZXAX3X^ h ^ ' 6X>X7 @ L 3.5X6XVXeXo.m V V V B Q.^././.Q.",
"p.d.d.d.d.w.l.g.z.X.L - h ! ] = 7 d <.) / k [ k Q ] I 2 + 9 | / 1.>./ 7X0XBX=.P w q h _ T 7 f h @ :.AX8XSXB.o.m m N B y.^.^.^.y.",
"p.a.a.d.s.w.w.B.V.%.P G h 6 7 = f h G j a a Q Q ~ [ $.d & & j Q $.$.&.9XZXqXK v 8 8 y 5 h f y Z 4 a >XAXCX,XC.V.n N e.r.W.W.W.y.",
"p.d.d.a.u.X.i.p.:.O.h P A L i 5 7 > a 3 a s s / ~ / [ a * s Q a a <.` #.AX4XK < t < : $ f f A A i F , +.AX;X1.3XD.q.t.Q.Q.!.Q.y.",
"a.,Xd.d.p.u.-. .*.` d 7 P H e , i Z H a a 4 4 a j J ~ s X * 2 = s 1.J Q AX3XZ S q z y , + y 8 ( @.e w 5 0X6.7.:XVXK.r.y.Q.Q.Q.t.",
"p.d.I.d.p.p.-.1.;X^ 2 e 5 w = + C @.t Z <.$.T a F J Q 7 X * @ + s 1.F $.CX-XH > y f 1 S y 1 $ t *XE t R 3.] -X5XCXhXs.Q.^.W.Q.t.",
"p.d.d.s.p.;.*X-X5XG e r & y S t & t S *X1.$.| H s j l a - - * - j 7.<.1.*.+.} z C C e f q Y C # r *XS t G ! 9.6.6X3X}.F.f.OXW.x.",
"d.d.d.p.p.:.,.,.;X! f y w w K ; % t @.>XD c Z 3 a F ~ j s d - a J <.;X$.> p D D E W S f 3 p R T 9 W Y ( T I ) ;X7XSXtX(. XOX/.x.",
"p.s.p.u. .E ] ^ <.) 6 Z w S 1 q q +.E D W R >.} R H > w c F a Q ) 6.-X4 + p >.:.*X+.H w %.E 0 R @.< c @.P j [ 6.9XVX2XT.XXXX[.W.",
"p.u.u.-.@.#.' ) ) <.f e q 9 r C U U z 0 D c c t c c % > a c J $.*XQ >.; ; c a.4X3X:.t r SXC.: 1 z c p D T ` Q &.7XCX2XD.Y.^.F.(.",
"u.p.u.-.O.#.) ^ ! P d > c < -.D U i.o.x 9 W +.R / T 9 9 T p 4 $./ 9 c c 9 ; | pX%.y # >.MX2.v u 9 9 w d / -X) P 7.CXhXg.Y.b.F.F.",
"p.s.w.u.^ [ ] ~ d j j 6 p c U W ..X.o.b 0 ; z U D Y H / Z a 3 @.W t W 4 t | >.3Xq 5 A 2.E.g.o.x 8 q g s I 1.3.g G >XMXE.Y.b.b.(.",
"f.u.u.u.:.] ) d i Q #.T w c U v o.q.m o.b : o z E t D S w , r D W Y @.O./ >.,X>., > P *X|.q.r.v 0 1 i = i 1.0X' l 2.VXE.Y.Y.Y.v.",
"p.s.w.;.O.^ d 7 j ^ *.i w E :.C.q.q.t.q.q.b : % D r f A A A Y W A R T :.@.1.| T i g =XhXb.N r.u.0 $ 6 5 > O.6.6.{ 5.4XhXE.U.Y.b.",
"y.y.y.X.` l i 6 ' =X@.& 3 D :.K.u.v.x.r.t.u.x % % t e S L $.*.=.A / _ O.*.O./ @.6 4.qXVXz.v.x.(.o.: t a & C $.,.l ! =XNX8XV.S.S.",
"f.f.A.;.L k G G ! 5.H = S W X.i.k.x.h.h.t.u.U : % # q e T / / ^ 6 Z H H P P / g L %.qXhXz.v.!./. Xo.z D w , :./ 7 ! :X9X0X4XE.gX",
"U.D.<X-.L j G e O.6., r R ;.g.z.k.x.x.j.y.t.u.b : X @ > y 2 7 I i , G h ` ' ` *.;X6.6.8XS.k.`.[.].|.o.v z 5 ' , 7 P #.BXBX9X*X4X",
"D.E.C.R ' / L w 5.O.5 O. .i.g.h.k.t.r.e.t.V m u.K & @ = = e 7 h h 6 7 d T &.=X;X:X1.:XCXE.k.[.[.].].[.N.v K r = i d 7.:X:X9X<.&.",
">.O.O.#.! ) $.a H / Y P.w.k.n.j.0.t.t.B V V B q...h 7 f f A A e l ! I &.3.5.>X5.&.#.ZXAXgXn.[.[.].`.[.[.|.X.y = , ^ ^ Z 2.AX;X4.",
"` ) ~ k #.5.1.F >  .} V.M.h.h.M 0.M B B B B B h.X.K 5 6 h _ &.] &.{ 2.7.5.9X5X3.#.*.0XVXMXY.Y.].].[.&X&X&X@Xb 1 h p 3 T &.BX>X8.",
"' ! ! s 6 5.-XT A  .H.q.j.j.N N N B B B B j.j.r.X.} h 7 s F / ! { { &.2.&.9XCXCX*.8.;XBXSXD.Y.[.!.m.&X&X&X[.X.: Z w 9 w ) :X9.&.",
"` ' ! h c / 7X>.>.D.n.j.M M M M.M M.j.j.j.Q.Q.j.S.( L k j l [ ~ 9.8.7.0X;XAXCXCX5.] &.AXSX2XY.~.~.~.~.~.~.!.n.v 8 H w a h 4.8.l ",
"P k i e a >.9X>.;.g.M.j.M M M M.M.k.M.j.~.OXQ.!.V.( ' I [ &.&.8.qXqX5XBXZXAXZX0X*.G 9.ZX8X8XY.n.m.~.!.~.~.!.~.o.1 r 4 s a =.>Xg ",
"L k e 7 a 1.7X_ g.n.h.M M h.M.n.b.[.[.%X[.W.W.!.2.K &.~ [ l { 8.7.{ 5X0X0X9XAXZX9.{ ;X8.8.8X|.n.n.].m.m.!.!.!.b.0 ; > a J ` =XG ",
"l I a 4 a $.*X-.z.k.k.0.M.n.G.|.+X#X+X+Xb.n.b.|.@.d ~ { l l d ~ { { 9.9.8.qXZXZX7.4.0X5X9.4XhXn.W.`.!.W.v.m.!.[.o.1 w F F ^ =XT ",
"j j F Z Z *.>.-.D.g.g.n.[.@X+XjXnXlXgX@X[.n.@X2.L l I ) { l s l l { <.qX9.0XAX5X7.<.5X0X8.7.8Xg.Q.!.W.`.v.!.~.`.Z.v S H a p O.H ",
"l k F p | NXa.:.V.Y.@X+X+XgXkXnXMXnXlX@XY.D. .h l I l ) <.~ ~ ~ l 9.9.5X8.0X8.2.[ I &.qX8.9.4XB.x.j.`.`.v.~.!.v.`...t p w 3 a p ",
"g Z a a +.NXI.C.E.@X@X|.gXgXnXMXnXlXjX@XY.o.A l l ) ) ] <.] [ ) { &.9.8.qXqX8.~ k J 6.5X6.9.>XC.r.N W.!.j.~.!.!.].T.v 1 5 4 t t ",
"f e t a T 3XiX{.+XU.T.|.lXnXlXnXcXcX+X|.D.o.s l ) &.9.8.1.7.5X9.<.&.9.0X6.8.2.~ Q Q 8.ZX4.&.2.5.L.W.^.W.`.[.[.].@XlXb u q , , 3 ",
"C 4 p r T a.}.S.G.@XgXcXgXlXlXcXcXcX@X@XE.C d ) 7.8.7.<.6.BX5XqX8.l &.5.9.8.! I ^ I *.ZX8.&.9.>XwXXXOX(.(.OXOX].@XnXV.% 3 < p w ",
"p w f w +. .w.Y.jX#X#X@X+XlXlXMXcXcX%XY.v e I { 7.5X;X-X5X9X9.0X8.{ ~ ] ' O.l ' ) [ 1.0X5X7.9.6.pX.X X^.W.OX].oXcXnXvX8 q 3 > & ",
"f G H C :. .'.$XXXG.'.@XcXlXcXcXcX@XY.Y.l ! 2.( <.9X9X6X:X4.;XqX7.9.4.=.%.h h ! ) ) 5X7.9.7.5X;X3X}.{./.^.`.$X+XnXlXMXU : & & , ",
"3 p h S :.u.y.x.y.^.OX$XcXcXcXcX%X'.'.2.U E ( A 8.:X:X$.3.5.BXqX8.4XE.E.gX( ( l ) ^ 1.3.) 6XZX7X3X1X{.'.^.].oXzXcXkXlX;.# = , 2 ",
"f L f C >.o.w.t.G.].$XzX$XcX$X$X].b.D. ._ K h K 5.5.^ $.9XZXAXCX4XE.@XY.E.E.2.I Q ^ ` *.T O.9XCX3X1X{.[.'.#XzXjXjXjXzXT.: = p a ",
"a ^ / Y  .p.s.W.].$X$X$X$X$X$X%X!.U.B.v A A f e 5.A G >XCXAXAX8XY.Y.%XY.@XE.5.#.P Z H @.S D 3XAXNX2X}.'.oXzX#XzXjXoXaXgX8 $ i i ",
"- *.:.| -.d.). XaXzX$X$X$X%X%X!.!.Y.;.9 0 r v f C 6 _ 9XCXVXCXE.M.m.m.%X$X2.O.&.^ h p S r A *.NXNX3X XoXzXxXzXzXjXzXjXyX1 # r 3 ",
"$ L 1.| p.wXvXdXxXnXzX#X[.[.~.Q.m.|. .1 8 q H f q e $.1.BXSXgXg.M.m.%X%X+XE.( ' H f e 8 r f Y *X7X3XyX.XzXcXnXxXoXXXoXaX: $ 1 z ",
"< r :.} ;.vXbXbXmXnXxXoX'.[.W.!.!.|.U # 1 1 > , 5 G =.=XAXMXT.n.%X%XY.Y.'.T.2.E I f e , 5 y Y 2.4XhX.XzXjXzXnXzXoXzXoX}.: 1 $ t ",
"S :.+.D -.mXmXmXmXnXdXsX XXX`.`.[.T.z # 1 1 1 5 2 ` *.7XhXA.{.`.M.n.n.%X].yXgXO.h h w & $ # t @.*XhXgXzXzXcXnXzXoXoXaX .8 r < c ",
"C >.W D >.DXmXmXbXbXaXtX)./.'.'.XX|.0 1 # 8 r w = ` 3X1XP.J.F.y.Y.n.Y.@X#XgXgXC.K T w $ # , t U -.2XyXzXzXzXzXoXXX#XtXv > Z 9 > ",
"c 1.| c *X,XmXvXdXsXtXtX_.).).).aXK.t C t # 9 S q Y 1X,Xd.).s.u.g.S.XX.XjX#X.XeX-.r # # 1 < q r ( ,XyXaXzXzXaXoXzXaXwXD S a 3 $ ",
"W $.W c 1.a.mXuXtXtXtXtX_._._.tXpXU 8 h C f C O.r *X<X_.).d.s.s.N.Y.XXgXlXjXXX{.P.v $ u # 1 S @.2.,XtXdXxXzXaXaXyXaXfXD Z 3 < 1 ",
"H c ; > c 3X1XfX_.tX_._.fXfX_.iX*XY $ # # 1 S y  .NXfX_._._.).).}.{..XyXjXaXoXXX}.p.: , 8 L T _ #.:.DXvXaXaXsXaXtXvX-.8 a > 9 u ",
"T 9 < < c | a.u.wXwXtXtXtXtXtX,XT O., = p r < , C.NXtXtXtX_._.oX|.eXaXsXzXaXoX X XrXt % 1 = 2 f h 9XSXhXxXzXaXsXdXuXE 9 c a.-.% ",
"@.t < ; > z W -.mXfXuXsXaXsXvX:.G #.5 $ r H Z >.>XNXtXaXsXaXaXsXsXdXzXdXdXdXdXdXxXuXY # # f E S $.CX7X3XvXsXdXsXdXsXz ; W mXc u ",
"r r 8 -.,Xc 9 >.*XvXsXsXsXsXvXd.' ` e > Z T =X9X9XNXuXkXsXuXuXaXdXdXxXbXdXbXbXbXxXpX@.G 5 < t H 5.NX7X4XvXdXsXsXdXtX  u -.mXz u ",
"z c c pXDXpX1 z } vXsXvXsXvXmX1.&.) e 5 P ,.5.BXBXhXuXxXsXsXsXkXxXbXxXnXbXbXbXbXxXmX2.&.h 2 w D =X7XBX7XmXxXdXdXmXc   } vXmX} o ",
"c | c ,XsXmX} % : pXuXvXsXsXvX:.' I e r &.4.6XBX8XNXvXuXsXsXuXsXxXxXxXxXvXvXxXbXxXmX3.&.I d r z 5.9XZXNXpXxXdXdXdX: } DXpXmXd.o "
};
