/* XPM */
static char *_642861097749[] = {
/* columns rows colors chars-per-pixel */
"64 64 243 2 ",
"   c #000447",
".  c #021657",
"X  c #020D52",
"o  c #021D62",
"O  c #04276A",
"+  c #013373",
"@  c #013C7D",
"#  c #063679",
"$  c #022D73",
"%  c #033C82",
"&  c #024383",
"*  c #034A8D",
"=  c #064689",
"-  c #034D92",
";  c #014590",
":  c #025195",
">  c #02559B",
",  c #025A9E",
"<  c #0B5A9A",
"1  c #115590",
"2  c #225E92",
"3  c #11649E",
"4  c #2B6597",
"5  c #366D9B",
"6  c #025CA3",
"7  c #0A5EA3",
"8  c #0262A5",
"9  c #0264AA",
"0  c #036CAD",
"q  c #096AA9",
"w  c #176CA8",
"e  c #1C73AB",
"r  c #046DB1",
"t  c #066DB2",
"y  c #0474B4",
"u  c #0B73B4",
"i  c #057AB5",
"p  c #0475B9",
"a  c #047CBB",
"s  c #0B7CBB",
"d  c #0A78B9",
"f  c #147AB7",
"g  c #0772AC",
"h  c #2575A7",
"j  c #3879A9",
"k  c #257BB3",
"l  c #2E74A9",
"z  c #427CA8",
"x  c #0482BC",
"c  c #0B82BC",
"v  c #0885BA",
"b  c #1C83BC",
"n  c #1583BD",
"m  c #2384BD",
"M  c #2984BB",
"N  c #3A88B8",
"B  c #3887B4",
"V  c #4383AD",
"C  c #4B8BB5",
"Z  c #438DBB",
"A  c #4C8DB9",
"S  c #4488B5",
"D  c #4B92BC",
"F  c #5393BC",
"G  c #518EBB",
"H  c #0C84C1",
"J  c #0C8AC3",
"K  c #0586C3",
"L  c #1285C2",
"P  c #138BC4",
"I  c #1B8BC3",
"U  c #1B8AC3",
"Y  c #0D92CA",
"T  c #1B92C6",
"R  c #1593CA",
"E  c #1B95CB",
"W  c #1C9ACD",
"Q  c #1799CA",
"!  c #1D9CD2",
"~  c #1397D1",
"^  c #238BC3",
"/  c #2B8AC1",
"(  c #2787C1",
")  c #328DC3",
"_  c #3A8CC1",
"`  c #239CCC",
"'  c #2C9DCB",
"]  c #2892C8",
"[  c #3492C6",
"{  c #3C93C5",
"}  c #3294C9",
"|  c #339ECA",
" . c #3B98C8",
".. c #229ED2",
"X. c #299ED1",
"o. c #359ED3",
"O. c #1DA3D4",
"+. c #1BA7DB",
"@. c #1BA2CF",
"#. c #2CA2CE",
"$. c #24A2CE",
"%. c #34A2CD",
"&. c #3CA3CC",
"*. c #3BA9CF",
"=. c #23A4D4",
"-. c #2BA4D3",
";. c #25A9D6",
":. c #2CABD5",
">. c #24ACDA",
",. c #2AACDA",
"<. c #28A5DA",
"1. c #33A4D3",
"2. c #33ABD4",
"3. c #3CABD4",
"4. c #34ADDA",
"5. c #3AA8D6",
"6. c #2CB2DD",
"7. c #26B2DE",
"8. c #3BB2D6",
"9. c #34B3DC",
"0. c #3BB3DC",
"q. c #36B6DB",
"w. c #3AB0CC",
"e. c #1EABE1",
"r. c #21ADE2",
"t. c #2AAEE3",
"y. c #2BB3E2",
"u. c #2DB9E4",
"i. c #29B6E8",
"p. c #33B4E2",
"a. c #34BBE4",
"s. c #3BBCE4",
"d. c #36B9E8",
"f. c #31B4E9",
"g. c #4394C4",
"h. c #4D9AC4",
"j. c #479AC8",
"k. c #549CC5",
"l. c #5798C3",
"z. c #4591C6",
"x. c #619CC7",
"c. c #42A4CD",
"v. c #4CA2CB",
"b. c #43A9CE",
"n. c #4BA5C9",
"m. c #56A6CC",
"M. c #43A6D1",
"N. c #44ACD3",
"B. c #4AACD3",
"V. c #4EA4D1",
"C. c #57ACD2",
"Z. c #44B1D6",
"A. c #4CB3D5",
"S. c #44B4D9",
"D. c #4BB5D9",
"F. c #4CB8DA",
"G. c #53B3D6",
"H. c #54B5D9",
"J. c #53BADB",
"K. c #5CBBDC",
"L. c #59B5D8",
"P. c #65A1CA",
"I. c #65ACD5",
"U. c #63BCDC",
"Y. c #66B9DA",
"T. c #74B2D9",
"R. c #48BBE3",
"E. c #58BDE2",
"W. c #65BCE0",
"Q. c #3CC2E6",
"!. c #3BCBEC",
"~. c #39C5EA",
"^. c #3CCCF1",
"/. c #5AC4DD",
"(. c #66C1DE",
"). c #6CC4DE",
"_. c #74C5DC",
"`. c #4CCBEC",
"'. c #45C6E9",
"]. c #54CEEB",
"[. c #58C5E7",
"{. c #4AD1ED",
"}. c #58D3ED",
"|. c #45CDF3",
" X c #55CBF1",
".X c #48D3F5",
"XX c #58D8F5",
"oX c #65C2E2",
"OX c #6AC4E3",
"+X c #6CCAE4",
"@X c #67C9E7",
"#X c #73CBE5",
"$X c #7BCCE4",
"%X c #73CDE9",
"&X c #78CCE7",
"*X c #69D5EC",
"=X c #78D5EA",
"-X c #67DBF3",
";X c #76DAF3",
":X c #6AE3F7",
">X c #79E5F7",
",X c #79E0EF",
"<X c #85B8D6",
"1X c #8DC3DE",
"2X c #94C7DC",
"3X c #85CDE6",
"4X c #95CAE3",
"5X c #84D4EB",
"6X c #8BD5EA",
"7X c #8BDAEB",
"8X c #87D6E8",
"9X c #93D5EA",
"0X c #93DCED",
"qX c #9BDBEC",
"wX c #99D5E5",
"eX c #8ADBF2",
"rX c #93DDF1",
"tX c #99DDF2",
"yX c #A5D7E8",
"uX c #AAD8EF",
"iX c #97E3EE",
"pX c #86E7F7",
"aX c #9CE2F3",
"sX c #97E6F6",
"dX c #89F3FE",
"fX c #94F7FE",
"gX c #8AE3EB",
"hX c #A6E4EC",
"jX c #A4E5F3",
"kX c #A3ECFB",
"lX c #A8E9F6",
"zX c #B7EAF6",
"xX c #ACF1FA",
"cX c #A4F5FE",
"vX c #B8F4FB",
"bX c #B7E9EE",
"nX c #C7F9FC",
"mX c #DBFDFE",
"MX c #D4FAFD",
"NX c #C2EEF2",
"BX c #E6FEFE",
"VX c #F4FFFF",
"CX c #FCFEFF",
/* pixels */
"      X o o o $ $ # % % % = ; ; > > > > > 6 6 9 9 r t t w u f f w f k m M _ _ z.z.j.z.{  . .{ [ ) ) / M k e e f e w 2 1 - = 2 2 ",
"    X . . O o $ $ # # % ; ; - ; - > > > > 6 6 9 9 r t t u u f f f b m ( M _ _ z.z.j.{ { z. .{ ) ) / ) / M M k k h w w w l l l 2 ",
"X . o O O . O O $ # % = & = ; * - > > > 6 6 6 9 9 t p t u f f f f f ( ( / _ _ z.j.j.{ { } [ ) / ( ( ( ( M / m e h e N _ j j 4 2 ",
". . . . O O O $ $ $ % % % & * ; - - > > 6 6 6 9 9 t t d u u f f f b b ( ) { _ _ {  .{ ) [ ) ( ^ m ( ( ( M m M k k h N j j j 4 2 ",
". . . . + + @ @ & & % % @ % & * : : > 6 6 6 6 6 t t p d u y s f L f f ( ) { [ {  . .[ } } / ^ ^ ( U ^ m b k M k h k N j j j 5 4 ",
"o O O # = = < : 7 7 7 < * = = * - : > 6 7 6 9 9 t t t t y y s s f L b ( ( } } { { [ } } } ] ^ ^ U n b U b U m k k N _ B j j 5 4 ",
"O # = 1 = = < , , 9 w q 7 : : > > > > 6 6 9 9 9 9 t r t y y d s s L b ( ( ) } } } } } ] ] U U U U U f U ^ m m m M _ z.S z z z 5 ",
"O # # = 1 : 6 , 6 8 9 q q 8 6 6 > > 6 6 6 6 9 9 t t p p p p s s d L L U ^ } } } } } } ^ ] ] U U L U ^ ^ U ( ^ m M M z.z.j z z z ",
"+ + & = - > 6 6 6 9 9 t t r t 9 6 > 6 9 6 6 9 r r r p p d d d s s L L U ] ] 5.} } } ] ] ^ U E L U U T ^ ^ ^ ^ k m N N N N S V C ",
"+ + @ * : > 7 7 6 9 0 r r r y 0 t 6 6 6 9 6 9 9 9 p p p p p s p s L L L L ] o.o.} ] ] U ^ E L P P U T U E E U U b / } N N D C C ",
"+ @ % = - < , 6 9 9 0 r 0 y d y d s n s p 9 0 9 9 p p a a a a K a H L L U ] ] 1.5.o.^ ] U E R P R I T U U E U U b ]  .N S S A G ",
"@ & % = - : 7 , 9 8 9 0 0 y y i p s L H p p H H Y a a K a a x K K K P P R ] E ] o.o.U ] ] ..R E E E E E U E T U b m [ B N z.G C ",
"& = & - : > 7 , 8 8 0 0 0 y y i i s L H a J ~ e.r.e.+.~ +.+.Y K K K Y Y ~ ~ X.] X.] ] X.X.<.E R E E E ` E E E T I ] | N g.h.l.l.",
"= 1 - : > > 8 8 9 9 0 0 r y y y y v H P K a Y ! +.+.+.e.i.i.i.r.+.~ K K K L ..X.o.4.4.1.] E E E E E E E W W ~ R T X.&.j.k.k.F I.",
"* : : , 6 6 8 8 9 q 0 r r p y i s d d H H H J ~ ~ e.+.e.r.+.r.i.i.i.e.r.r.~ R ` f.R.X.` ..! R ! ..! ! ! ! ~ W W T ' &.c.C.P.l.T.",
"* : , , 6 8 8 9 9 0 0 r r y y i i s s a s a K J Y ~ ~ e.r.+.e.r.r.i.e.r.f.t...=.X.E E E ! ! ..! ! ..! ..! O.=.;.:.#.*.j.n.I.F G ",
": : , 6 8 8 9 r 9 0 r r y d y d d s p d c x c J P P ~ ! <.! +.+.e.e.e.e.e.i.i.~.u.=.W O.W <...! ..........$.=.4.4.1.|  .m.I.D Z ",
"* : , 8 8 8 9 9 0 0 y r y y i d d s H d s c c v L E X...O.! O.>.+.r.7.7.e.i.i.i.d.u.p.>.! ! t.;.! ......-.1.9.s.8.' &.| V.E.B B ",
"< 1 - , , q 9 r r y r r r y a d s s s a i x P T X.4.4.<.=...=.O.+.7.r.r.r.i.u.d.u.~.6.6.>.W ! O.=.t.,.4.0.p.p.0.1.| |  .j.n.B Z ",
"1 < 3 e e < 6 9 0 0 y y y y y s s s a c v v ` 4.4.4.1.X.-.:.-.` @.O.7.u.7.~.u.p.a.a.s.d.'.4.` ..9.d.R.s.0.0.0.5.5.&.)  . . .D Z ",
"2 w l z.j 3 7 9 r y y y p p s s i v y x Q -.<.1.2.1.%.| ' 1.1.1.2.:.:.:.,.9.R.'.'. X X X X XS.1.6.s.s.q.8.0.N.5.&.&.c.&.j.{ g.D ",
"h w j S z.w 8 9 r r y a a a a K v W W =.,.,.-.-.%.%.| | | %.1.&.2.2.8.S.0.R.`.E. X[. X[.E.[.E.0.q.q.s.q.0.8.3.5.M. .c.j.c.v.j.g.",
"h l S z.C h 7 0 y y y a a a K K J Q 4.p.9.,.-.1.%.' |  .&.M.c.&.%.*.8.8.S.R.R.E.E.F.E.E.J.E.E.F.'.'.q.q.9.4.3.5.&.M.c.c.c.j.c.j.",
"h h B l.l.B 8 g y p d a x x K K Y Q t.p.p.9.` ' ' | | &.&. .&.M.&.&.3.3.N.Z.D.R.F.J.H.G.E.J.E.F.F.S.q.q.0.4.1.&.c.B.b.n.c.v.h.V.",
"h j C l.T.m.8 g y p p s a a K K J 6.d.p.,.:.-.' | |  .&.c.&.c.N.*.&.*.3.3.Z.S.S.H.D.H.G.H.J.H.J.J.R.S.4.s.8.3.%.M.N.B.G.C.n.v.j.",
"j j F l.P.n.w g i y p p a a a K v 7.p.;.-.:.X.' ' |  .&.c.c.M.V.*.*.*.3.3.N.N.Z.D.D.B.A.G.G.H.H.E.E.R.R.0.R.3.3.c.b.B.G.V.n.v.v.",
"j z l.x.F F e 8 r p p p a x a x R y.t.-.-.=.` ' ' | &.&.c.c.b.B.N.3.M.N.N.N.Z.B.B.B.G.A.G.G.L.C.E.W.E.R.S.8.1.*.B.A.G.C.n.n.v.v.",
"z G F x.P.m.M g s p p p a a x P <.t.4.,.-.#.] ' ' %.| &.c.B.b.B.M.V.M.M.N.N.Z.D.B.B.G.B.G.L.L.K.W.OXoX@X[.Z.N.M.A.G.G.C.n.m.v.m.",
"C G l.x.x.l.) g a y p a a K >.f.p.>.<.,.:.X.#.%.| %.&.&.c.b.B.B.N.N.M.N.5.5.S.Z.A.B.H.C.C.L.U.W.W.W.%X%X;XW.E.B.B.G.H.C.m.m.C.m.",
"C G P.P.P.P.j.b P Y ~ ~ K ~ p.6.t.;.,.,.-.-.#.#.%.%.%.&.c.c.b.n.b.b.M.M.N.N.S.N.A.D.H.H.G.L.K.U.Y.Y.&X&X;XeX%XE.G.H.H.L.L.I.C.n.",
"z C l.P.l.m.V.1.>.e.i.i.f.i.f.7.9.;.,.-.-.#.#.' #.%.%.&.c.c.c.c.b.b.M.M.N.S.S.N.Z.A.H.G.G.K.U.U.).).&X3X6XeX=XU.K.E.W.K.U.Y.I.C.",
"V A G G F h. .:.>.e.e.i.i.f.i.;.;.;.=.=.-.#.' -.%.%.&.&.*.c.&.c.b.b.M.N.S.S.S.Z.Z.A.G.G.L.K.U.U.Y.OXT.3X6X6X5XOXoX@X@XoXY.T.Y.Y.",
"C C z h.g.N -.=.+.r.i.u.~.u.6.O.@.O.=.:.-.$.%.#.%.%.w.&.*.b.c.c.B.N.N.3.Z.S.S.Z.Z.A.A.G.L.L.K.).).Y.$X$X6XtXeXOXW.OX%X%XT.#XT._.",
"A F A k.g.) ..+.+.i.u.u.6.6.7.+.O.;.>.:.=.#.#.#.#.%.%.&.b.&.b.b.M.B.N.Z.Z.8.N.Z.Z.A.A.G.L.L.L.(.Y._.#X8X9XtXtX&XW.%X%X=XeX6X_.iX",
"I.F l.I.I.M.$.O.y.d.u.u.u.7.7.y.7.>.,.=.#.:.#.%.*.%.&.*.&.c.c.B.b.N.Z.N.Z.N.Z.Z.A.F.A.G./.K.U.(.U.#X$X8XtXtXtX#XoX%X%X&X5X3X9XkX",
"m.A B N _ j.#.@.>.r.r.u.a.7.;.7.y.,.,.;.$.:.#.2.*.%. .&.b.b.b.c.N.N.N.N.N.N.Z.S.A.F.F.L.K.(.(.(.OX#X$X6XtXkXsX&X@X@X@X&X3X9XjXaX",
"G C V Z B g.' $.O.O.7.a.u.7.+.>.>.6.;.;.;.:.:.%.%.%. .c.V.N.b.b.B.Z.Z.N.b.N.A.D.D.F.F.J.K.oXoX).).).3X5X0XkXkX6X=X@X%X&X&X3XtXzX",
"V C D N N j. .| ;.@.+.u.u.e.7.;.,.>.;.,.:.$.:.%.%.&.b.N.B.b.B.N.N.N.N.B.B.B.A.D.J.J.F.L.K.K.W.oX+X#X&X6X7XsXkXsX#X=X$X5X3X3X3XrX",
"V B D h.n.Z Z &.:.$.;.y.i.u.~.7.7.7.;.,.:.:.2.1.1.N.N.N.N.N.b.b.N.N.M.N.H.B.A.H.J.J.H.J.K./.OXOX#X$X3X6XiXiXkXkX=X8X5X5X6X6XtX6X",
"V C C B h.D k.D &.2.:.+.i.~..X|.6.;.,.:.:.2.:.4.3.3.N.Z.N.Z.A.b.Z.Z.N.A.A.A.A.G.J.L.G.K.W.oXOXOX+X#X5X5X7XiXjXkXiX3XrXeXtXrX9XqX",
"V C F F F D h.v.v.M.1.,.a.^.^.^.{.~.6.,.:.9.:.8.3.3.8.N.Z.S.Z.Z.N.N.A.N.A./.J.A.G.G.B.L.U.(.OXOXOX%X=X3X8X0XaXjXlX1X0XaXaXqXqXhX",
"V C F F m.m.m.F m.v.M.9.~.^.^.^.^..X~.>.:.2.2.8.8.8.8.8.S.Z.Z.A.A.A.D.D.A.G.F.G.G.m.C.L.U.(.W.OXOX%X&X3X8X0XqXaXlXiX0XxXlXhXbXyX",
"C F F D F m.m.m.m.m.m.A.Q.!.!.!.^.^..X.X2.q.2.8.8.8.8.8.S.S.S.D.A.A.D.A.F.A.G.G.G.m.L.Y.U.U.(.).@X%X&X$X8XtX0XiXjXlXiXjXzXzXzXbX",
"C F F m.m.F m.P.m.m.I.C.R.!.!.^.!.^.|.XX{.:.8.2.8.8.8.8.S.D.D.F.A.A.F.A.J.J.G.G.G.C.Y.Y.(.(.).).@XOX#X&X3X3X8X9XjXxXiXqXnXnXMXmX",
"S A h.l.D h.k.v.k.C.I.m.N.'.!.~.!.!..X.XXXp.q.8.0.S.0.S.S.F.D.D.F.A.F.J.K.K.L.K.Y./.Y.Y.Y./.(.(.W._.#X$X6X6XtXaXxXxXlXwXlXnXBXBX",
"S A A Z D h.h.h.m.C.I.I.H.'.!.~.!.!.^..X.XXX9.8.S.S.F.F.F.F.F.F.J.J.F.K.L.K.K.U.L.Y./.L.Y.(.(.(.&X=X=X5XeXrXaXaXlXxXxXyXuXzXmXBX",
"S Z D Z z.k.h.j.m.m.m.Y.K.D.s.~.~.!.^..X.XXXXX8.8.F.R.D.J.E.J.J./.J.J.K.K.K.(.U.(./.Y.(._.+X+X#X&X=X3X8XeX0XqXqXjXxXvXlXhXhXNXmX",
"B B N N N g.{  .c.n.n.B.D.Z.s.~.!.!..X|..X.XXX X3.S.J.J.E.E.[./.K./.(.(.(.U.).(.(.Y./._.).#X=X#X=X5X5X7XeX0XsXjXlXhXxXvXjXzXhXzX",
"e e k k / / ] ] ` #.:.:.6.a.a.Q.'.|.!.!..XXXXX:X{.w.'.A././.[./.(./.oX).).).+XoXoXoX).).).#X%X=X&XeX6X7X7XgXiXsXjXqXlXvXjXqXjXzX",
"w w e f b T T T Q @.>.7.>.6.d.~.Q.~.!.!..XXXXXXX:XXX:X/./././.@XoX).%X+XOX).OX).+X).)._.#X+X#X=X&XeX5X5X8XgX7XiXaXjXqXxXlXyXjXuX",
"q w g f f b T E Q O.;.>.>.7.u.a.a.~.~.Q.^.XXXXXX:X>XdX>X/./.*X*X*XOXOX%XOXY.#X=X#X).).).#X&X=X$X$X8X5X5X8X7X0X0XrXaXtXqXlXnXuXyX",
"q g w f f b I Q ` O.O.;.>.6.6.p.u.~.~.~.!.{.XXXX:X>X>XdX*X+X,X,X;X=X%X%X%X&X#X).#X$X#X_.#X$X3X_.8X8X5X5X5X7X0X0XrXtXtXqXwXNXnXyX",
"8 g g n n n P P W O.O.=.>.,.6.p.a.a.a.Q.Q.'.{.XX:X:X>XfXdX,XdXpXpXpX>X;X*X*X=X_.=X5X3X$X#X$X8X8X0X8X7X7XeX7X6XrXaX9X0XqXwX4XMXmX",
"g g u i f v c P R ! =.;.:.>.,.9.a.a.a.s.!.'.{.}.:X>X>XdXfXdXfXfXpXdXdX>X,X*X*X=X8X5X3X3XeX7X8X0XiX7X0X7XrXeX6XtXqX9XqX9XqX4XyXBX",
"g g x v c J T E R ! =.=.=.,.6.9.p.a.q.Q.'.'.{.{.XX:X:X>XdXfXfXfXfXdXpXpXpX=X*X=X;X5X=XeXgXeX8X0X0X0XrXrXrX0XqXqXwX9X9X9X2XyX2XyX",
"i g g v n P R W ! =.O.=.=.;.,.6.6.q.a.q.Q.!.'.{.XX:X:X:XdXdXpXgXgXpXfXdXdX,X=XeXgXsXsXrXsXiX7XiXiXtXrXrXqXqXqXwXwX9XqX3XwX2X4X<X",
"r y d L L P P E ! ! ! =.;.>.6.6.9.q.a.a.Q.Q.'.{.{.:X:X:X,XdXpXpXpXpXdXdXsXgXgXiXiXfXlXhXkXaXiXgX0XiXiXiX9XqXaXwX9X9X6X9X9X3X2X<X",
"r d d L L P P R E W ! =.>.,.,.6.6.a.a.a.Q.'.`.{.XX}.}.:X>X,X,X>XpX;XgXpXcXfXiXiXcXxXvXvXvXxXjXkXaXiXiXiXwXqXyXtX0XrX9X9X4X4X4X<X",
"0 u d s s H L ~ E ! =.;.,.6.6.6.6.q.s.d.Q.'.`.`.}.}.-X-X-X-X;X>X*X+X=XpXcXcXcXxXxXvXnXnXnXnXvXhXxXxXvXhXhXqXqX0X9X9X9X9X6X4X4X<X",
"9 r d s L H P R ! ! =.=.;.6.6.6.u.q.s.~.'.'.`.].}.XX-X}.-X:X-X-X@X;X>XpXfXsXkXcXxXvXnXMXmXmXMXnXbXbXbXnXvXlXyX4XqXqXqX9X4X4X<X<X",
"9 g y n L P P R E ! =.=.;.,.6.p.a.s.Q.'.'.].].].}.].].}.-X}.[.@X;X>XpX;XpXsXsXfXcXlXnXMXBXBXVXVXBXMXNXNXmXMXNXyX2XuX4XyX4X2X4XT.",
"9 8 u L U L J R W ! ! <.,.p.p.a.d.~.Q.'.'.'.`.].}.].].].].[.[.*X>X>X>XpXpXpXsXsXcXhXvXnXmXVXCXCXVXBXBXmXNXMXBXBXbXyXyX4X4X4X<X<X",
", 9 t f L v H R W ! ..4.p.p.a.s.d.s.'.~.'.`.'.].].].].].@X-X-X>X;X>XpXpXpXpXpXsXcXxXvXNXMXBXCXCXCXCXCXVXBXBXBXBXCXMXyXyXuX1X2X<X",
", 9 0 f c a H R W ..4.d.p.p.9.d.s.s.s.R.R.R.'.].`.].}.}.XXXX-X-X;X>X>X;X;XpXsXsXcXxXvXNXMXBXVXCXCXCXCXCXVXCXCXVXCXVXBXuX4X4X4X<X"
};
