/* XPM */
static char *_642859592840[] = {
/* columns rows colors chars-per-pixel */
"64 64 242 2 ",
"   c #5DABBC",
".  c #5CA8B7",
"X  c #5DB3BC",
"o  c #66ABBC",
"O  c #64B1BF",
"+  c #69B5BF",
"@  c #75AFBB",
"#  c #5B9AC7",
"$  c #609FCB",
"%  c #5DAEC3",
"&  c #5EA1CC",
"*  c #5EB3C8",
"=  c #63ADC1",
"-  c #69AAC6",
";  c #73AECB",
":  c #64B3C3",
">  c #6CB4C4",
",  c #6DBAC6",
"<  c #64B4CA",
"1  c #6DB4CC",
"2  c #6EBACC",
"3  c #67BAC5",
"4  c #74B5C5",
"5  c #7BB3C5",
"6  c #74B4CD",
"7  c #7AB4CC",
"8  c #74BACB",
"9  c #7CBBCC",
"0  c #76BAC6",
"q  c #64A3D1",
"w  c #6EAED9",
"e  c #6AA9D4",
"r  c #74ADD6",
"t  c #6DBCD2",
"y  c #74B4D2",
"u  c #7BB5D1",
"i  c #74BBD1",
"p  c #7CBCD2",
"a  c #73B3DB",
"s  c #7EBBDB",
"d  c #7AB5DD",
"f  c #7BBAE2",
"g  c #79B9E1",
"h  c #73C1CC",
"j  c #7CC3CD",
"k  c #7DCACE",
"l  c #7CC4D3",
"z  c #7CCAD4",
"x  c #79C9D8",
"c  c #7BD1D9",
"v  c #8EAFBE",
"b  c #93ADBE",
"n  c #8BB2BE",
"m  c #95AFC2",
"M  c #9BAEC2",
"N  c #8CB3C3",
"B  c #84B5CC",
"V  c #83BBCC",
"C  c #8BBCCD",
"Z  c #89B6C8",
"A  c #93B3C5",
"S  c #9BB3C5",
"D  c #9BB5CA",
"F  c #94BBCC",
"G  c #9BBACC",
"H  c #95B7C9",
"J  c #82B5D3",
"K  c #83BCD3",
"L  c #8BBDD3",
"P  c #8BBED9",
"I  c #84BAD9",
"U  c #93BDD3",
"Y  c #9CBDD3",
"T  c #9BBEDB",
"R  c #93BEDA",
"E  c #86AEC7",
"W  c #A2B5CB",
"Q  c #A3BCCC",
"!  c #ABBCCE",
"~  c #A8B4C8",
"^  c #B2BACC",
"/  c #A1BDD2",
"(  c #ABBED2",
")  c #B6BED3",
"_  c #81BCE3",
"`  c #93BFE6",
"'  c #C3BDD7",
"]  c #83C2CE",
"[  c #92C1CE",
"{  c #84C3D4",
"}  c #8CC3D4",
"|  c #83CAD4",
" . c #8CCAD6",
".. c #85C4DA",
"X. c #8BC4D9",
"o. c #84CBDA",
"O. c #8CCCDC",
"+. c #94C3D3",
"@. c #9BC3D4",
"#. c #94C9D6",
"$. c #9BCAD6",
"%. c #94C3DB",
"&. c #9CC4DB",
"*. c #94CBDC",
"=. c #9CCBDB",
"-. c #84D2DB",
";. c #8BD3DC",
":. c #87D3D7",
">. c #92D2DC",
",. c #9BD1DD",
"<. c #93D9DE",
"1. c #A4C1CE",
"2. c #ADC3CE",
"3. c #B1C4CE",
"4. c #A3C4D3",
"5. c #ACC3D3",
"6. c #A3CCD5",
"7. c #ACCAD4",
"8. c #A4C4DB",
"9. c #AAC6DB",
"0. c #A3CCDC",
"q. c #ABCCDC",
"w. c #B2C4D3",
"e. c #B2CBD5",
"r. c #BBCBD5",
"t. c #B3C7DC",
"y. c #B2CCDC",
"u. c #BCCDD9",
"i. c #BAC3D5",
"p. c #A3D1DD",
"a. c #ACD2DD",
"s. c #A6D1D7",
"d. c #B2D2DC",
"f. c #BCD2DA",
"g. c #BDD0D7",
"h. c #85C2E3",
"j. c #8AC8E5",
"k. c #95CDE2",
"l. c #9BCDE3",
"z. c #92CEEC",
"x. c #9DCFE9",
"c. c #99C4E1",
"v. c #8ED3E4",
"b. c #8AD7E6",
"n. c #94D3E3",
"m. c #9CD4E4",
"M. c #94DBE5",
"N. c #9CDAE5",
"B. c #95D4EB",
"V. c #9CD4E9",
"C. c #95DAEB",
"Z. c #9CDBEB",
"A. c #9DDDF2",
"S. c #98D4F1",
"D. c #98CCF3",
"F. c #A2C6E1",
"G. c #A4CCE3",
"H. c #ABCDE3",
"J. c #A3CEE9",
"K. c #ACCFEA",
"L. c #B2CDE2",
"P. c #BACDE2",
"I. c #B2CFE9",
"U. c #A3D3E4",
"Y. c #ABD3E5",
"T. c #A3DAE5",
"R. c #AADAE6",
"E. c #A3D4EA",
"W. c #ADD4EA",
"Q. c #A4DBEB",
"!. c #ACDBEB",
"~. c #B4D3E4",
"^. c #BBD3E4",
"/. c #B3D6EB",
"(. c #BBD5EA",
"). c #B3DCEC",
"_. c #BBDBED",
"`. c #B4DAE6",
"'. c #A3DCF1",
"]. c #AADBF2",
"[. c #A8D6F1",
"{. c #B3D7F1",
"}. c #B4DBF2",
"|. c #BCDDF2",
" X c #BCD5F0",
".X c #95E1EA",
"XX c #9DE3EB",
"oX c #9BE3E6",
"OX c #9DE1F2",
"+X c #8FE1EC",
"@X c #A3E3ED",
"#X c #AAE2ED",
"$X c #A6E4E9",
"%X c #B2E2ED",
"&X c #BBE2EC",
"*X c #A2E4F3",
"=X c #ABE3F2",
"-X c #A7E8F2",
";X c #B4E3F2",
":X c #BCE3F3",
">X c #B4EAF5",
",X c #BBEBF5",
"<X c #BDE9F9",
"1X c #B9E5F9",
"2X c #BFF0F9",
"3X c #C3CDDB",
"4X c #C1C9D4",
"5X c #C4D3DC",
"6X c #C9D7DE",
"7X c #C6CCE5",
"8X c #C3D3E6",
"9X c #CCD6E1",
"0X c #CBDAE3",
"qX c #C3D5EC",
"wX c #C4DAED",
"eX c #CADAEC",
"rX c #C9D7E9",
"tX c #D1D9E9",
"yX c #C3D6F2",
"uX c #CBD7F1",
"iX c #C4DCF2",
"pX c #CCDDF4",
"aX c #CEDFF9",
"sX c #C3DDF8",
"dX c #D3DDF5",
"fX c #D2DFF9",
"gX c #C2E3EE",
"hX c #C3E3F5",
"jX c #CDE1F6",
"kX c #C3EBF5",
"lX c #CBEAF5",
"zX c #C5E5F9",
"xX c #CDE3FA",
"cX c #C4EBFA",
"vX c #CBEBFC",
"bX c #D2E1F6",
"nX c #D2E3FB",
"mX c #D4EAFD",
"MX c #DBE9FD",
"NX c #D9E6F9",
"BX c #C6F1FC",
"VX c #D5F3FD",
/* pixels */
"^ i.4X4Xf.f.g.g.5Xg.4Xg.3.3.3.g.u.7X8XrXrXwXgXgXwX(.(.(.(.(.iXwXwX8X~.^.Y.9.8.9.H.H.L.^.^.8X^.^.`.d.a.7.4.6.6.s.$.s.q.9.y.P.7X7X",
"4X5X6X0X6X6X6X&X0X0X6X5Xg.3.d.6X0X0X0XwX0XwX(.(.~.~.~.^.P.P.^.(.~.a.a.q.8.@.@.@.0.0.U.Y.~.~.d.`.d.d.y.a.a.a.d.d.a.a.Y.a.d.^.qXyX",
"9X0XtX0X0X0X0X0X0X0X0X6X5Xr.f.gXgXeXwXwXgXwX~.L.9.9.q.L.L.L.9.( @.+.[ @.+.[ } +.=.$.$.,.p.p.s.s.s.a.a.~.`.f.^.f.d.`.`.d.Y.(.(. X",
"9X0X0X0X6X6X6X6X0X0X6X6Xr.r.r.g.5Xf.8X8X^.~.y.q.9.8.9.8.F./ / H N B C C +.+.+.+.$.$.$.$.#.#.#.$.$.a.a.`.^.^.^.^.^.d.q.0.q.H.H.W.",
"tX9X0X5Xf.f.5X6X6X5X3X5Xg.r.3.3.3.3.d.y.y.q.9.9.8.8.&.&./ Y H E E B L +.#.=.0.0.6.6.$.+.+.} [ } #.$.0.Y.~.^.L.~.q.8.8.@.&.&.0.0.",
"9X9X6Xf.d.f.g.g.r.r.4Xu.r.3.2.! Q 2.2.7.9.8.8.8.F.8.&.&.R L B E L L +.@.0.a.a.6.a.0.$.[ C B C C } [ +.=.0.9.H.H.8.@.@.Y $.R &.T ",
"6X8Xf.f.d.e.e.e.5.2.2.w.w.2.Q G S [ G / 4.4.8.0.&.l.%.U K B 7 7 B L +.$.,.a.a.7.s.6.+.C B C K { C K [ +.$.$.&.0.=.@.%.%.&.T T T ",
"^.f.`.^.d.7.s.7.e.2.2.5.5.1.1.G S A S D G 8.8.l.c.&.%.I J 7 9 7 5 C [ $.$.s.s.6.6.$.[ C V p I I { L L } U %.*.*.*...P %.c.` T T ",
"e.e.7.s.1.7.2.7.4.q.Q D 9.9.G G [ n n 2.7.y.~.8.=.} X.{ l l p 0 4 0 V }  .*.#.+.} [ C V V B K K } C J L L L } X.X.%.%.R %.&.c.8.",
"7.e.d.e.7.7.4.1.1.7.4.D 4.8.G G F n n [ @.9.Y.&.$.} { | | { p 8 4 > > 0 9 9 ] ] V 9 5 5 7 V K { K J } X.K 7 u I P P %.%.c.c.c.T ",
"7.e.g.e.7.e.6.7.1.q.6.Y 8./ T / F n H G @.0.a.p.} V 9 | | l 9 , : O O > , , 0 8 8 0 9 8 p p s K B } X.X.K 7 7 J I P R R c.c.F.8.",
"3.e.e.e.7.7.6.7.$.q.8.@./ T T T G F G @.4.0.U.m.} 0 j | l l i , : X X : 2 , , , > 6 9 l K { p K p K { L p 7 7 K K K P R c.F.F.8.",
"3.3.3.e.7.7.7.4.4.8.0.4.c.T U T D G T &.$.=.>.>.| ] | ;.O.o.| l , X . + 2 8 2 1 o 6 8 u 7 7 u K 9 p K p u 7 u J J J J U 8.F.F.F.",
"2.3.e.e.e.7.2.1.4.6.&.&.&.R &.T F G U $.#.O.;.:.| j o.;.;.O.v.O.j , O O , h i 8 = - 6 6 4 7 K X.7 7 i y u 6 6 7 u I E P &.K.J./ ",
"! ^ 3.w.2.4.2.@.4.$.$.0.=.&.&.+.F F [ #.o.-.:.-.l l o.O.....;.n.o.c h > , 2 2 2 , 2 , 6 8 p ....6 6 6 6 6 ; r 7 7 E J T F.K.H.8.",
"~ ~ ! ! Q 2.1.1.@.G [ &.*.=.&.U F Z [ } | z c z z z  .O.{ } O.v.| -.-.h : 3 3 : 8 2 i h z | | l 6 i u i 6 7 ; 7 ; r E ` K.I.I.T ",
"~ ^ ( ( 9.4.@.[ [ #.#.+.#.,.=.+.[ @ ] ] j c b.c c h c c c c k :.C.n.-.k 3 X + h | K *.k.v.B.b.i i 2 1 y i 1 1 ; y ; J c.J.K.G./ ",
"~ ^ ^ w.5.G 4.@.[ [ [ [ $.=.@.[ @ @ @ 9 j | b.c c z c h k k ;.Z.*XZ.o.k h h h j X. .Q.].B.v.x h i 1 1 1 1 1 1 y ; y u P c.K.F.T ",
"~ ^ ) ( Q Q @.@.@.@.@.@.$.0.$.C 5 o @ j l -.-.c k c -.| c ;.oXoX@XQ.>.| k k | ;.,.T.=X=Xm.O.| 9 i y y i y 6 1 1 6 7 K X.l.V.l.R ",
"~ ) ) ^ ~ b b b G @.@.&.8.0.@.C 5 o o , z z -.-.c b..X.XoXoXoXN.Q.R.R.<. .:.>.N.@XQ.T.m.*. .} { p s p i i u 6 6 u s K P k.x.c.R ",
"^ i.w.^ Q b b b S D Y 4.8.0.[ Z + . . > h c -.o.:..XXXZ.oXXX@XZ.Q.=X>X-XN.O. .O.n.,.#. .} }  .X.....{ { I { K K p K I X.c.x.c.J ",
"5.w.t.5.~ W ~ S A S G 4.q.8.@.B + . . : h z l k :.M..XoXoX-X-XoX-X=X-XZ.M...8 o 4 l o.o.o.o...*. .*.*. .*.X.} } L +.%.c.c.x.c.P ",
"Q w.5.! ~ ~ ~ S S D D Y 6.8.@.Z + = X : h z z k :.<..XoX@X-XXXZ.-X*XOXB...i - % % t x x j...l } *.#.#.#.#.$.$.@.+.0.G.G.K.K.J.T ",
"D 5.1.~ S b Q S W D D H 4.8.G C O :     h -.;.M.oX.X<.;.M..X.XXXOXOXA.v.l 2 2 1 < t t i x x p p } +.#.@.$.0.=.@.@.8.H.K./.{.K.T ",
"W W D A n n n v b S W W D G Y L p h.c c b.+X+XM.XXO.{ *.Z.B.b.v.A.].'.V...9 0 4 8 8 j | l p p l O... .%.%.@.$.@.$.8.s.R.).~.Y.9.",
"M M M m v v v b S S S W / G F L n.B.b.b.x i x j.8 l { X.{ ..o.C.'.].].V.*.K 5 5 9 V { { { K K p o.*.>.>.=.$.$.+.$.$.,.s.p.p.0.@.",
"W W D A A A A A D m A / @.U C } 9 6 1 1 q = e d s s s K o.O.;.n.A.'.].V.%.C V 5 B } } { K { ..p X.>.N.m.,.<.,.,.,.,.,.,.p.,.$.=.",
"W W D m n A H H D D D Y @.[ C V 9 4 6 6 e a d w a d f j...9 { >.Z.'.'.k.V ; 5 5 9 I { K p l s 9 *.m.m.,.,.T.R.T.p.R.a.p.p.$.,.,.",
"W W G m N F G G D @.Y @.U } { V 0 5 7 6 - d r # q a f h.z.B.V.B.Z.OXZ.o.4 - o > > 0 y 8 8 l p p l.G.G.m.T.R.$XR.R.R.).`.R.p.p.$.",
"/ F.Y Z N C [ Z H Y @.U C { j 9 5 ] } I J _ J q # q # # w S.[.j.'.'.Z...> o = = : 1 i i p l ..{ E.H.U.E.Q.Q.N.0.R.).)._.%XR.p.*.",
"T &.@.C B C C Z F F F C C K l j  .#.#.L I J e e & e e # & d D.[.'.'.V.{ -   = : < 2 x o...j.k.x.[.E.l.Z.Z.M.>.#.R.`.).:X}.!.,.#.",
"c.J.m.=.*.,.=.@.=.U U +. .o.z |  .#.C L R J r _ q & q w a a I ` J.E.m.I >   . % < t x j.k.l.J.[.}.J.m.B.C.b.:.>.T.U.!.).}.R.>.} ",
"N.Q.Q.Y.R.U.p.Y.U.U.=.#.*. . . .+.R L L L J y r - e w w e w w g j.b.C.8 >   % % * % % 1 p %.G./.!.!.V.V.XXb.o.O.Q.!./.{.}.}.E.*.",
",.U.T.m.p.0.=.=.0.p.=.#.} #... .L L L L K u r y r e a g f f a g t l l : - O o < < < < t { k.E.!.!.!.m.B.C.b.-.O.n.U.E.{.}.].E.k.",
"*.U.U.U.p.&.=.0.0.,.=.*.#.X.{ { 9 7 u u y u p g _ y r g f _ _ j.h.p l 0 , > < 2 < > t p j.l.W.!.!.Q.Q.OX.XM.b.;.O.k.V.E.[.].Q.x.",
"=.U.U.U.p.U.0.Y.U.0.=.*.} { { K 9 u y y p s s _ _ y g f h.j._ z.B.....p 8 , > 1 = 1 i { k.m.T.W.R.N.OX-X.X.XC.;.j.*.V.V.[.'.[.x.",
"U.W.E.G.p.G.U.W.=.*.$.} C V 9 9 l 9 p l ..h.....h.I h.z.S.z.j.z.V.{ X.| j h 0 0 4 9 ..k.V.Q.U.T.m.n.Z.XXC.M.C.O.v.n.n.V.'.=X'.E.",
"E./.U.0.0.G.p.U.@.#.+.L V 9 9 V 9 { } X.k.k.z.k.k.h.S.S.S.z.j.B.'.X.V.O.| j k | j X.V.E.E.U.U.m.m.V.Z.Z.C.N.M.v.n.n.n.V.].1X1X].",
"!.).W.U.H.U.l.U.+.+.} L 9 V {  .#.#.k.m.U.V.V.E.l.z.Z.z.j.b.B.A.V.c.N.>.] j ] 0 { *.V.E.U.U.,.,.n.V.V.V.Z.V.m.m.N.N.N.$X;X<X<X:X",
"{.}.W.H.U.H.=.$.} +.} L C I *.,.T.R.%X!.U.U.*.l.V.V.Z.B.z.C.C.A.E.l.$X<.| k | ] } *.E.!.R.m.,.m.>.Q.V.k.m.m.<.m.N.Q.$X;X>XcXcXhX",
"W.{.}.!.G.!.E.@.$.+.C [ @.s.`.&XlXgXgX`.U.m.m.'.A.S.C.C.k.V.N.=XE.x.c.V.m.O.] ]  .m.R.Q.R.Q.V.*.,.*.E.l.j.B.V.n.n.N.$X>X2X,XcXvX",
"W.{.).W.W.!.U.$.$.@.6.R.&XgXgXgXVXlXkX`.p.U.Z.*XOXA.A.C.C.V.Z.=XE.c.%.k.n.*. . .#.,.N.U.E.E.l.%.#.#.Q.V.l.E.Z.m.N.N.-X,X2XBXcXvX",
"H./.W.Y.Y.Y.Y.0.6.Y.&XkXgXwXlXVXVXVXkX`.U.V.'.A.Z.OXOXOXC.XXXX'.l.X.P k.>.o. .>.>.,.m.E.E.U.k.k.C } l.l.l.V.V.V.T.$X;XkXBXkXBXvX",
"H.Y.~.W.`.`.Y.Y.&X`.d.^.gXNXmXVXlXlXkX`.!.R.Q.n.C.OXOXC.Z.XX*XQ.k.%.O.V.N.>. .>.,.,.U.U.E.U.l.J.} L l.k.k.V.V.m.!.%X,XBXBXBXlXBX",
"Y.`./._._.Y.a.Y.).~.d.wXlXmXmXmXlXBX:XR.Q.Q.T.n.M.Z.OXXXZ.@X@XZ.*.*.>.Z.N.>.#.>.N.p.U.U.U.l.E.[.E.J.E.x.l.].].!.%X,XlXlXlXkX,XkX",
"Y././.`./.p.@.a.(.&XkXvXhXwXlXVXVX,X%XR.T.T.T.Z.N.@X@XQ.@X-XQ.m.n.l.>.m.n.,.>.p.U.G.&.8.8.l.J.].|.{.[.E.k.].=X).kXlXlXlXkXkX,X>X",
"H.(.Y.Y.Y.@.+.Y.:X%X/.;XkXvXvXvX2X>XT.T.T.T.N.T.Q.Q.Q.=X=X#X!.T.*.V.m.m.,.T.R.$XR.U.0.8.&.&.J.{.|././.G.*.!.%X_.lXlXlXgXkX,X>X-X",
"Y././.~.W.=.$.1XU.0.U.}.cXvXBXvX,X$XT.T.T.,.m.N.Q.Z.R.#X;X;X!.R.$.m.N.m.N.$X=X%X!.~.0.T U 8.K.{.sX(./.G.G.}.;X:XlXlXlXhXkX,X>X-X",
"~.~.H.H.K.*.B B %.E.=X<XzXvXvXcX!.E.n.Q.U.!.U.!.Y.R.Y.).:X#X$XN.<.T.p.$X>X>X;X;X!.Y.l.+.U &.K.}.1X}./.H.H.(.zXzXzXzX:XhX1X1X<X).",
"H.I.I.W.J.T U R G.[.1X1X1X<X<X;XR.E.V.V.E.Q.E.U./.}.).%X#XR.$XR.$XoX$Xp.!.).).:XW.Y.G.+.U &.W. X}.}./.K./.|.hX:XhXhX&XhX:X%X<X).",
"9.H.~.~.( / 8.H.|.1X<X1X1X>X=XQ.m.m.m.V.Q.E.Q.U.Y.!.W.).!.T.Q.oX:.<.oX$X;X%X&X:XY.Y.F.@.U &.K.}.}.|.(.{.zXzXzX:X:X:X:X:X:X;X1X).",
"9.9.I.~.9.L.(.yXxXzXzX1X;X@XN.m.m.U.Q.m.Q.Q.R.m.0.U.U.!.#XR.T. .k :.oX#X,X<X|.:X~.H.0.Y T 8.[.|. X(.|.sXzXvXvXzX:XhX:X:X).).:X/.",
"/ 5.L.P.P.qXNXnXnXvXzX:X!.Z.n.*.m.U.].U.!.Q.!.G.U.R.E./.!.W.U.} <.oX$X$X%X)._.:X/.H.8.Y T F.{.|.|.|.|.sXhXvXvXvX|.hX_.:X|._.|.{.",
"( ( L.7XqXdXMXMXMXmXzX|.).R.m.U.Y.W.).!.!.!.R.U.U._./.~.Y.Y.W.=.<.oXoXs.!.%X|.|./.H.8.Y / I. X|.zXsXhXzXzXzXvXvX|.|.|.sX|.|.sX X",
"( P.P.8XdXNXNXMXMXMXaX|./.I.W./.W.~./._.!.W.Y.Y.H./.~.I.H.H./.0.[ ,.s.s.;XhX:X).W.Y.0.8.H. XyXyXzX|.:XzXvXcXcXcX_.hX|.yXyXyXaX X",
"5.P.8XqXbXNXNXMXbXjXuXqXL.H.L.I.(./.~.:X/./.q.I.~.(.I.L.I.H.8.A 6.s.a.`.kXcX:X!.Y.G.0.G.{.|.aXyXzX|.|.:XcXzX:X_.|.iXyXsXsXyXaXyX",
") 3XtXbXnXmXmXnXiXqXyXqX7XP.P.^.iX8XwXiXiX^.~.~.~.^.~.P.L.( ( G @.5.~.sXhXhX|.(.L.9.8.H.(.iXiX|.zX_.|.zXzXxXhXsXjXiXpXpXpXaXpXpX",
"' 7XeXjXmXmXzXiXqXqX(.qXP.P.P.qXwX(.qXiXiX(.^.^.^.(.~.P.L.t.( ( 9.y.|.iXhX|._./.H.H.q.L.(.hXiXiXzX|.iXzXxXhXiXiXiXiXiXpXaXnXnXnX",
"7XrXeXbXnXxXiX(.^.P.qX7X7X8XqXwXwXqXwXiXiXwX(.(.yXiXqX^.P.P.^.P.~.(.wXiXhXsX_.(.^.~.I.(.iXpXpXiXxXsXxXzXzXjXiXiXiXyXpXpXfXnXMXMX",
"8XuXjXbXxXzXiX(.yX(.yXuXqXqXrXpXpXeXwXpXpXwXiXjXpXiXiXiXwXyXqXqXqXiXiXiXpXiXiXiXqXyXiXpXpXxXaXxXxXhXxXvXxXhXxXiXpXiXpXpXaXfXfXfX",
"tXtXfXjXjXzXjX(.pXaXuXdXpXdXeXdXpXpXpXbXjXjXjXjXjXjXpXiXeXiXeXeXpXaXaXxXxXxXxXxXxXaXxXxXfXfXnXnXnXzXmXnXxXpXaXpXaXpXaXaXaXaXaXpX",
"tXuXbXbXbXnXxXpXfXfXfXdXfXfXdXdXnXbXbXnXmXnXmXxXxXxXjXjXdXpXpXpXxXnXxXnXnXxXnXnXxXnXnXnXnXnXnXnXmXnXmXmXxXnXxXaXaXaXaXaXfXfXaXdX",
"7XtXdXdXdXpXaXdXaXdXdXdXdXdXpXjXbXbXnXnXnXjXjXjXjXjXjXpXpXpXpXpXnXnXxXnXnXnXxXxXnXnXnXnXnXMXMXnXMXnXmXnXnXnXnXaXpXaXdXaXfXdXaXuX",
"' 7XtXtXuXuXyXqXyXuXuXuXuXdXpXeXpXdXpXdXjXjXpXpXpXpXpXeXuXqXuXpXpXaXxXxXxXxXnXxXxXxXxXaXfXnXnXnXnXxXnXnXpXxXfXpXpXpXuXaXaXaXaXuX"
};
