/* XPM */
static char *_643455522076[] = {
/* columns rows colors chars-per-pixel */
"64 64 256 2 ",
"   c #0E131F",
".  c #062E54",
"X  c #0A3A68",
"o  c #254359",
"O  c #134C73",
"+  c #2D5672",
"@  c #1A425B",
"#  c #545E69",
"$  c #653426",
"%  c #B2513D",
"&  c #D65939",
"*  c #F55C35",
"=  c #EB623C",
"-  c #AB695D",
";  c #D56F53",
":  c #B1827D",
">  c #0F5A8C",
",  c #196896",
"<  c #27658C",
"1  c #266A98",
"2  c #367091",
"3  c #377BA4",
"4  c #2579A8",
"5  c #1776A4",
"6  c #4E7892",
"7  c #566B89",
"8  c #3A84AB",
"9  c #2988B8",
"0  c #368BB6",
"q  c #3191B9",
"w  c #158CBE",
"e  c #4E8799",
"r  c #748798",
"t  c #4588AA",
"y  c #448CB4",
"u  c #4895B9",
"i  c #5598BA",
"p  c #548FA9",
"a  c #659CB9",
"s  c #7094AD",
"d  c #6EA5BC",
"f  c #5AA2BE",
"g  c #1696C9",
"h  c #3897C5",
"j  c #289ACA",
"k  c #18A7DA",
"l  c #0AA3DC",
"z  c #28A8D7",
"x  c #38A9D5",
"c  c #37B3DC",
"v  c #2EA8D1",
"b  c #14B4E8",
"n  c #28BAE9",
"m  c #39BAE6",
"M  c #2AB5EA",
"N  c #499CC7",
"B  c #549CC3",
"V  c #599AC3",
"C  c #418EC6",
"Z  c #669BC2",
"A  c #48A5CA",
"S  c #58A5C9",
"D  c #49ABD5",
"F  c #57ACD4",
"G  c #4AB3DB",
"H  c #5CB4D5",
"J  c #54B5DC",
"K  c #59B7DA",
"L  c #64ADCD",
"P  c #68A7C9",
"I  c #75ABC8",
"U  c #6AB2CB",
"Y  c #74B2CC",
"T  c #7BB4CD",
"R  c #64ACD3",
"E  c #64B3D3",
"W  c #6CB4D3",
"Q  c #63BBDC",
"!  c #69B8DB",
"~  c #72B3D4",
"^  c #73BBDB",
"/  c #7AB8D6",
"(  c #75AFD2",
")  c #46BAE4",
"_  c #58BBE4",
"`  c #67BCE5",
"'  c #75BDE3",
"]  c #38C7F5",
"[  c #35C8F3",
"{  c #1AC3F2",
"}  c #7BC2DB",
"|  c #48C2EB",
" . c #58C4EA",
".. c #4ACBF6",
"X. c #58CAF4",
"o. c #47D4FF",
"O. c #58D4FC",
"+. c #6CC4E4",
"@. c #68C6E8",
"#. c #74CCEB",
"$. c #79C6E6",
"%. c #7AD1EE",
"&. c #69C9F3",
"*. c #77CBF2",
"=. c #69D5F9",
"-. c #7BD3F4",
";. c #79D8F9",
":. c #79E4FF",
">. c #69E6FF",
",. c #59C0DF",
"<. c #96979C",
"1. c #8D9297",
"2. c #B69794",
"3. c #9B9DA1",
"4. c #96AAB9",
"5. c #91A4B2",
"6. c #A6A7AA",
"7. c #ACADB3",
"8. c #A3ADB6",
"9. c #ADB1B6",
"0. c #ABB3BB",
"q. c #B3B5BB",
"w. c #B5B6B9",
"e. c #B0AAAC",
"r. c #EFB4A8",
"t. c #DAA69D",
"y. c #93AEC3",
"u. c #88B9CC",
"i. c #9AB2C6",
"p. c #95B5CB",
"a. c #93BACE",
"s. c #9CBACC",
"d. c #99B4C7",
"f. c #85BDD4",
"g. c #8BBED3",
"h. c #86B9D7",
"j. c #97BDD6",
"k. c #8CADC6",
"l. c #A4BBCD",
"z. c #A8B7C7",
"x. c #B8BCC6",
"c. c #A9BCD2",
"v. c #B3BED0",
"b. c #84BEE1",
"n. c #97C3CD",
"m. c #8AC4D8",
"M. c #94C4D4",
"N. c #94C3DB",
"B. c #9CC3DB",
"V. c #9CCADB",
"C. c #98C8D7",
"Z. c #9BD1DD",
"A. c #8ACCDA",
"S. c #A3C3CD",
"D. c #ABC4CD",
"F. c #BAC2CA",
"G. c #A3C4D4",
"H. c #ABC5D3",
"J. c #ACCAD4",
"K. c #A2C5DC",
"L. c #A3CCDC",
"P. c #ABCCDC",
"I. c #A8C7D7",
"U. c #B3C4D4",
"Y. c #B4CAD5",
"T. c #B2CDDB",
"R. c #B9C9D7",
"E. c #A8D3DC",
"W. c #B7D2DD",
"Q. c #86C8E6",
"!. c #9BCCE3",
"~. c #96CAE5",
"^. c #8AD4E9",
"/. c #9BD4E4",
"(. c #98D6E9",
"). c #84D3F3",
"_. c #83DCFC",
"`. c #8BDDFC",
"'. c #89D8F5",
"]. c #94DCFC",
"[. c #94DAF4",
"{. c #8ACBF2",
"}. c #A3CCE3",
"|. c #ABCDE3",
" X c #A5C9E5",
".X c #B7CDE3",
"XX c #A3D3E3",
"oX c #ABD2E3",
"OX c #ACD4EB",
"+X c #A7D9E9",
"@X c #B3D3E4",
"#X c #BCD4E3",
"$X c #B3D5EA",
"%X c #BBD5EC",
"&X c #B3DBEB",
"*X c #BBDAEE",
"=X c #B7DAE5",
"-X c #A9DBF5",
";X c #B3DCF3",
":X c #BCDDF2",
">X c #BCDCFB",
",X c #8CE4FE",
"<X c #86E5FF",
"1X c #94E3FD",
"2X c #9AE5FE",
"3X c #9CEBFF",
"4X c #96E8FE",
"5X c #94F0FF",
"6X c #B6E5EB",
"7X c #A2EDFE",
"8X c #A9E6FC",
"9X c #BDE2F3",
"0X c #B8E6F8",
"qX c #A8F2FF",
"wX c #B7F6FF",
"eX c #ACE3EC",
"rX c #C3C5CB",
"tX c #C5CBD5",
"yX c #C3D3DD",
"uX c #CAD3DA",
"iX c #D4D7DC",
"pX c #D0C2C2",
"aX c #EED4D1",
"sX c #C3D3E3",
"dX c #C3D9E3",
"fX c #CADBE3",
"gX c #C3D4EB",
"hX c #C9D9EA",
"jX c #DADDE4",
"kX c #D6DBE5",
"lX c #C4DDF4",
"zX c #CCDDF4",
"xX c #CADEF8",
"cX c #D1DEF5",
"vX c #D1DFF9",
"bX c #C4CEE2",
"nX c #DEE1E8",
"mX c #C2E3F5",
"MX c #CDE1F5",
"NX c #C5E4FA",
"BX c #CCE4FB",
"VX c #C4EBFB",
"CX c #CCEAFE",
"ZX c #C6ECF4",
"AX c #D1E1F7",
"SX c #D2E4FB",
"DX c #D6EAFE",
"FX c #DAF4FF",
"GX c #C7EEF4",
"HX c #E5E6EA",
"JX c #E8EBF3",
"KX c #F5FBFE",
"LX c #FCFEFE",
"PX c #F5F5F9",
"IX c #F5EFF0",
"UX c #E1C4BD",
/* pixels */
"F.R.tXuXuXuXuXuXdXdXW.Y.D.J.Y.uXbXsXdX=XdXlXzXlX*X@X%X*X%X*XgXhXlX*X-X-X{.E Q.!.V.L.oX@X%X&X=X=XW.E.E.E.L.P.L.I.I.J.P.P.T..XgXgX",
"R.uXfXiXfXuXuXuXfXfXuXW.Y.rXW.dXgXhXhXhXhXdXgX%X@X@X@X@X$X.X%X@X$X|.f.m.^ S ( Q.~.XXoXoXoX@XE.W.E.W.T.E.P.oXW.@XW.E.oX@X.X$XgXgX",
"uXuXkXfXfXuXfXfXfXfXfXyXY.yXW.yXfXfXhXdXfXdX.XT.|.K.I.T.K..XI.B.g.P m.4X7X^.' ` ' } N.}.}.E.E.E.E.E.W.W.@X@XW.#X=X=X@X@X|.$X%X%X",
"fXfXkXdXyXdXdXdXfXfXfXuXrXY.Y.Y.W.yX#XsX=XW.P.|.c.c.K. X!.j.a.f.W ` '.7XqX2X,X).-.^ I m.C.M.M.V.G.E.oX@X=X=X#X@XW.E.oXP.P.|.|..X",
"fXbXfXW.yXW.uXuXyXuXyXyXW.Y.D.D.D.R.U.T.T.P. XK.}.V.~.~.t i ^ H #.%.,X4XwXqXqX[.^.^.} ( m.n.M.m.M.C.L.E.oXW.W.T.P.I.K.!.V.V. XK.",
"fXsXyXW.R.Y.Y.yXR.R.R.R.Y.D.D.S.z.c.I.I.G.K.K.!.~.I W W i ^ ` J _._.1X^.U 8XwXwX1X'.' ^ T m.T u.m.M.n.n.V.I.P.L.L.j.j.j.B.j.j.j.",
"yXyXW.W.W.Y.J.J.D.F.D.F.D.S.S.S.p.p.l.l.c.c. X~.Q.R @.-.[.U $.<X,X3X3X2XU ^.3X7X3X1X^.^ } } u.m.u.m.n.m.M.C.V.L.V.M.N.N.N.j.!.j.",
"R.dX#XW.E.J.J.S.D.J.D.D.D.n.0.n.p.j.I T j.~.!.~ ' ;.;.3X[.a $.'.} } 7X'.'.5X7XqX7X1X1XQ.U T / f.m.u.u.m.M.M.M.C.N.m.j.N.~.j.B.B.",
"Y.Y.J.J.J.n.G.S.D.J.H.s.H.c.s.j.g.I W ' {.~.^ ' ! #.<X5XqXd ^.(.e e A.^.^.<X1X3X3X3X1X1X{.P ~ m.m.u.f.u.u.u.g.m.g.m.m.j.~.j.!.j.",
"D.Y.W.J.J.E.G.S.J.S.s.s.G.K.s.j.( ^ ;.;.%.%.` @.).1X5X} A.m.A.Z.p qXqX).1X,X4X[.[.7X3X} '.Q.~ f.u.u.m.M.u.u.T u.g.m.j.N.j.~.!.c.",
"J.J.Y.Y.E.Y.J.D.J.J.I.G.j.c.j.N.S =.X.=.;.<X<X-.'.'.p U p n.n.d } } H C ).1X^.,X2X2X1X5X` ^ / f.T m.m.m.T Y T h.g.h.j.j.j.B. XB.",
"J.J.J.Y.Y.J.H.G.S.J.P.p.j. XB.b.E :. .x =.;.-.<X4X^.f } e d s p ^.-.0 q Q '.#.1X1X2X,X4X1X$.~ } f.f.m.m./ T / f.h.h.j.j.B. X XB.",
"D.Y.Y.U.J.H.H.J.J.J.I.s.B.j.b.h.%.@.X.J @.,X,X,X4XqX#.L m.d s s %._.J _ ].F '._.'.3X3X1X3X,X! ! S ~ / / T Y Y / h.h.h.j.B. XK.K.",
"D.F.Y.J.J.J.G.J.n.G.L.n.!.j.h.Z $.<X:.<X<X:.#.%.,X,X<XH [.a p d {.-.C ` 7X{.Q ,X1X,X4X3X1X3X,X*.S ( / / Y T T T ( ( k.j. X X X X",
"z.v.U.v.D.S.S.S.G.n.C.C.V.~.!.( ! <X5X5X5X:.,.;.;.=.:.N ! b.6 u.' C > ` ].qX+.K 4X7X5X%.^.'.,X`.' ~ ~ T Y Y I I ( h.( j. X X XB.",
"z.v.z.z.D.D.S.n.n.n.n.M.C.~.~.' +.%.%.:.%.<X .=.=.G q 8 p 6 + + X X > D 8XwX4XQ 1 L W U } ! Q -.$.E / T U I Y ( I ( h.N. X.X XB.",
"8.v.z.c.c.l.n.n.n.n.n.n.M./.Q.R ;.*.<X<X-.=. .x F H A.8XmXR.yXyX.Xs 1 1 wXwX1X_.S 1X1XqX7X].,X#.R ! ~ Y Y Y Y I Y Y T ~.!.|. XB.",
"z.v.c..X.Xi.l.n.n.n.n.n.M./.W F @.-.#.-.=.&._ @.,XeX+X4.R.iX<.w.rXvX;XO 6 8X1XS -.1X[.qXqX2X1X,X-.` E } W U U ~ I / h.h.!. X Xj.",
"7.x.v.c.s.d.l.H.n.n.n.n.C.~.$.` Q _.'.#.D 9 h H p e 8.rXHXPXnXtX6.r U.U.. 2 {.N %.1X8X+X7X3X4X,X;.*.` N A ! U Y T ( h.j.~.~.V.N.",
"v.v.v.c.i.4.i.i.l.S.n.M.!.(.#.@.;.'.4X,X_._ &.).d 6XPXIXJXKXKXiXiXtX<.yX1.. X C 3X1X].(.1X_.@.` ` ` F _ F F Q ~ T h.h.~.V./.~.h.",
"v.R.v.c.z.i.i.4.k.s.K.~.$.` _ =.:.<X1X,X-._ *.{.6XfX3.w.IXLXw.6.e.e.iXrXtX+ . > V R S ' F J _ &.&.J ,X<X;.K S ^ / g.g.j.~.~.N.h.",
"z.v.R.v.l.i.d.s.p.p.j.I N D X.=.,.;.#.:.-.H +.Q.GX3.HXHXuXIX# e.LXjXrXiXiX7   . . 4 )._.` F ,X;.N _.<X<X=.` i ' g.m.N.~.}.!.~.h.",
"z.R.v.c.l.d.s.d.p.p.h.a F X._ _ -.@.@.#.+.U f.M.HX  $ IXaXHX    pXHXw.uXtXv.6 7 X O S ].qXh 5 h @.+.%._.-.' / ~.N.~.V.oX X$XOXj.",
"z.c.c.l.i.i.p.d.p.p.j.( H =.&.A G &.#.#.} 8XCX#XIXr $ r.r.aX- # uXF.rXJXJXPXLXDXk.X X 0 B 0 F *.,X-.'._.].$.Q.K.B.L.}. X$X$X XB.",
"i.l.i.i.4.u.d.4.u.u.u.I $.-.<XD G G K Q.FXKXKXPXIXr.; = & ; t.aXpXq.jXPXKXKXPXDXJXs O > 2 ' ,X`.1X4X,X).1X/ T V.C.L.E.E.&X&XOXB.",
"z.i.i.y.y.y.4.4.4.M.k.I [.%.K _  .@.,.} KXLXKXPXr.; * * * = % t.rXiXJXJXPXKXJXiXuX4.< V B B -.4X1X4X,X^.2X/ A.M.V.C.C.E.L.V.L.K.",
"i.i.i.k.y.k.y.4.p.p.Z ( $.#. .&.@.#.$.A.zXLXLXaXt.= * * * = - 2.w.iXHXJXJXJXiXx.6.s 2 u C B F Q.[.1X2X1X$.h.~./.Z.E.Z.Z.Z.C.V.B.",
"l.c.p.k.k.y.s.d.s.l.h.P ^.#.K -.;.} ,.T sXPXIXaX; = = * & & - 2.w.pXiXnXHXjXjXrX8.7 2 B S S B F ^.3X].2X].Q.m.+XXX+XE.E.E.E.V.V.",
"l.p.p.k.u.p.s.a.p.p.N.a b.].Q D @.+.+.~ MXPXHX2.; % & % % - 2.6.w.iXiXHXjXjXjXx.8.# > V V F F B ' ].].[.[.W / 8X6XE.E.E.E.E.Z.Z.",
"j.c.s.u.a.a.a.s.s.j.C.d a {.-.H F +.0 W FXIXHXaXr.r.: - 2.2.e.x.uXnXiXiXjXjXjXx.4.# X < 3 N R 3 3 S [.'.1X$.m.(.oX6X6X6X6XE.E.A.",
"j.K.j.a.u.k.u.u.p.a.M.h.P {.#.#.B S S e FXPXJXIXIXIXIXaXpXx.pXuXjXjXnXnXkXkXtX6.8.+ < i 3 3 8 1 S ^ L ].].' Y A.eX+XeX6X=XE.Z.A.",
" XB. XB.M.}.XXa.C.B.u.N./ E %.E H +.+.Q.DXKXLXLXLXLXLXIXnXjXnXnXHXHXnXjXjXkXx.3.z.o + P V R V 8 W ^ W $.,X^ W ^./.XXoXeX&X+XZ.M.",
"XX+X+X+X+XOX+XXX&X}.C.~.U S Q H F H Q Q.FXKXLXLXLXLXLXLXPXPXJXJXHXnXjXnXjXx.6.4.8.o + f f S R i ' $.Q.Q.$.V } A.eX+XoX6X;X0XXXM.",
"}.+X+X/.V.C.C.V.K.L.C./.W A K ,.K +.! ^ @XKXKXLXLXLXLXLXLXPXPXJXJXkXkXrX7.3.6.7.4.@ + p a i P i b.~ ^ ^ W / A.A.(./.+X+X;X-X+X~.",
"~.+XL.XX!.V.C.L.L.V.Z.Z.m.S Q G ,.#.$.Q.s W.kXnXHXJXHXHXjXkXtXrXx.7.3.3.6.6.8.0.5.o + 8 f S i u W $.Q.( {.2X^.^.^.^./.+X-X-X+X~.",
"N.+XXXoXXXL.L.oXE.Z.C.A.m.~ H H H Q #.W T XXD.9.iXiXiXiXtXrXpXx.<.<.6.9.9.7.7.x.r @ 2 t f P R ! ! ! W ( Y 1X(.A.A.A./.+X~.-X+X~.",
"!.+XXXoXL.E.P.oXL.n.Z.u.A.U H +.K ,.H f S ~.dXtXiXHXHXjXjXiXtXx.6.6.q.q.0.9.7.0.6 o 2 t B A L ^ H F W S i +.[.^.A.^.Z././.eX-XXX",
"OX&X|.L.L.|.oX|.V.M.A.^.} f E +.Q H ,.#.F L I.uXtXrXx.tXrXw.7.3.<.6.9.w.0.9.q.8.+ + t y N u i S S ^ ).).F N L (.(.^.Z.Z.+X0X0X&X",
"$X;X|.}.V.V.P.L.C.A.A.L u F K @.+.} +.@.D A ~.#XtXrX7.3.<.<.1.<.6.6.e.w.9.7.0.r . 3 t y B y P W L +.$.+.*.` y {.(././.eX6X0XNX>X",
"OX-XOXOX}.V.L.V.a.A.H 8 J J J K +.#.,.+.G 0 2 u.bXtXrXx.w.7.7.e.7.9.9.w.9.7.D.7 @ O p V 8 B b.' $.^ ! Q R y ~ (./.eX+X0X0X9XVXNX",
";X;X;X+X}.&XXXC.n.A.F A D K J K ,.+.<X%.+.8 , 2 |.R.tXrXrXx.x.w.9.9.q.q.7.0.5.+ 2 + 1 B y R ~ ' ~ ' ! F i Y '.(.(.eX6X6XZXGX0XGX",
"OX;XOXOXoX&XE.C.E.u.y D J J K  .G H S E u ^ [.i 5.sXF.rXrXrXw.x.w.w.q.7.7.z.6 O 3 p 3 < 1 V ' ~ ' ` R u } 2X(.(.(.(.eXGXGX0XVXGX",
" X%XOX$X&X@XoXL.C.A.8 A G G G ,.x D H L i ].].-Xa l.R.rXx.x.x.w.w.q.7.7.q.5.O > t i i Z Z 3 y y F ' P ( ^.(./.Z.Z.eX6XGXVXVXVXVX",
"|.|.|.$X@X@XE.L.&X0X^.A D c ,.,.G K %.#.L L $.L L p R.F.rXx.x.w.w.9.7.0.x.7 O < y u P ( I b.R V R P P ~.m././.XXeXeX6XGXGXGXVXVX",
"oX$X$X$X=XW.L.&X&XXX8XL F K  .G J ,.,.+.Q H S Q $.2 I R.x.w.x.q.9.7.7.z.s + 1 3 S i V ~ a P V ' ' Z Z  X!.+X+X+XeX6XGXZXGXGX9X9X",
"P.*X$X&XgX=XC.L.E.0X+Xa ,.J ) c G ,.,.@. .K @.#.` C + |.U.x.w.q.9.9.z.y.+ < y 0 E t S ~ m.h.P h.P Z ~.~.!.-X;X;X6XGXZXnXwXGXGX6X",
"P.*X$X$X|.n.n.oXZX;XeXy S  .c c c j c ) D &.+.@.` C > 6 .Xx.x.q.9.0.y.6 1 , h 4 B L S E R W Q.( !.;X>X X}.;X&X*XGXGXGXGXZX9XwXqX",
"@X%XoX&XOXM.+X6XOXV.8X} D | c c m z v v c J K D ` 4 1 V d G.I.P.v.k.6 3 4 , h 9 5 N F S ! ' R ( >X>X-X X XOX:XZXGXGXGXGX6X6X0XeX",
"@X$X@XP.OX}.u.g.j.XX8XE x ) | ....v z z c G  ._ 5 4 D J S S S p y 3 3 0 9 5 h h 9 q 0 H F ` V Z >X%X%X X}.&X9XVXZXBXmXmX9X9X6XeX",
"|.$X|.P..Xp.a.g.!.-X0Xy 9 m c X.| c c [ v [ )  .D D G X.X.x D 4 , 3 j j 9 5 h G h A ` #.` N V {.>X%X$XOX@X9X9XmXlX9XmXmX9X6X0X+X",
"K.|..X.X|.s.K. XOX9X0XQ.9 c m ..O.| | [ c | c X.x _ &.m m M =.) ` _ 9 9 9 5 0 N Q {.{.*.*.V b.lX;X*X$X%X9XmX9XmXmX6XmXmX;X&X0XeX",
"I.P..X.Xc.I..X:X9XVXwX8XA c ) ) )  .,.m | .... .j =.X.m M o.O.h F _ h h D 0 9 +.' *.$.{.' R OX$X:X%X%X>XNXNXZXNX9XmXmX9X*X:X9X&X",
"c.c..X.X.XgXvXSXDXCX0X8XJ j | O.D <X>.v c ..O.) ) _ [ | ..O.O.g D ;.;.<X:.A A D ;.+.` *.*.S -X>XlX*X*X9XNXNXCXCX:X9X:X:X:X%X:X$X",
"c..X.XgXgXcXvXvXDXDXCX0X#.q x  . .@.=.c | ....O.o.m O.>...m z j x ;. .&.=.O.=.J J G J &.` B ~.lX>X:X:XNXmXCXCXBX:X9X*X>X*X:XlX%X",
"c.c..XbXgXSXJXJXDXDXcXxX-X0 9 ) m j ) | :.>.O.[ o.] ] ..| ..z ] z ..=.c m >.X.X. .&.) X._ R >X%XNX9XmXVXNXBXCXmX:XlX*XlX%XlXlX%X",
"v..XgXzXvXvXDXDXAXcXhXgX-X/ F &._ c O.O.=. .n b n ] b { o...] b ] z O.) c [ m | m O.G _ N R NX%XBX*X:X9XCXmXBX:X*X:X%X:XxXgXxX%X",
"U..XxXzXSXDXDXBXzXzXgXsX.X$X$X>X[.R ) | v g l b b b { { { [ ] k ] M M ] k o.o.[ z j D N C Z xX:XBX*X*XmXNXNXlXlXmXlXlXzXzXvXxXlX",
"R.bXhXcXSXSXBXlX%XgXgXhX#X.X.X%X>X-XF D X.:.M l b b b M ] ] b b [ n b { k M [ w j _ {.{. XxXxX%XBX*X:XNXNXxXlXlXlXlXlXBXzXMXSXAX",
"tXgXhXzXAXAXNX%X%X#XsX.XbXbXbXgXhX;X8XB _ =.z g g g g k [ k k M l b l l l k 9 A Q.-XOX;X>XlXxXlXBX*XlXCXmXxXlXlXlXgXlXzXzXAXDXAX",
"bXhXzXMXMXMXNX$X%X#XsXgXgXbXgXzXzXlX:X-Xu 0 9 _ _.` -.@.j g j k g l l l k x _ 8X;X%X*XlXxXxXxXxXlXxXCXCXlXxXBXlXxXxXlXvXcXAXSXMX",
"kXcXcXcXAXMXxX%XlXgXhXxXzXzXhXhXzXzXzXCX( t b.0XNXVXVX0X-X8Xb.' ` j M ..) ].0XNXNXzXMXvXxXzXSXBXBXBXDXCXNXzXMXxXBXzXzXvXzXzXAXAX",
"hXcXcXcXvXvXxXlXMXvXxXvXxXxXcXvXAXAXzXSXCXVXCXBXSXzXzXvXvXlXNX0X-X` v j S wXNXBXBXBXMXSXCXvXvXSXDXAXSXBXBXBXvXxXxXzXzXAXcXzXAXhX",
"bXcXcXcXvXvXcXcXzXzXzXvXAXzXcXvXvXAXSXBXNXNXNXBXAXAXAXzXxXxXxXxXxXwXF 5 i VXCXBXSXBXSXDXvXBXDXSXDXSXDXBXSXAXAXzXzXMXzXAXAXvXMXhX",
"tXbXkXcXcXvXcXcXhXcXcXcXzXzXcXvXvXvXBXSXvXvXvXAXvXvXzXzXhXzXlXzXzXCX-X{.>XCXCXBXSXBXBXBXBXBXSXSXDXBXDXBXSXSXAXzXzXAXAXzXcXAXcXzX"
};
